<ttFont>
<head>
    <!-- Most of this table will be recalculated by the compiler -->
    <tableVersion value="1.0"/>
    <fontRevision value="2.0"/>
    <checkSumAdjustment value="0x9e51b933"/>
    <magicNumber value="0x5f0f3cf5"/>
    <flags value="00000000 00000011"/>
    <unitsPerEm value="2000"/>
    <created value="Fri Dec 23 10:14:22 2016"/>
    <modified value="Wed Oct 31 16:13:24 2018"/>
    <xMin value="-380"/>
    <yMin value="-520"/>
    <xMax value="3482"/>
    <yMax value="2758"/>
    <macStyle value="00000000 00000000"/>
    <lowestRecPPEM value="6"/>
    <fontDirectionHint value="2"/>
    <indexToLocFormat value="0"/>
    <glyphDataFormat value="0"/>
  </head>
    <TTGlyph name=".notdef" xMin="100" yMin="-440" xMax="900" yMax="1616">
      <contour>
        <pt x="100" y="-440" on="1"/>
        <pt x="900" y="-440" on="1"/>
        <pt x="900" y="1616" on="1"/>
        <pt x="100" y="1616" on="1"/>
      </contour>
      <contour>
        <pt x="200" y="-340" on="1"/>
        <pt x="200" y="1516" on="1"/>
        <pt x="800" y="1516" on="1"/>
        <pt x="800" y="-340" on="1"/>
      </contour>
    </TTGlyph>
    <TTGlyph name="A" xMin="16" yMin="0" xMax="1744" yMax="1480">
      <contour>
        <pt x="16" y="0" on="1"/>
        <pt x="536" y="1480" on="1"/>
        <pt x="1224" y="1480" on="1"/>
        <pt x="1744" y="0" on="1"/>
        <pt x="1280" y="0" on="1"/>
        <pt x="858" y="1284" on="1"/>
        <pt x="898" y="1284" on="1"/>
        <pt x="476" y="0" on="1"/>
      </contour>
      <contour>
        <pt x="500" y="334" on="1"/>
        <pt x="610" y="684" on="1"/>
        <pt x="1148" y="684" on="1"/>
        <pt x="1256" y="334" on="1"/>
      </contour>
    </TTGlyph>
    <TTGlyph name="AE" xMin="16" yMin="0" xMax="2296" yMax="1480">
      <contour>
        <pt x="16" y="0" on="1"/>
        <pt x="536" y="1480" on="1"/>
        <pt x="1202" y="1480" on="1"/>
        <pt x="1202" y="1130" on="1"/>
        <pt x="846" y="1130" on="1"/>
        <pt x="476" y="0" on="1"/>
      </contour>
      <contour>
        <pt x="500" y="334" on="1"/>
        <pt x="610" y="684" on="1"/>
        <pt x="1194" y="684" on="1"/>
        <pt x="1194" y="334" on="1"/>
      </contour>
      <contour>
        <pt x="1116" y="0" on="1"/>
        <pt x="988" y="1480" on="1"/>
        <pt x="2286" y="1480" on="1"/>
        <pt x="2286" y="1130" on="1"/>
        <pt x="1484" y="1130" on="1"/>
        <pt x="1562" y="350" on="1"/>
        <pt x="2296" y="350" on="1"/>
        <pt x="2296" y="0" on="1"/>
      </contour>
      <contour>
        <pt x="1242" y="580" on="1"/>
        <pt x="1242" y="930" on="1"/>
        <pt x="2180" y="930" on="1"/>
        <pt x="2180" y="580" on="1"/>
      </contour>
    </TTGlyph>
    <TTGlyph name="AEacute" xMin="16" yMin="0" xMax="2296" yMax="1902">
      <component glyphName="AE" x="0" y="0" flags="0x204"/>
      <component glyphName="acutecomb.case" x="636" y="0" flags="0x4"/>
    </TTGlyph>
    <TTGlyph name="Aacute" xMin="16" yMin="0" xMax="1744" yMax="1902">
      <component glyphName="A" x="0" y="0" flags="0x204"/>
      <component glyphName="acutecomb.case" x="278" y="0" flags="0x4"/>
    </TTGlyph>
    <TTGlyph name="Abreve" xMin="16" yMin="0" xMax="1744" yMax="1902">
      <component glyphName="A" x="0" y="0" flags="0x204"/>
      <component glyphName="uni0306.case" x="278" y="0" flags="0x4"/>
    </TTGlyph>
    <TTGlyph name="Acircumflex" xMin="16" yMin="0" xMax="1744" yMax="1902">
      <component glyphName="A" x="0" y="0" flags="0x204"/>
      <component glyphName="uni0302.case" x="278" y="0" flags="0x4"/>
    </TTGlyph>
    <TTGlyph name="Adieresis" xMin="16" yMin="0" xMax="1744" yMax="1930">
      <component glyphName="A" x="0" y="0" flags="0x204"/>
      <component glyphName="uni0308.case" x="278" y="0" flags="0x4"/>
    </TTGlyph>
    <TTGlyph name="Agrave" xMin="16" yMin="0" xMax="1744" yMax="1902">
      <component glyphName="A" x="0" y="0" flags="0x204"/>
      <component glyphName="gravecomb.case" x="278" y="0" flags="0x4"/>
    </TTGlyph>
    <TTGlyph name="Amacron" xMin="16" yMin="0" xMax="1744" yMax="1870">
      <component glyphName="A" x="0" y="0" flags="0x204"/>
      <component glyphName="uni0304.case" x="278" y="0" flags="0x4"/>
    </TTGlyph>
    <TTGlyph name="Aogonek" xMin="16" yMin="-460" xMax="1778" yMax="1480">
      <component glyphName="A" x="0" y="0" flags="0x204"/>
      <component glyphName="uni0328.case" x="1228" y="0" flags="0x4"/>
    </TTGlyph>
    <TTGlyph name="Aring" xMin="16" yMin="0" xMax="1744" yMax="2010">
      <component glyphName="A" x="0" y="0" flags="0x204"/>
      <component glyphName="uni030A.case" x="278" y="0" flags="0x4"/>
    </TTGlyph>
    <TTGlyph name="Aringacute" xMin="16" yMin="0" xMax="1744" yMax="2136">
      <component glyphName="A" x="0" y="0" flags="0x204"/>
      <component glyphName="uni030A0301.case" x="278" y="0" flags="0x4"/>
    </TTGlyph>
    <TTGlyph name="Atilde" xMin="16" yMin="0" xMax="1744" yMax="1902">
      <component glyphName="A" x="0" y="0" flags="0x204"/>
      <component glyphName="tildecomb.case" x="278" y="0" flags="0x4"/>
    </TTGlyph>
    <TTGlyph name="B" xMin="130" yMin="-20" xMax="1468" yMax="1500">
      <contour>
        <pt x="622" y="-20" on="1"/>
        <pt x="555" y="-20" on="0"/>
        <pt x="378" y="-11" on="0"/>
        <pt x="199" y="3" on="0"/>
        <pt x="130" y="12" on="1"/>
        <pt x="130" y="1432" on="1"/>
        <pt x="209" y="1451" on="0"/>
        <pt x="409" y="1482" on="0"/>
        <pt x="617" y="1500" on="0"/>
        <pt x="708" y="1500" on="1"/>
        <pt x="966" y="1500" on="0"/>
        <pt x="1284" y="1399" on="0"/>
        <pt x="1430" y="1207" on="0"/>
        <pt x="1430" y="1070" on="1"/>
        <pt x="1430" y="990" on="0"/>
        <pt x="1364" y="860" on="0"/>
        <pt x="1251" y="772" on="0"/>
        <pt x="1180" y="756" on="1"/>
        <pt x="1180" y="768" on="1"/>
        <pt x="1300" y="749" on="0"/>
        <pt x="1468" y="585" on="0"/>
        <pt x="1468" y="430" on="1"/>
        <pt x="1468" y="327" on="0"/>
        <pt x="1385" y="161" on="0"/>
        <pt x="1191" y="43" on="0"/>
        <pt x="865" y="-20" on="0"/>
      </contour>
      <contour>
        <pt x="754" y="300" on="1"/>
        <pt x="868" y="300" on="0"/>
        <pt x="992" y="334" on="0"/>
        <pt x="1040" y="398" on="0"/>
        <pt x="1040" y="444" on="1"/>
        <pt x="1040" y="521" on="0"/>
        <pt x="948" y="592" on="0"/>
        <pt x="820" y="592" on="1"/>
        <pt x="542" y="592" on="1"/>
        <pt x="542" y="918" on="1"/>
        <pt x="780" y="918" on="1"/>
        <pt x="858" y="918" on="0"/>
        <pt x="949" y="949" on="0"/>
        <pt x="988" y="1008" on="0"/>
        <pt x="988" y="1050" on="1"/>
        <pt x="988" y="1115" on="0"/>
        <pt x="891" y="1180" on="0"/>
        <pt x="762" y="1180" on="1"/>
        <pt x="720" y="1180" on="0"/>
        <pt x="632" y="1170" on="0"/>
        <pt x="594" y="1162" on="1"/>
        <pt x="594" y="306" on="1"/>
        <pt x="641" y="302" on="0"/>
        <pt x="717" y="300" on="0"/>
      </contour>
    </TTGlyph>
    <TTGlyph name="C" xMin="84" yMin="-20" xMax="1416" yMax="1500">
      <contour>
        <pt x="1048" y="-20" on="1"/>
        <pt x="808" y="-20" on="0"/>
        <pt x="447" y="77" on="0"/>
        <pt x="205" y="268" on="0"/>
        <pt x="84" y="551" on="0"/>
        <pt x="84" y="736" on="1"/>
        <pt x="84" y="969" on="0"/>
        <pt x="303" y="1312" on="0"/>
        <pt x="736" y="1500" on="0"/>
        <pt x="1058" y="1500" on="1"/>
        <pt x="1153" y="1500" on="0"/>
        <pt x="1331" y="1485" on="0"/>
        <pt x="1416" y="1468" on="1"/>
        <pt x="1416" y="1092" on="1"/>
        <pt x="1343" y="1106" on="0"/>
        <pt x="1185" y="1120" on="0"/>
        <pt x="1098" y="1120" on="1"/>
        <pt x="913" y="1120" on="0"/>
        <pt x="686" y="1032" on="0"/>
        <pt x="582" y="862" on="0"/>
        <pt x="582" y="740" on="1"/>
        <pt x="582" y="618" on="0"/>
        <pt x="684" y="448" on="0"/>
        <pt x="903" y="360" on="0"/>
        <pt x="1078" y="360" on="1"/>
        <pt x="1171" y="360" on="0"/>
        <pt x="1343" y="381" on="0"/>
        <pt x="1416" y="396" on="1"/>
        <pt x="1416" y="20" on="1"/>
        <pt x="1335" y="2" on="0"/>
        <pt x="1144" y="-20" on="0"/>
      </contour>
    </TTGlyph>
    <TTGlyph name="Cacute" xMin="84" yMin="-20" xMax="1416" yMax="1902">
      <component glyphName="C" x="0" y="0" flags="0x204"/>
      <component glyphName="acutecomb.case" x="280" y="0" flags="0x4"/>
    </TTGlyph>
    <TTGlyph name="Ccaron" xMin="84" yMin="-20" xMax="1416" yMax="1902">
      <component glyphName="C" x="0" y="0" flags="0x204"/>
      <component glyphName="uni030C.case" x="280" y="0" flags="0x4"/>
    </TTGlyph>
    <TTGlyph name="Ccedilla" xMin="84" yMin="-460" xMax="1416" yMax="1500">
      <component glyphName="C" x="0" y="0" flags="0x204"/>
      <component glyphName="uni0327.case" x="280" y="0" flags="0x4"/>
    </TTGlyph>
    <TTGlyph name="Ccircumflex" xMin="84" yMin="-20" xMax="1416" yMax="1902">
      <component glyphName="C" x="0" y="0" flags="0x204"/>
      <component glyphName="uni0302.case" x="280" y="0" flags="0x4"/>
    </TTGlyph>
    <TTGlyph name="Cdotaccent" xMin="84" yMin="-20" xMax="1416" yMax="1930">
      <component glyphName="C" x="0" y="0" flags="0x204"/>
      <component glyphName="uni0307.case" x="280" y="0" flags="0x4"/>
    </TTGlyph>
    <TTGlyph name="D" xMin="130" yMin="-14" xMax="1716" yMax="1494">
      <contour>
        <pt x="632" y="-14" on="1"/>
        <pt x="563" y="-14" on="0"/>
        <pt x="390" y="-8" on="0"/>
        <pt x="210" y="4" on="0"/>
        <pt x="130" y="14" on="1"/>
        <pt x="130" y="1432" on="1"/>
        <pt x="211" y="1451" on="0"/>
        <pt x="419" y="1479" on="0"/>
        <pt x="640" y="1494" on="0"/>
        <pt x="740" y="1494" on="1"/>
        <pt x="1220" y="1494" on="0"/>
        <pt x="1716" y="1129" on="0"/>
        <pt x="1716" y="740" on="1"/>
        <pt x="1716" y="469" on="0"/>
        <pt x="1478" y="137" on="0"/>
        <pt x="997" y="-14" on="0"/>
      </contour>
      <contour>
        <pt x="762" y="356" on="1"/>
        <pt x="927" y="356" on="0"/>
        <pt x="1135" y="436" on="0"/>
        <pt x="1232" y="607" on="0"/>
        <pt x="1232" y="744" on="1"/>
        <pt x="1232" y="877" on="0"/>
        <pt x="1130" y="1046" on="0"/>
        <pt x="922" y="1126" on="0"/>
        <pt x="762" y="1126" on="1"/>
        <pt x="728" y="1126" on="0"/>
        <pt x="639" y="1118" on="0"/>
        <pt x="606" y="1112" on="1"/>
        <pt x="606" y="360" on="1"/>
        <pt x="642" y="357" on="0"/>
        <pt x="719" y="356" on="0"/>
      </contour>
    </TTGlyph>
    <TTGlyph name="Dcaron" xMin="130" yMin="-14" xMax="1716" yMax="1902">
      <component glyphName="D" x="0" y="0" flags="0x204"/>
      <component glyphName="uni030C.case" x="174" y="0" flags="0x4"/>
    </TTGlyph>
    <TTGlyph name="Dcroat" xMin="8" yMin="-14" xMax="1716" yMax="1494">
      <component glyphName="Eth" x="0" y="0" flags="0x204"/>
    </TTGlyph>
    <TTGlyph name="E" xMin="130" yMin="0" xMax="1412" yMax="1480">
      <contour>
        <pt x="130" y="0" on="1"/>
        <pt x="130" y="1480" on="1"/>
        <pt x="1402" y="1480" on="1"/>
        <pt x="1402" y="1130" on="1"/>
        <pt x="600" y="1130" on="1"/>
        <pt x="600" y="350" on="1"/>
        <pt x="1412" y="350" on="1"/>
        <pt x="1412" y="0" on="1"/>
      </contour>
      <contour>
        <pt x="358" y="580" on="1"/>
        <pt x="358" y="930" on="1"/>
        <pt x="1296" y="930" on="1"/>
        <pt x="1296" y="580" on="1"/>
      </contour>
    </TTGlyph>
    <TTGlyph name="Eacute" xMin="130" yMin="0" xMax="1412" yMax="1902">
      <component glyphName="E" x="0" y="0" flags="0x204"/>
      <component glyphName="acutecomb.case" x="188" y="0" flags="0x4"/>
    </TTGlyph>
    <TTGlyph name="Ebreve" xMin="130" yMin="0" xMax="1412" yMax="1902">
      <component glyphName="E" x="0" y="0" flags="0x204"/>
      <component glyphName="uni0306.case" x="188" y="0" flags="0x4"/>
    </TTGlyph>
    <TTGlyph name="Ecaron" xMin="130" yMin="0" xMax="1412" yMax="1902">
      <component glyphName="E" x="0" y="0" flags="0x204"/>
      <component glyphName="uni030C.case" x="188" y="0" flags="0x4"/>
    </TTGlyph>
    <TTGlyph name="Ecircumflex" xMin="130" yMin="0" xMax="1412" yMax="1902">
      <component glyphName="E" x="0" y="0" flags="0x204"/>
      <component glyphName="uni0302.case" x="188" y="0" flags="0x4"/>
    </TTGlyph>
    <TTGlyph name="Edieresis" xMin="130" yMin="0" xMax="1412" yMax="1930">
      <component glyphName="E" x="0" y="0" flags="0x204"/>
      <component glyphName="uni0308.case" x="188" y="0" flags="0x4"/>
    </TTGlyph>
    <TTGlyph name="Edotaccent" xMin="130" yMin="0" xMax="1412" yMax="1930">
      <component glyphName="E" x="0" y="0" flags="0x204"/>
      <component glyphName="uni0307.case" x="188" y="0" flags="0x4"/>
    </TTGlyph>
    <TTGlyph name="Egrave" xMin="130" yMin="0" xMax="1412" yMax="1902">
      <component glyphName="E" x="0" y="0" flags="0x204"/>
      <component glyphName="gravecomb.case" x="188" y="0" flags="0x4"/>
    </TTGlyph>
    <TTGlyph name="Emacron" xMin="130" yMin="0" xMax="1412" yMax="1870">
      <component glyphName="E" x="0" y="0" flags="0x204"/>
      <component glyphName="uni0304.case" x="188" y="0" flags="0x4"/>
    </TTGlyph>
    <TTGlyph name="Eng" xMin="130" yMin="-476" xMax="1674" yMax="1480">
      <contour>
        <pt x="1278" y="-104" on="1"/>
        <pt x="504" y="934" on="1"/>
        <pt x="578" y="934" on="1"/>
        <pt x="578" y="0" on="1"/>
        <pt x="130" y="0" on="1"/>
        <pt x="130" y="1480" on="1"/>
        <pt x="606" y="1480" on="1"/>
        <pt x="1372" y="450" on="1"/>
      </contour>
      <contour>
        <pt x="1352" y="-476" on="1"/>
        <pt x="1064" y="-284" on="1"/>
        <pt x="1119" y="-218" on="0"/>
        <pt x="1191" y="-83" on="0"/>
        <pt x="1226" y="77" on="0"/>
        <pt x="1226" y="180" on="1"/>
        <pt x="1226" y="1480" on="1"/>
        <pt x="1674" y="1480" on="1"/>
        <pt x="1674" y="236" on="1"/>
        <pt x="1674" y="91" on="0"/>
        <pt x="1613" y="-150" on="0"/>
        <pt x="1472" y="-367" on="0"/>
      </contour>
    </TTGlyph>
    <TTGlyph name="Eogonek" xMin="130" yMin="-460" xMax="1412" yMax="1480">
      <component glyphName="E" x="0" y="0" flags="0x204"/>
      <component glyphName="uni0328.case" x="796" y="0" flags="0x4"/>
    </TTGlyph>
    <TTGlyph name="Eth" xMin="8" yMin="-14" xMax="1716" yMax="1494">
      <component glyphName="D" x="0" y="0" flags="0x204"/>
      <component glyphName="uni0335.D" x="-198" y="-338" flags="0x4"/>
    </TTGlyph>
    <TTGlyph name="Euro" xMin="80" yMin="-20" xMax="1612" yMax="1500">
      <contour>
        <pt x="1244" y="-20" on="1"/>
        <pt x="1012" y="-20" on="0"/>
        <pt x="652" y="77" on="0"/>
        <pt x="407" y="268" on="0"/>
        <pt x="280" y="551" on="0"/>
        <pt x="280" y="736" on="1"/>
        <pt x="280" y="969" on="0"/>
        <pt x="507" y="1312" on="0"/>
        <pt x="942" y="1500" on="0"/>
        <pt x="1254" y="1500" on="1"/>
        <pt x="1349" y="1500" on="0"/>
        <pt x="1527" y="1485" on="0"/>
        <pt x="1612" y="1468" on="1"/>
        <pt x="1612" y="1112" on="1"/>
        <pt x="1539" y="1126" on="0"/>
        <pt x="1381" y="1140" on="0"/>
        <pt x="1294" y="1140" on="1"/>
        <pt x="1104" y="1140" on="0"/>
        <pt x="872" y="1050" on="0"/>
        <pt x="766" y="872" on="0"/>
        <pt x="766" y="740" on="1"/>
        <pt x="766" y="608" on="0"/>
        <pt x="870" y="430" on="0"/>
        <pt x="1094" y="340" on="0"/>
        <pt x="1274" y="340" on="1"/>
        <pt x="1367" y="340" on="0"/>
        <pt x="1539" y="361" on="0"/>
        <pt x="1612" y="376" on="1"/>
        <pt x="1612" y="20" on="1"/>
        <pt x="1531" y="2" on="0"/>
        <pt x="1340" y="-20" on="0"/>
      </contour>
      <contour>
        <pt x="80" y="448" on="1"/>
        <pt x="80" y="698" on="1"/>
        <pt x="1372" y="698" on="1"/>
        <pt x="1372" y="448" on="1"/>
      </contour>
      <contour>
        <pt x="80" y="802" on="1"/>
        <pt x="80" y="1052" on="1"/>
        <pt x="1372" y="1052" on="1"/>
        <pt x="1372" y="802" on="1"/>
      </contour>
    </TTGlyph>
    <TTGlyph name="Euro.tf" xMin="80" yMin="-20" xMax="1372" yMax="1500">
      <contour>
        <pt x="1070" y="-20" on="1"/>
        <pt x="816" y="-20" on="0"/>
        <pt x="463" y="152" on="0"/>
        <pt x="280" y="489" on="0"/>
        <pt x="280" y="736" on="1"/>
        <pt x="280" y="969" on="0"/>
        <pt x="466" y="1312" on="0"/>
        <pt x="822" y="1500" on="0"/>
        <pt x="1078" y="1500" on="1"/>
        <pt x="1156" y="1500" on="0"/>
        <pt x="1302" y="1485" on="0"/>
        <pt x="1372" y="1468" on="1"/>
        <pt x="1372" y="1112" on="1"/>
        <pt x="1320" y="1126" on="0"/>
        <pt x="1207" y="1140" on="0"/>
        <pt x="1144" y="1140" on="1"/>
        <pt x="1006" y="1140" on="0"/>
        <pt x="838" y="1060" on="0"/>
        <pt x="762" y="884" on="0"/>
        <pt x="762" y="740" on="1"/>
        <pt x="762" y="596" on="0"/>
        <pt x="837" y="420" on="0"/>
        <pt x="999" y="340" on="0"/>
        <pt x="1130" y="340" on="1"/>
        <pt x="1196" y="340" on="0"/>
        <pt x="1320" y="361" on="0"/>
        <pt x="1372" y="376" on="1"/>
        <pt x="1372" y="20" on="1"/>
        <pt x="1306" y="2" on="0"/>
        <pt x="1150" y="-20" on="0"/>
      </contour>
      <contour>
        <pt x="80" y="448" on="1"/>
        <pt x="80" y="698" on="1"/>
        <pt x="1172" y="698" on="1"/>
        <pt x="1172" y="448" on="1"/>
      </contour>
      <contour>
        <pt x="80" y="802" on="1"/>
        <pt x="80" y="1052" on="1"/>
        <pt x="1172" y="1052" on="1"/>
        <pt x="1172" y="802" on="1"/>
      </contour>
    </TTGlyph>
    <TTGlyph name="F" xMin="130" yMin="0" xMax="1402" yMax="1480">
      <contour>
        <pt x="130" y="0" on="1"/>
        <pt x="130" y="1480" on="1"/>
        <pt x="1402" y="1480" on="1"/>
        <pt x="1402" y="1120" on="1"/>
        <pt x="606" y="1120" on="1"/>
        <pt x="606" y="0" on="1"/>
      </contour>
      <contour>
        <pt x="390" y="526" on="1"/>
        <pt x="390" y="886" on="1"/>
        <pt x="1290" y="886" on="1"/>
        <pt x="1290" y="526" on="1"/>
      </contour>
    </TTGlyph>
    <TTGlyph name="G" xMin="84" yMin="-20" xMax="1540" yMax="1500">
      <contour>
        <pt x="1096" y="-20" on="1"/>
        <pt x="752" y="-20" on="0"/>
        <pt x="303" y="152" on="0"/>
        <pt x="84" y="487" on="0"/>
        <pt x="84" y="732" on="1"/>
        <pt x="84" y="967" on="0"/>
        <pt x="310" y="1312" on="0"/>
        <pt x="769" y="1500" on="0"/>
        <pt x="1120" y="1500" on="1"/>
        <pt x="1203" y="1500" on="0"/>
        <pt x="1395" y="1485" on="0"/>
        <pt x="1482" y="1468" on="1"/>
        <pt x="1482" y="1092" on="1"/>
        <pt x="1409" y="1106" on="0"/>
        <pt x="1242" y="1120" on="0"/>
        <pt x="1156" y="1120" on="1"/>
        <pt x="943" y="1119" on="0"/>
        <pt x="690" y="1029" on="0"/>
        <pt x="578" y="853" on="0"/>
        <pt x="578" y="724" on="1"/>
        <pt x="578" y="610" on="0"/>
        <pt x="680" y="445" on="0"/>
        <pt x="896" y="356" on="0"/>
        <pt x="1068" y="356" on="1"/>
        <pt x="1137" y="356" on="0"/>
        <pt x="1292" y="367" on="0"/>
        <pt x="1356" y="376" on="1"/>
        <pt x="1098" y="154" on="1"/>
        <pt x="1098" y="720" on="1"/>
        <pt x="1540" y="720" on="1"/>
        <pt x="1540" y="20" on="1"/>
        <pt x="1431" y="2" on="0"/>
        <pt x="1210" y="-20" on="0"/>
      </contour>
    </TTGlyph>
    <TTGlyph name="Gbreve" xMin="84" yMin="-20" xMax="1540" yMax="1902">
      <component glyphName="G" x="0" y="0" flags="0x204"/>
      <component glyphName="uni0306.case" x="340" y="0" flags="0x4"/>
    </TTGlyph>
    <TTGlyph name="Gcaron" xMin="84" yMin="-20" xMax="1540" yMax="1902">
      <component glyphName="G" x="0" y="0" flags="0x204"/>
      <component glyphName="uni030C.case" x="340" y="0" flags="0x4"/>
    </TTGlyph>
    <TTGlyph name="Gcircumflex" xMin="84" yMin="-20" xMax="1540" yMax="1902">
      <component glyphName="G" x="0" y="0" flags="0x204"/>
      <component glyphName="uni0302.case" x="340" y="0" flags="0x4"/>
    </TTGlyph>
    <TTGlyph name="Gdotaccent" xMin="84" yMin="-20" xMax="1540" yMax="1930">
      <component glyphName="G" x="0" y="0" flags="0x204"/>
      <component glyphName="uni0307.case" x="340" y="0" flags="0x4"/>
    </TTGlyph>
    <TTGlyph name="H" xMin="130" yMin="0" xMax="1664" yMax="1480">
      <contour>
        <pt x="130" y="0" on="1"/>
        <pt x="130" y="1480" on="1"/>
        <pt x="606" y="1480" on="1"/>
        <pt x="606" y="956" on="1"/>
        <pt x="1188" y="956" on="1"/>
        <pt x="1188" y="1480" on="1"/>
        <pt x="1664" y="1480" on="1"/>
        <pt x="1664" y="0" on="1"/>
        <pt x="1188" y="0" on="1"/>
        <pt x="1188" y="554" on="1"/>
        <pt x="606" y="554" on="1"/>
        <pt x="606" y="0" on="1"/>
      </contour>
    </TTGlyph>
    <TTGlyph name="Hbar" xMin="8" yMin="0" xMax="1786" yMax="1480">
      <component glyphName="H" x="0" y="0" flags="0x204"/>
      <component glyphName="uni0336.case" x="0" y="50" flags="0x4"/>
    </TTGlyph>
    <TTGlyph name="Hcircumflex" xMin="130" yMin="0" xMax="1664" yMax="1902">
      <component glyphName="H" x="0" y="0" flags="0x204"/>
      <component glyphName="uni0302.case" x="298" y="0" flags="0x4"/>
    </TTGlyph>
    <TTGlyph name="I" xMin="130" yMin="0" xMax="606" yMax="1480">
      <contour>
        <pt x="130" y="0" on="1"/>
        <pt x="130" y="1480" on="1"/>
        <pt x="606" y="1480" on="1"/>
        <pt x="606" y="0" on="1"/>
      </contour>
    </TTGlyph>
    <TTGlyph name="I_J.loclNLD" xMin="130" yMin="-358" xMax="1342" yMax="1480">
      <component glyphName="I" x="0" y="0" flags="0x4"/>
      <component glyphName="J" x="736" y="0" flags="0x4"/>
    </TTGlyph>
    <TTGlyph name="Iacute" xMin="130" yMin="0" xMax="846" yMax="1902">
      <component glyphName="I" x="0" y="0" flags="0x204"/>
      <component glyphName="acutecomb.case" x="-232" y="0" flags="0x4"/>
    </TTGlyph>
    <TTGlyph name="Iacute_J.loclNLD" xMin="130" yMin="-358" xMax="1584" yMax="1902">
      <component glyphName="I" x="0" y="0" flags="0x4"/>
      <component glyphName="acutecomb.case" x="-232" y="0" flags="0x4"/>
      <component glyphName="J" x="736" y="0" flags="0x4"/>
      <component glyphName="acutecomb.case" x="506" y="0" flags="0x4"/>
    </TTGlyph>
    <TTGlyph name="Ibreve" xMin="-116" yMin="0" xMax="852" yMax="1902">
      <component glyphName="I" x="0" y="0" flags="0x204"/>
      <component glyphName="uni0306.case" x="-232" y="0" flags="0x4"/>
    </TTGlyph>
    <TTGlyph name="Icircumflex" xMin="-156" yMin="0" xMax="892" yMax="1902">
      <component glyphName="I" x="0" y="0" flags="0x204"/>
      <component glyphName="uni0302.case" x="-232" y="0" flags="0x4"/>
    </TTGlyph>
    <TTGlyph name="Idieresis" xMin="-156" yMin="0" xMax="892" yMax="1930">
      <component glyphName="I" x="0" y="0" flags="0x204"/>
      <component glyphName="uni0308.case" x="-232" y="0" flags="0x4"/>
    </TTGlyph>
    <TTGlyph name="Idotaccent" xMin="100" yMin="0" xMax="636" yMax="1930">
      <component glyphName="I" x="0" y="0" flags="0x204"/>
      <component glyphName="uni0307.case" x="-232" y="0" flags="0x4"/>
    </TTGlyph>
    <TTGlyph name="Igrave" xMin="-114" yMin="0" xMax="606" yMax="1902">
      <component glyphName="I" x="0" y="0" flags="0x204"/>
      <component glyphName="gravecomb.case" x="-232" y="0" flags="0x4"/>
    </TTGlyph>
    <TTGlyph name="Imacron" xMin="-76" yMin="0" xMax="812" yMax="1870">
      <component glyphName="I" x="0" y="0" flags="0x204"/>
      <component glyphName="uni0304.case" x="-232" y="0" flags="0x4"/>
    </TTGlyph>
    <TTGlyph name="Iogonek" xMin="104" yMin="-460" xMax="640" yMax="1480">
      <component glyphName="I" x="0" y="0" flags="0x204"/>
      <component glyphName="uni0328.case" x="90" y="0" flags="0x4"/>
    </TTGlyph>
    <TTGlyph name="Itilde" xMin="-76" yMin="0" xMax="812" yMax="1902">
      <component glyphName="I" x="0" y="0" flags="0x204"/>
      <component glyphName="tildecomb.case" x="-232" y="0" flags="0x4"/>
    </TTGlyph>
    <TTGlyph name="J" xMin="-12" yMin="-358" xMax="606" yMax="1480">
      <contour>
        <pt x="280" y="-358" on="1"/>
        <pt x="-12" y="-162" on="1"/>
        <pt x="43" y="-96" on="0"/>
        <pt x="107" y="39" on="0"/>
        <pt x="134" y="199" on="0"/>
        <pt x="134" y="302" on="1"/>
        <pt x="134" y="1480" on="1"/>
        <pt x="606" y="1480" on="1"/>
        <pt x="606" y="318" on="1"/>
        <pt x="606" y="193" on="0"/>
        <pt x="545" y="-33" on="0"/>
        <pt x="402" y="-249" on="0"/>
      </contour>
    </TTGlyph>
    <TTGlyph name="Jcircumflex" xMin="-154" yMin="-358" xMax="894" yMax="1902">
      <component glyphName="J" x="0" y="0" flags="0x204"/>
      <component glyphName="uni0302.case" x="-230" y="0" flags="0x4"/>
    </TTGlyph>
    <TTGlyph name="K" xMin="130" yMin="0" xMax="1598" yMax="1480">
      <contour>
        <pt x="1082" y="0" on="1"/>
        <pt x="562" y="754" on="1"/>
        <pt x="1050" y="1480" on="1"/>
        <pt x="1548" y="1480" on="1"/>
        <pt x="1026" y="702" on="1"/>
        <pt x="1038" y="812" on="1"/>
        <pt x="1598" y="0" on="1"/>
      </contour>
      <contour>
        <pt x="130" y="0" on="1"/>
        <pt x="130" y="1480" on="1"/>
        <pt x="606" y="1480" on="1"/>
        <pt x="606" y="0" on="1"/>
      </contour>
      <contour>
        <pt x="542" y="554" on="1"/>
        <pt x="542" y="956" on="1"/>
        <pt x="752" y="956" on="1"/>
        <pt x="752" y="554" on="1"/>
      </contour>
    </TTGlyph>
    <TTGlyph name="L" xMin="130" yMin="0" xMax="1350" yMax="1480">
      <contour>
        <pt x="130" y="0" on="1"/>
        <pt x="130" y="1480" on="1"/>
        <pt x="606" y="1480" on="1"/>
        <pt x="606" y="368" on="1"/>
        <pt x="1350" y="368" on="1"/>
        <pt x="1350" y="0" on="1"/>
      </contour>
    </TTGlyph>
    <TTGlyph name="Lacute" xMin="130" yMin="0" xMax="1350" yMax="1902">
      <component glyphName="L" x="0" y="0" flags="0x204"/>
      <component glyphName="acutecomb.case" x="-232" y="0" flags="0x4"/>
    </TTGlyph>
    <TTGlyph name="Lcaron" xMin="130" yMin="0" xMax="1350" yMax="1616">
      <component glyphName="L" x="0" y="0" flags="0x204"/>
      <component glyphName="uni030C.alt.case" x="316" y="0" flags="0x4"/>
    </TTGlyph>
    <TTGlyph name="Ldot" xMin="130" yMin="0" xMax="1350" yMax="1480">
      <component glyphName="L" x="0" y="0" flags="0x204"/>
      <component glyphName="periodcentered.CAT" x="718" y="190" flags="0x4"/>
    </TTGlyph>
    <TTGlyph name="Lslash" xMin="-64" yMin="0" xMax="1350" yMax="1480">
      <component glyphName="L" x="0" y="0" flags="0x204"/>
      <component glyphName="uni0337.case" x="-32" y="80" flags="0x4"/>
    </TTGlyph>
    <TTGlyph name="M" xMin="134" yMin="0" xMax="2042" yMax="1480">
      <contour>
        <pt x="134" y="0" on="1"/>
        <pt x="134" y="1480" on="1"/>
        <pt x="712" y="1480" on="1"/>
        <pt x="1122" y="614" on="1"/>
        <pt x="1068" y="614" on="1"/>
        <pt x="1464" y="1480" on="1"/>
        <pt x="2042" y="1480" on="1"/>
        <pt x="2042" y="0" on="1"/>
        <pt x="1598" y="0" on="1"/>
        <pt x="1598" y="1098" on="1"/>
        <pt x="1688" y="1098" on="1"/>
        <pt x="1284" y="220" on="1"/>
        <pt x="892" y="220" on="1"/>
        <pt x="464" y="1098" on="1"/>
        <pt x="578" y="1098" on="1"/>
        <pt x="578" y="0" on="1"/>
      </contour>
    </TTGlyph>
    <TTGlyph name="N" xMin="130" yMin="0" xMax="1674" yMax="1480">
      <contour>
        <pt x="130" y="0" on="1"/>
        <pt x="130" y="1480" on="1"/>
        <pt x="606" y="1480" on="1"/>
        <pt x="1300" y="546" on="1"/>
        <pt x="1226" y="546" on="1"/>
        <pt x="1226" y="1480" on="1"/>
        <pt x="1674" y="1480" on="1"/>
        <pt x="1674" y="0" on="1"/>
        <pt x="1198" y="0" on="1"/>
        <pt x="504" y="934" on="1"/>
        <pt x="578" y="934" on="1"/>
        <pt x="578" y="0" on="1"/>
      </contour>
    </TTGlyph>
    <TTGlyph name="Nacute" xMin="130" yMin="0" xMax="1674" yMax="1902">
      <component glyphName="N" x="0" y="0" flags="0x204"/>
      <component glyphName="acutecomb.case" x="302" y="0" flags="0x4"/>
    </TTGlyph>
    <TTGlyph name="Ncaron" xMin="130" yMin="0" xMax="1674" yMax="1902">
      <component glyphName="N" x="0" y="0" flags="0x204"/>
      <component glyphName="uni030C.case" x="302" y="0" flags="0x4"/>
    </TTGlyph>
    <TTGlyph name="Ntilde" xMin="130" yMin="0" xMax="1674" yMax="1902">
      <component glyphName="N" x="0" y="0" flags="0x204"/>
      <component glyphName="tildecomb.case" x="302" y="0" flags="0x4"/>
    </TTGlyph>
    <TTGlyph name="O" xMin="84" yMin="-20" xMax="1808" yMax="1500">
      <contour>
        <pt x="946" y="-20" on="1"/>
        <pt x="679" y="-20" on="0"/>
        <pt x="293" y="164" on="0"/>
        <pt x="84" y="505" on="0"/>
        <pt x="84" y="740" on="1"/>
        <pt x="84" y="975" on="0"/>
        <pt x="292" y="1316" on="0"/>
        <pt x="678" y="1500" on="0"/>
        <pt x="946" y="1500" on="1"/>
        <pt x="1214" y="1500" on="0"/>
        <pt x="1600" y="1314" on="0"/>
        <pt x="1808" y="973" on="0"/>
        <pt x="1808" y="740" on="1"/>
        <pt x="1808" y="507" on="0"/>
        <pt x="1600" y="166" on="0"/>
        <pt x="1213" y="-20" on="0"/>
      </contour>
      <contour>
        <pt x="946" y="348" on="1"/>
        <pt x="1069" y="348" on="0"/>
        <pt x="1238" y="437" on="0"/>
        <pt x="1324" y="609" on="0"/>
        <pt x="1324" y="732" on="1"/>
        <pt x="1324" y="863" on="0"/>
        <pt x="1235" y="1041" on="0"/>
        <pt x="1066" y="1132" on="0"/>
        <pt x="946" y="1132" on="1"/>
        <pt x="826" y="1132" on="0"/>
        <pt x="657" y="1045" on="0"/>
        <pt x="568" y="874" on="0"/>
        <pt x="568" y="748" on="1"/>
        <pt x="568" y="614" on="0"/>
        <pt x="655" y="436" on="0"/>
        <pt x="823" y="348" on="0"/>
      </contour>
    </TTGlyph>
    <TTGlyph name="OE" xMin="84" yMin="-14" xMax="2420" yMax="1494">
      <contour>
        <pt x="1152" y="-14" on="1"/>
        <pt x="784" y="-14" on="0"/>
        <pt x="311" y="137" on="0"/>
        <pt x="84" y="469" on="0"/>
        <pt x="84" y="740" on="1"/>
        <pt x="84" y="1001" on="0"/>
        <pt x="318" y="1335" on="0"/>
        <pt x="784" y="1494" on="0"/>
        <pt x="1132" y="1494" on="1"/>
        <pt x="1218" y="1494" on="0"/>
        <pt x="1412" y="1480" on="0"/>
        <pt x="1508" y="1480" on="1"/>
        <pt x="2410" y="1480" on="1"/>
        <pt x="2410" y="1130" on="1"/>
        <pt x="1648" y="1130" on="1"/>
        <pt x="1648" y="350" on="1"/>
        <pt x="2420" y="350" on="1"/>
        <pt x="2420" y="0" on="1"/>
        <pt x="1508" y="0" on="1"/>
        <pt x="1445" y="0" on="0"/>
        <pt x="1319" y="-7" on="0"/>
        <pt x="1202" y="-14" on="0"/>
      </contour>
      <contour>
        <pt x="1022" y="358" on="1"/>
        <pt x="1057" y="358" on="0"/>
        <pt x="1142" y="359" on="0"/>
        <pt x="1178" y="362" on="1"/>
        <pt x="1178" y="1118" on="1"/>
        <pt x="1142" y="1121" on="0"/>
        <pt x="1066" y="1122" on="0"/>
        <pt x="1022" y="1122" on="1"/>
        <pt x="866" y="1122" on="0"/>
        <pt x="664" y="1042" on="0"/>
        <pt x="566" y="872" on="0"/>
        <pt x="566" y="736" on="1"/>
        <pt x="566" y="604" on="0"/>
        <pt x="664" y="437" on="0"/>
        <pt x="866" y="358" on="0"/>
      </contour>
      <contour>
        <pt x="1406" y="580" on="1"/>
        <pt x="1406" y="930" on="1"/>
        <pt x="2304" y="930" on="1"/>
        <pt x="2304" y="580" on="1"/>
      </contour>
    </TTGlyph>
    <TTGlyph name="Oacute" xMin="84" yMin="-20" xMax="1808" yMax="1902">
      <component glyphName="O" x="0" y="0" flags="0x204"/>
      <component glyphName="acutecomb.case" x="346" y="0" flags="0x4"/>
    </TTGlyph>
    <TTGlyph name="Obreve" xMin="84" yMin="-20" xMax="1808" yMax="1902">
      <component glyphName="O" x="0" y="0" flags="0x204"/>
      <component glyphName="uni0306.case" x="346" y="0" flags="0x4"/>
    </TTGlyph>
    <TTGlyph name="Ocircumflex" xMin="84" yMin="-20" xMax="1808" yMax="1902">
      <component glyphName="O" x="0" y="0" flags="0x204"/>
      <component glyphName="uni0302.case" x="346" y="0" flags="0x4"/>
    </TTGlyph>
    <TTGlyph name="Odieresis" xMin="84" yMin="-20" xMax="1808" yMax="1930">
      <component glyphName="O" x="0" y="0" flags="0x204"/>
      <component glyphName="uni0308.case" x="346" y="0" flags="0x4"/>
    </TTGlyph>
    <TTGlyph name="Ograve" xMin="84" yMin="-20" xMax="1808" yMax="1902">
      <component glyphName="O" x="0" y="0" flags="0x204"/>
      <component glyphName="gravecomb.case" x="346" y="0" flags="0x4"/>
    </TTGlyph>
    <TTGlyph name="Ohorn" xMin="84" yMin="-20" xMax="1824" yMax="1776">
      <contour>
        <pt x="946" y="-20" on="1"/>
        <pt x="679" y="-20" on="0"/>
        <pt x="293" y="164" on="0"/>
        <pt x="84" y="505" on="0"/>
        <pt x="84" y="740" on="1"/>
        <pt x="84" y="975" on="0"/>
        <pt x="292" y="1316" on="0"/>
        <pt x="678" y="1500" on="0"/>
        <pt x="946" y="1500" on="1"/>
        <pt x="1004" y="1500" on="0"/>
        <pt x="1136" y="1490" on="0"/>
        <pt x="1262" y="1480" on="0"/>
        <pt x="1310" y="1480" on="1"/>
        <pt x="1421" y="1480" on="0"/>
        <pt x="1528" y="1548" on="0"/>
        <pt x="1528" y="1636" on="1"/>
        <pt x="1528" y="1663" on="0"/>
        <pt x="1524" y="1727" on="0"/>
        <pt x="1516" y="1776" on="1"/>
        <pt x="1806" y="1776" on="1"/>
        <pt x="1818" y="1728" on="0"/>
        <pt x="1824" y="1656" on="0"/>
        <pt x="1824" y="1624" on="1"/>
        <pt x="1824" y="1509" on="0"/>
        <pt x="1737" y="1357" on="0"/>
        <pt x="1578" y="1282" on="0"/>
        <pt x="1470" y="1282" on="1"/>
        <pt x="1470" y="1370" on="1"/>
        <pt x="1634" y="1277" on="0"/>
        <pt x="1808" y="953" on="0"/>
        <pt x="1808" y="740" on="1"/>
        <pt x="1808" y="507" on="0"/>
        <pt x="1600" y="166" on="0"/>
        <pt x="1213" y="-20" on="0"/>
      </contour>
      <contour>
        <pt x="946" y="348" on="1"/>
        <pt x="1069" y="348" on="0"/>
        <pt x="1238" y="437" on="0"/>
        <pt x="1324" y="609" on="0"/>
        <pt x="1324" y="732" on="1"/>
        <pt x="1324" y="863" on="0"/>
        <pt x="1235" y="1041" on="0"/>
        <pt x="1066" y="1132" on="0"/>
        <pt x="946" y="1132" on="1"/>
        <pt x="826" y="1132" on="0"/>
        <pt x="657" y="1045" on="0"/>
        <pt x="568" y="874" on="0"/>
        <pt x="568" y="748" on="1"/>
        <pt x="568" y="614" on="0"/>
        <pt x="655" y="436" on="0"/>
        <pt x="823" y="348" on="0"/>
      </contour>
    </TTGlyph>
    <TTGlyph name="Ohungarumlaut" xMin="84" yMin="-20" xMax="1808" yMax="1902">
      <component glyphName="O" x="0" y="0" flags="0x204"/>
      <component glyphName="uni030B.case" x="346" y="0" flags="0x4"/>
    </TTGlyph>
    <TTGlyph name="Omacron" xMin="84" yMin="-20" xMax="1808" yMax="1870">
      <component glyphName="O" x="0" y="0" flags="0x204"/>
      <component glyphName="uni0304.case" x="346" y="0" flags="0x4"/>
    </TTGlyph>
    <TTGlyph name="Oslash" xMin="84" yMin="-62" xMax="1808" yMax="1542">
      <component glyphName="O" x="0" y="0" flags="0x204"/>
      <component glyphName="slashcomb.case" x="46" y="0" flags="0x4"/>
    </TTGlyph>
    <TTGlyph name="Oslashacute" xMin="84" yMin="-62" xMax="1808" yMax="1902">
      <component glyphName="Oslash" x="0" y="0" flags="0x204"/>
      <component glyphName="acutecomb.case" x="342" y="0" flags="0x4"/>
    </TTGlyph>
    <TTGlyph name="Otilde" xMin="84" yMin="-20" xMax="1808" yMax="1902">
      <component glyphName="O" x="0" y="0" flags="0x204"/>
      <component glyphName="tildecomb.case" x="346" y="0" flags="0x4"/>
    </TTGlyph>
    <TTGlyph name="P" xMin="130" yMin="0" xMax="1450" yMax="1500">
      <contour>
        <pt x="130" y="0" on="1"/>
        <pt x="130" y="1450" on="1"/>
        <pt x="253" y="1473" on="0"/>
        <pt x="523" y="1500" on="0"/>
        <pt x="676" y="1500" on="1"/>
        <pt x="1066" y="1500" on="0"/>
        <pt x="1450" y="1234" on="0"/>
        <pt x="1450" y="944" on="1"/>
        <pt x="1450" y="667" on="0"/>
        <pt x="1084" y="388" on="0"/>
        <pt x="730" y="388" on="1"/>
        <pt x="699" y="388" on="0"/>
        <pt x="635" y="390" on="0"/>
        <pt x="606" y="390" on="1"/>
        <pt x="606" y="0" on="1"/>
      </contour>
      <contour>
        <pt x="734" y="714" on="1"/>
        <pt x="866" y="714" on="0"/>
        <pt x="992" y="815" on="0"/>
        <pt x="992" y="944" on="1"/>
        <pt x="992" y="1066" on="0"/>
        <pt x="863" y="1174" on="0"/>
        <pt x="722" y="1174" on="1"/>
        <pt x="689" y="1174" on="0"/>
        <pt x="635" y="1171" on="0"/>
        <pt x="606" y="1166" on="1"/>
        <pt x="606" y="722" on="1"/>
        <pt x="641" y="718" on="0"/>
        <pt x="698" y="714" on="0"/>
      </contour>
    </TTGlyph>
    <TTGlyph name="Q" xMin="84" yMin="-394" xMax="1808" yMax="1500">
      <contour>
        <pt x="1730" y="-394" on="1"/>
        <pt x="1337" y="-337" on="0"/>
        <pt x="773" y="-169" on="0"/>
        <pt x="396" y="44" on="0"/>
        <pt x="177" y="293" on="0"/>
        <pt x="84" y="571" on="0"/>
        <pt x="84" y="720" on="1"/>
        <pt x="84" y="965" on="0"/>
        <pt x="292" y="1314" on="0"/>
        <pt x="678" y="1500" on="0"/>
        <pt x="946" y="1500" on="1"/>
        <pt x="1214" y="1500" on="0"/>
        <pt x="1600" y="1314" on="0"/>
        <pt x="1808" y="973" on="0"/>
        <pt x="1808" y="740" on="1"/>
        <pt x="1808" y="565" on="0"/>
        <pt x="1687" y="276" on="0"/>
        <pt x="1437" y="77" on="0"/>
        <pt x="1051" y="-5" on="0"/>
        <pt x="786" y="28" on="1"/>
        <pt x="948" y="140" on="1"/>
        <pt x="1079" y="95" on="0"/>
        <pt x="1354" y="26" on="0"/>
        <pt x="1645" y="-25" on="0"/>
        <pt x="1800" y="-44" on="1"/>
      </contour>
      <contour>
        <pt x="946" y="348" on="1"/>
        <pt x="1069" y="348" on="0"/>
        <pt x="1238" y="437" on="0"/>
        <pt x="1324" y="609" on="0"/>
        <pt x="1324" y="732" on="1"/>
        <pt x="1324" y="863" on="0"/>
        <pt x="1235" y="1041" on="0"/>
        <pt x="1066" y="1132" on="0"/>
        <pt x="946" y="1132" on="1"/>
        <pt x="826" y="1132" on="0"/>
        <pt x="657" y="1045" on="0"/>
        <pt x="568" y="874" on="0"/>
        <pt x="568" y="748" on="1"/>
        <pt x="568" y="612" on="0"/>
        <pt x="653" y="435" on="0"/>
        <pt x="821" y="348" on="0"/>
      </contour>
    </TTGlyph>
    <TTGlyph name="R" xMin="130" yMin="0" xMax="1582" yMax="1500">
      <contour>
        <pt x="130" y="0" on="1"/>
        <pt x="130" y="1432" on="1"/>
        <pt x="209" y="1451" on="0"/>
        <pt x="407" y="1482" on="0"/>
        <pt x="611" y="1500" on="0"/>
        <pt x="698" y="1500" on="1"/>
        <pt x="1055" y="1500" on="0"/>
        <pt x="1432" y="1259" on="0"/>
        <pt x="1432" y="998" on="1"/>
        <pt x="1432" y="831" on="0"/>
        <pt x="1260" y="606" on="0"/>
        <pt x="946" y="492" on="0"/>
        <pt x="734" y="492" on="1"/>
        <pt x="703" y="492" on="0"/>
        <pt x="632" y="495" on="0"/>
        <pt x="596" y="496" on="1"/>
        <pt x="596" y="0" on="1"/>
      </contour>
      <contour>
        <pt x="1060" y="0" on="1"/>
        <pt x="568" y="680" on="1"/>
        <pt x="1082" y="680" on="1"/>
        <pt x="1582" y="0" on="1"/>
      </contour>
      <contour>
        <pt x="754" y="820" on="1"/>
        <pt x="871" y="820" on="0"/>
        <pt x="992" y="901" on="0"/>
        <pt x="992" y="998" on="1"/>
        <pt x="992" y="1059" on="0"/>
        <pt x="937" y="1138" on="0"/>
        <pt x="826" y="1176" on="0"/>
        <pt x="742" y="1176" on="1"/>
        <pt x="709" y="1176" on="0"/>
        <pt x="629" y="1168" on="0"/>
        <pt x="596" y="1162" on="1"/>
        <pt x="596" y="830" on="1"/>
        <pt x="621" y="827" on="0"/>
        <pt x="676" y="822" on="0"/>
        <pt x="730" y="820" on="0"/>
      </contour>
    </TTGlyph>
    <TTGlyph name="Racute" xMin="130" yMin="0" xMax="1582" yMax="1902">
      <component glyphName="R" x="0" y="0" flags="0x204"/>
      <component glyphName="acutecomb.case" x="196" y="0" flags="0x4"/>
    </TTGlyph>
    <TTGlyph name="Rcaron" xMin="130" yMin="0" xMax="1582" yMax="1902">
      <component glyphName="R" x="0" y="0" flags="0x204"/>
      <component glyphName="uni030C.case" x="196" y="0" flags="0x4"/>
    </TTGlyph>
    <TTGlyph name="S" xMin="64" yMin="-20" xMax="1314" yMax="1500">
      <contour>
        <pt x="616" y="-20" on="1"/>
        <pt x="465" y="-20" on="0"/>
        <pt x="213" y="19" on="0"/>
        <pt x="106" y="50" on="1"/>
        <pt x="106" y="418" on="1"/>
        <pt x="176" y="394" on="0"/>
        <pt x="359" y="360" on="0"/>
        <pt x="545" y="342" on="0"/>
        <pt x="620" y="342" on="1"/>
        <pt x="760" y="342" on="0"/>
        <pt x="848" y="397" on="0"/>
        <pt x="848" y="442" on="1"/>
        <pt x="848" y="481" on="0"/>
        <pt x="786" y="525" on="0"/>
        <pt x="682" y="544" on="1"/>
        <pt x="538" y="572" on="1"/>
        <pt x="282" y="622" on="0"/>
        <pt x="64" y="842" on="0"/>
        <pt x="64" y="1020" on="1"/>
        <pt x="64" y="1251" on="0"/>
        <pt x="435" y="1500" on="0"/>
        <pt x="810" y="1500" on="1"/>
        <pt x="936" y="1500" on="0"/>
        <pt x="1149" y="1474" on="0"/>
        <pt x="1228" y="1454" on="1"/>
        <pt x="1228" y="1086" on="1"/>
        <pt x="1153" y="1109" on="0"/>
        <pt x="934" y="1138" on="0"/>
        <pt x="824" y="1138" on="1"/>
        <pt x="706" y="1138" on="0"/>
        <pt x="579" y="1111" on="0"/>
        <pt x="530" y="1065" on="0"/>
        <pt x="530" y="1036" on="1"/>
        <pt x="530" y="1002" on="0"/>
        <pt x="582" y="963" on="0"/>
        <pt x="664" y="946" on="1"/>
        <pt x="808" y="918" on="1"/>
        <pt x="995" y="882" on="0"/>
        <pt x="1217" y="758" on="0"/>
        <pt x="1314" y="581" on="0"/>
        <pt x="1314" y="466" on="1"/>
        <pt x="1314" y="316" on="0"/>
        <pt x="1145" y="98" on="0"/>
        <pt x="832" y="-20" on="0"/>
      </contour>
    </TTGlyph>
    <TTGlyph name="Sacute" xMin="64" yMin="-20" xMax="1314" yMax="1902">
      <component glyphName="S" x="0" y="0" flags="0x204"/>
      <component glyphName="acutecomb.case" x="104" y="0" flags="0x4"/>
    </TTGlyph>
    <TTGlyph name="Scaron" xMin="64" yMin="-20" xMax="1314" yMax="1902">
      <component glyphName="S" x="0" y="0" flags="0x204"/>
      <component glyphName="uni030C.case" x="104" y="0" flags="0x4"/>
    </TTGlyph>
    <TTGlyph name="Scedilla" xMin="64" yMin="-460" xMax="1314" yMax="1500">
      <component glyphName="S" x="0" y="0" flags="0x204"/>
      <component glyphName="uni0327.case" x="104" y="0" flags="0x4"/>
    </TTGlyph>
    <TTGlyph name="Scircumflex" xMin="64" yMin="-20" xMax="1314" yMax="1902">
      <component glyphName="S" x="0" y="0" flags="0x204"/>
      <component glyphName="uni0302.case" x="104" y="0" flags="0x4"/>
    </TTGlyph>
    <TTGlyph name="T" xMin="22" yMin="0" xMax="1510" yMax="1480">
      <contour>
        <pt x="528" y="0" on="1"/>
        <pt x="528" y="1112" on="1"/>
        <pt x="22" y="1112" on="1"/>
        <pt x="22" y="1480" on="1"/>
        <pt x="1510" y="1480" on="1"/>
        <pt x="1510" y="1112" on="1"/>
        <pt x="1004" y="1112" on="1"/>
        <pt x="1004" y="0" on="1"/>
      </contour>
    </TTGlyph>
    <TTGlyph name="Tbar" xMin="22" yMin="0" xMax="1510" yMax="1480">
      <component glyphName="T" x="0" y="0" flags="0x204"/>
      <component glyphName="uni0335.case" x="26" y="-380" flags="0x4"/>
    </TTGlyph>
    <TTGlyph name="Tcaron" xMin="22" yMin="0" xMax="1510" yMax="1902">
      <component glyphName="T" x="0" y="0" flags="0x204"/>
      <component glyphName="uni030C.case" x="166" y="0" flags="0x4"/>
    </TTGlyph>
    <TTGlyph name="Thorn" xMin="130" yMin="0" xMax="1450" yMax="1480">
      <contour>
        <pt x="130" y="0" on="1"/>
        <pt x="130" y="1480" on="1"/>
        <pt x="606" y="1480" on="1"/>
        <pt x="606" y="1314" on="1"/>
        <pt x="624" y="1314" on="0"/>
        <pt x="668" y="1316" on="0"/>
        <pt x="686" y="1316" on="1"/>
        <pt x="1072" y="1316" on="0"/>
        <pt x="1450" y="1050" on="0"/>
        <pt x="1450" y="760" on="1"/>
        <pt x="1450" y="483" on="0"/>
        <pt x="1085" y="204" on="0"/>
        <pt x="734" y="204" on="1"/>
        <pt x="703" y="204" on="0"/>
        <pt x="635" y="206" on="0"/>
        <pt x="606" y="206" on="1"/>
        <pt x="606" y="0" on="1"/>
      </contour>
      <contour>
        <pt x="734" y="530" on="1"/>
        <pt x="866" y="530" on="0"/>
        <pt x="992" y="631" on="0"/>
        <pt x="992" y="760" on="1"/>
        <pt x="992" y="882" on="0"/>
        <pt x="863" y="990" on="0"/>
        <pt x="722" y="990" on="1"/>
        <pt x="689" y="990" on="0"/>
        <pt x="635" y="987" on="0"/>
        <pt x="606" y="982" on="1"/>
        <pt x="606" y="536" on="1"/>
        <pt x="641" y="533" on="0"/>
        <pt x="698" y="530" on="0"/>
      </contour>
    </TTGlyph>
    <TTGlyph name="U" xMin="124" yMin="-20" xMax="1632" yMax="1480">
      <contour>
        <pt x="882" y="-20" on="1"/>
        <pt x="611" y="-20" on="0"/>
        <pt x="277" y="150" on="0"/>
        <pt x="124" y="470" on="0"/>
        <pt x="124" y="694" on="1"/>
        <pt x="124" y="1480" on="1"/>
        <pt x="600" y="1480" on="1"/>
        <pt x="600" y="656" on="1"/>
        <pt x="600" y="502" on="0"/>
        <pt x="741" y="356" on="0"/>
        <pt x="882" y="356" on="1"/>
        <pt x="1023" y="356" on="0"/>
        <pt x="1164" y="502" on="0"/>
        <pt x="1164" y="656" on="1"/>
        <pt x="1164" y="1480" on="1"/>
        <pt x="1632" y="1480" on="1"/>
        <pt x="1632" y="694" on="1"/>
        <pt x="1632" y="470" on="0"/>
        <pt x="1479" y="150" on="0"/>
        <pt x="1148" y="-20" on="0"/>
      </contour>
    </TTGlyph>
    <TTGlyph name="Uacute" xMin="124" yMin="-20" xMax="1632" yMax="1902">
      <component glyphName="U" x="0" y="0" flags="0x204"/>
      <component glyphName="acutecomb.case" x="282" y="0" flags="0x4"/>
    </TTGlyph>
    <TTGlyph name="Ubreve" xMin="124" yMin="-20" xMax="1632" yMax="1902">
      <component glyphName="U" x="0" y="0" flags="0x204"/>
      <component glyphName="uni0306.case" x="282" y="0" flags="0x4"/>
    </TTGlyph>
    <TTGlyph name="Ucircumflex" xMin="124" yMin="-20" xMax="1632" yMax="1902">
      <component glyphName="U" x="0" y="0" flags="0x204"/>
      <component glyphName="uni0302.case" x="282" y="0" flags="0x4"/>
    </TTGlyph>
    <TTGlyph name="Udieresis" xMin="124" yMin="-20" xMax="1632" yMax="1930">
      <component glyphName="U" x="0" y="0" flags="0x204"/>
      <component glyphName="uni0308.case" x="282" y="0" flags="0x4"/>
    </TTGlyph>
    <TTGlyph name="Ugrave" xMin="124" yMin="-20" xMax="1632" yMax="1902">
      <component glyphName="U" x="0" y="0" flags="0x204"/>
      <component glyphName="gravecomb.case" x="282" y="0" flags="0x4"/>
    </TTGlyph>
    <TTGlyph name="Uhorn" xMin="124" yMin="-20" xMax="1814" yMax="1776">
      <contour>
        <pt x="882" y="-20" on="1"/>
        <pt x="611" y="-20" on="0"/>
        <pt x="277" y="150" on="0"/>
        <pt x="124" y="470" on="0"/>
        <pt x="124" y="694" on="1"/>
        <pt x="124" y="1480" on="1"/>
        <pt x="600" y="1480" on="1"/>
        <pt x="600" y="656" on="1"/>
        <pt x="600" y="502" on="0"/>
        <pt x="741" y="356" on="0"/>
        <pt x="882" y="356" on="1"/>
        <pt x="1023" y="356" on="0"/>
        <pt x="1164" y="502" on="0"/>
        <pt x="1164" y="656" on="1"/>
        <pt x="1164" y="1480" on="1"/>
        <pt x="1300" y="1480" on="1"/>
        <pt x="1411" y="1480" on="0"/>
        <pt x="1518" y="1548" on="0"/>
        <pt x="1518" y="1636" on="1"/>
        <pt x="1518" y="1663" on="0"/>
        <pt x="1514" y="1727" on="0"/>
        <pt x="1506" y="1776" on="1"/>
        <pt x="1796" y="1776" on="1"/>
        <pt x="1808" y="1728" on="0"/>
        <pt x="1814" y="1656" on="0"/>
        <pt x="1814" y="1624" on="1"/>
        <pt x="1814" y="1504" on="0"/>
        <pt x="1718" y="1348" on="0"/>
        <pt x="1632" y="1312" on="1"/>
        <pt x="1632" y="694" on="1"/>
        <pt x="1632" y="470" on="0"/>
        <pt x="1479" y="150" on="0"/>
        <pt x="1148" y="-20" on="0"/>
      </contour>
    </TTGlyph>
    <TTGlyph name="Uhungarumlaut" xMin="124" yMin="-20" xMax="1632" yMax="1902">
      <component glyphName="U" x="0" y="0" flags="0x204"/>
      <component glyphName="uni030B.case" x="282" y="0" flags="0x4"/>
    </TTGlyph>
    <TTGlyph name="Umacron" xMin="124" yMin="-20" xMax="1632" yMax="1870">
      <component glyphName="U" x="0" y="0" flags="0x204"/>
      <component glyphName="uni0304.case" x="282" y="0" flags="0x4"/>
    </TTGlyph>
    <TTGlyph name="Uogonek" xMin="124" yMin="-460" xMax="1632" yMax="1480">
      <contour>
        <pt x="970" y="-460" on="1"/>
        <pt x="801" y="-460" on="0"/>
        <pt x="638" y="-336" on="0"/>
        <pt x="638" y="-234" on="1"/>
        <pt x="638" y="-142" on="0"/>
        <pt x="784" y="17" on="0"/>
        <pt x="976" y="68" on="1"/>
        <pt x="938" y="-20" on="1"/>
        <pt x="882" y="-20" on="1"/>
        <pt x="611" y="-20" on="0"/>
        <pt x="277" y="150" on="0"/>
        <pt x="124" y="470" on="0"/>
        <pt x="124" y="694" on="1"/>
        <pt x="124" y="1480" on="1"/>
        <pt x="600" y="1480" on="1"/>
        <pt x="600" y="656" on="1"/>
        <pt x="600" y="502" on="0"/>
        <pt x="741" y="356" on="0"/>
        <pt x="882" y="356" on="1"/>
        <pt x="1023" y="356" on="0"/>
        <pt x="1164" y="502" on="0"/>
        <pt x="1164" y="656" on="1"/>
        <pt x="1164" y="1480" on="1"/>
        <pt x="1632" y="1480" on="1"/>
        <pt x="1632" y="694" on="1"/>
        <pt x="1632" y="436" on="0"/>
        <pt x="1429" y="91" on="0"/>
        <pt x="1204" y="22" on="1"/>
        <pt x="1080" y="-16" on="0"/>
        <pt x="946" y="-86" on="0"/>
        <pt x="894" y="-157" on="0"/>
        <pt x="894" y="-196" on="1"/>
        <pt x="894" y="-241" on="0"/>
        <pt x="964" y="-294" on="0"/>
        <pt x="1042" y="-294" on="1"/>
        <pt x="1066" y="-294" on="0"/>
        <pt x="1132" y="-283" on="0"/>
        <pt x="1174" y="-270" on="1"/>
        <pt x="1174" y="-430" on="1"/>
        <pt x="1131" y="-443" on="0"/>
        <pt x="1033" y="-460" on="0"/>
      </contour>
    </TTGlyph>
    <TTGlyph name="Uring" xMin="124" yMin="-20" xMax="1632" yMax="2010">
      <component glyphName="U" x="0" y="0" flags="0x204"/>
      <component glyphName="uni030A.case" x="282" y="0" flags="0x4"/>
    </TTGlyph>
    <TTGlyph name="Utilde" xMin="124" yMin="-20" xMax="1632" yMax="1902">
      <component glyphName="U" x="0" y="0" flags="0x204"/>
      <component glyphName="tildecomb.case" x="282" y="0" flags="0x4"/>
    </TTGlyph>
    <TTGlyph name="V" xMin="6" yMin="0" xMax="1734" yMax="1480">
      <contour>
        <pt x="526" y="0" on="1"/>
        <pt x="6" y="1480" on="1"/>
        <pt x="508" y="1480" on="1"/>
        <pt x="938" y="196" on="1"/>
        <pt x="826" y="196" on="1"/>
        <pt x="1266" y="1480" on="1"/>
        <pt x="1734" y="1480" on="1"/>
        <pt x="1214" y="0" on="1"/>
      </contour>
    </TTGlyph>
    <TTGlyph name="W" xMin="24" yMin="0" xMax="2724" yMax="1480">
      <contour>
        <pt x="466" y="0" on="1"/>
        <pt x="24" y="1480" on="1"/>
        <pt x="504" y="1480" on="1"/>
        <pt x="852" y="236" on="1"/>
        <pt x="746" y="236" on="1"/>
        <pt x="1126" y="1480" on="1"/>
        <pt x="1646" y="1480" on="1"/>
        <pt x="2008" y="236" on="1"/>
        <pt x="1916" y="236" on="1"/>
        <pt x="2272" y="1480" on="1"/>
        <pt x="2724" y="1480" on="1"/>
        <pt x="2282" y="0" on="1"/>
        <pt x="1682" y="0" on="1"/>
        <pt x="1316" y="1236" on="1"/>
        <pt x="1446" y="1236" on="1"/>
        <pt x="1066" y="0" on="1"/>
      </contour>
    </TTGlyph>
    <TTGlyph name="Wacute" xMin="24" yMin="0" xMax="2724" yMax="1902">
      <component glyphName="W" x="0" y="0" flags="0x204"/>
      <component glyphName="acutecomb.case" x="774" y="0" flags="0x4"/>
    </TTGlyph>
    <TTGlyph name="Wcircumflex" xMin="24" yMin="0" xMax="2724" yMax="1902">
      <component glyphName="W" x="0" y="0" flags="0x204"/>
      <component glyphName="uni0302.case" x="774" y="0" flags="0x4"/>
    </TTGlyph>
    <TTGlyph name="Wdieresis" xMin="24" yMin="0" xMax="2724" yMax="1930">
      <component glyphName="W" x="0" y="0" flags="0x204"/>
      <component glyphName="uni0308.case" x="774" y="0" flags="0x4"/>
    </TTGlyph>
    <TTGlyph name="Wgrave" xMin="24" yMin="0" xMax="2724" yMax="1902">
      <component glyphName="W" x="0" y="0" flags="0x204"/>
      <component glyphName="gravecomb.case" x="774" y="0" flags="0x4"/>
    </TTGlyph>
    <TTGlyph name="X" xMin="-68" yMin="0" xMax="1662" yMax="1480">
      <contour>
        <pt x="1134" y="0" on="1"/>
        <pt x="788" y="470" on="1"/>
        <pt x="514" y="774" on="1"/>
        <pt x="-22" y="1480" on="1"/>
        <pt x="506" y="1480" on="1"/>
        <pt x="798" y="1086" on="1"/>
        <pt x="1072" y="782" on="1"/>
        <pt x="1662" y="0" on="1"/>
      </contour>
      <contour>
        <pt x="-68" y="0" on="1"/>
        <pt x="514" y="774" on="1"/>
        <pt x="798" y="1086" on="1"/>
        <pt x="1088" y="1480" on="1"/>
        <pt x="1598" y="1480" on="1"/>
        <pt x="1072" y="782" on="1"/>
        <pt x="788" y="470" on="1"/>
        <pt x="444" y="0" on="1"/>
      </contour>
    </TTGlyph>
    <TTGlyph name="Y" xMin="-60" yMin="0" xMax="1572" yMax="1480">
      <contour>
        <pt x="532" y="0" on="1"/>
        <pt x="532" y="782" on="1"/>
        <pt x="624" y="466" on="1"/>
        <pt x="-60" y="1480" on="1"/>
        <pt x="442" y="1480" on="1"/>
        <pt x="844" y="872" on="1"/>
        <pt x="712" y="872" on="1"/>
        <pt x="1104" y="1480" on="1"/>
        <pt x="1572" y="1480" on="1"/>
        <pt x="916" y="466" on="1"/>
        <pt x="1008" y="776" on="1"/>
        <pt x="1008" y="0" on="1"/>
      </contour>
    </TTGlyph>
    <TTGlyph name="Yacute" xMin="-60" yMin="0" xMax="1572" yMax="1902">
      <component glyphName="Y" x="0" y="0" flags="0x204"/>
      <component glyphName="acutecomb.case" x="164" y="0" flags="0x4"/>
    </TTGlyph>
    <TTGlyph name="Ycircumflex" xMin="-60" yMin="0" xMax="1572" yMax="1902">
      <component glyphName="Y" x="0" y="0" flags="0x204"/>
      <component glyphName="uni0302.case" x="164" y="0" flags="0x4"/>
    </TTGlyph>
    <TTGlyph name="Ydieresis" xMin="-60" yMin="0" xMax="1572" yMax="1930">
      <component glyphName="Y" x="0" y="0" flags="0x204"/>
      <component glyphName="uni0308.case" x="164" y="0" flags="0x4"/>
    </TTGlyph>
    <TTGlyph name="Ygrave" xMin="-60" yMin="0" xMax="1572" yMax="1902">
      <component glyphName="Y" x="0" y="0" flags="0x204"/>
      <component glyphName="gravecomb.case" x="164" y="0" flags="0x4"/>
    </TTGlyph>
    <TTGlyph name="Z" xMin="84" yMin="0" xMax="1398" yMax="1480">
      <contour>
        <pt x="84" y="0" on="1"/>
        <pt x="84" y="254" on="1"/>
        <pt x="844" y="1200" on="1"/>
        <pt x="844" y="1112" on="1"/>
        <pt x="94" y="1112" on="1"/>
        <pt x="94" y="1480" on="1"/>
        <pt x="1388" y="1480" on="1"/>
        <pt x="1388" y="1226" on="1"/>
        <pt x="628" y="280" on="1"/>
        <pt x="628" y="368" on="1"/>
        <pt x="1398" y="368" on="1"/>
        <pt x="1398" y="0" on="1"/>
      </contour>
    </TTGlyph>
    <TTGlyph name="Zacute" xMin="84" yMin="0" xMax="1398" yMax="1902">
      <component glyphName="Z" x="0" y="0" flags="0x204"/>
      <component glyphName="acutecomb.case" x="142" y="0" flags="0x4"/>
    </TTGlyph>
    <TTGlyph name="Zcaron" xMin="84" yMin="0" xMax="1398" yMax="1902">
      <component glyphName="Z" x="0" y="0" flags="0x204"/>
      <component glyphName="uni030C.case" x="142" y="0" flags="0x4"/>
    </TTGlyph>
    <TTGlyph name="Zdotaccent" xMin="84" yMin="0" xMax="1398" yMax="1930">
      <component glyphName="Z" x="0" y="0" flags="0x204"/>
      <component glyphName="uni0307.case" x="142" y="0" flags="0x4"/>
    </TTGlyph>
    <TTGlyph name="a" xMin="58" yMin="-22" xMax="1236" yMax="1118">
      <contour>
        <pt x="488" y="-22" on="1"/>
        <pt x="272" y="-22" on="0"/>
        <pt x="58" y="171" on="0"/>
        <pt x="58" y="312" on="1"/>
        <pt x="58" y="473" on="0"/>
        <pt x="323" y="657" on="0"/>
        <pt x="612" y="670" on="1"/>
        <pt x="858" y="682" on="1"/>
        <pt x="902" y="450" on="1"/>
        <pt x="658" y="438" on="1"/>
        <pt x="579" y="434" on="0"/>
        <pt x="516" y="388" on="0"/>
        <pt x="516" y="350" on="1"/>
        <pt x="516" y="316" on="0"/>
        <pt x="577" y="272" on="0"/>
        <pt x="640" y="272" on="1"/>
        <pt x="673" y="272" on="0"/>
        <pt x="749" y="284" on="0"/>
        <pt x="782" y="300" on="1"/>
        <pt x="782" y="614" on="1"/>
        <pt x="782" y="678" on="0"/>
        <pt x="734" y="755" on="0"/>
        <pt x="616" y="790" on="0"/>
        <pt x="512" y="790" on="1"/>
        <pt x="442" y="790" on="0"/>
        <pt x="253" y="767" on="0"/>
        <pt x="172" y="744" on="1"/>
        <pt x="172" y="1066" on="1"/>
        <pt x="274" y="1093" on="0"/>
        <pt x="503" y="1118" on="0"/>
        <pt x="596" y="1118" on="1"/>
        <pt x="824" y="1118" on="0"/>
        <pt x="1106" y="1017" on="0"/>
        <pt x="1236" y="779" on="0"/>
        <pt x="1236" y="574" on="1"/>
        <pt x="1236" y="0" on="1"/>
        <pt x="852" y="0" on="1"/>
        <pt x="822" y="90" on="1"/>
        <pt x="802" y="90" on="1"/>
        <pt x="744" y="30" on="0"/>
        <pt x="581" y="-22" on="0"/>
      </contour>
    </TTGlyph>
    <TTGlyph name="a.sc" xMin="18" yMin="0" xMax="1554" yMax="1190">
      <contour>
        <pt x="18" y="0" on="1"/>
        <pt x="444" y="1190" on="1"/>
        <pt x="1128" y="1190" on="1"/>
        <pt x="1554" y="0" on="1"/>
        <pt x="1094" y="0" on="1"/>
        <pt x="764" y="1024" on="1"/>
        <pt x="804" y="1024" on="1"/>
        <pt x="474" y="0" on="1"/>
      </contour>
      <contour>
        <pt x="464" y="238" on="1"/>
        <pt x="572" y="556" on="1"/>
        <pt x="998" y="556" on="1"/>
        <pt x="1104" y="238" on="1"/>
      </contour>
    </TTGlyph>
    <TTGlyph name="aacute" xMin="58" yMin="-22" xMax="1236" yMax="1616">
      <component glyphName="a" x="0" y="0" flags="0x204"/>
      <component glyphName="acutecomb" x="68" y="0" flags="0x4"/>
    </TTGlyph>
    <TTGlyph name="aacute.sc" xMin="18" yMin="0" xMax="1554" yMax="1612">
      <component glyphName="a.sc" x="0" y="0" flags="0x204"/>
      <component glyphName="acutecomb.sc" x="184" y="-290" flags="0x4"/>
    </TTGlyph>
    <TTGlyph name="abreve" xMin="58" yMin="-22" xMax="1236" yMax="1596">
      <component glyphName="a" x="0" y="0" flags="0x204"/>
      <component glyphName="uni0306" x="68" y="0" flags="0x4"/>
    </TTGlyph>
    <TTGlyph name="abreve.sc" xMin="18" yMin="0" xMax="1554" yMax="1612">
      <component glyphName="a.sc" x="0" y="0" flags="0x204"/>
      <component glyphName="uni0306.sc" x="184" y="-290" flags="0x4"/>
    </TTGlyph>
    <TTGlyph name="acircumflex" xMin="58" yMin="-22" xMax="1236" yMax="1616">
      <component glyphName="a" x="0" y="0" flags="0x204"/>
      <component glyphName="uni0302" x="68" y="0" flags="0x4"/>
    </TTGlyph>
    <TTGlyph name="acircumflex.sc" xMin="18" yMin="0" xMax="1554" yMax="1612">
      <component glyphName="a.sc" x="0" y="0" flags="0x204"/>
      <component glyphName="uni0302.sc" x="184" y="-290" flags="0x4"/>
    </TTGlyph>
    <TTGlyph name="acute" xMin="380" yMin="1220" xMax="1146" yMax="1616">
      <component glyphName="acutecomb" x="0" y="0" flags="0x4"/>
    </TTGlyph>
    <TTGlyph name="acutecomb" xMin="380" yMin="1220" xMax="1146" yMax="1616">
      <contour>
        <pt x="380" y="1220" on="1"/>
        <pt x="638" y="1616" on="1"/>
        <pt x="1146" y="1616" on="1"/>
        <pt x="820" y="1220" on="1"/>
      </contour>
    </TTGlyph>
    <TTGlyph name="acutecomb.case" xMin="386" yMin="1586" xMax="1078" yMax="1902">
      <contour>
        <pt x="386" y="1586" on="1"/>
        <pt x="590" y="1902" on="1"/>
        <pt x="1078" y="1902" on="1"/>
        <pt x="806" y="1586" on="1"/>
      </contour>
    </TTGlyph>
    <TTGlyph name="acutecomb.sc" xMin="386" yMin="1586" xMax="1078" yMax="1902">
      <component glyphName="acutecomb.case" x="0" y="0" flags="0x204"/>
    </TTGlyph>
    <TTGlyph name="adieresis" xMin="58" yMin="-22" xMax="1236" yMax="1626">
      <component glyphName="a" x="0" y="0" flags="0x204"/>
      <component glyphName="uni0308" x="68" y="0" flags="0x4"/>
    </TTGlyph>
    <TTGlyph name="adieresis.sc" xMin="18" yMin="0" xMax="1554" yMax="1640">
      <component glyphName="a.sc" x="0" y="0" flags="0x204"/>
      <component glyphName="uni0308.sc" x="184" y="-290" flags="0x4"/>
    </TTGlyph>
    <TTGlyph name="ae" xMin="58" yMin="-22" xMax="1978" yMax="1118">
      <contour>
        <pt x="1518" y="-22" on="1"/>
        <pt x="1263" y="-22" on="0"/>
        <pt x="937" y="99" on="0"/>
        <pt x="782" y="351" on="0"/>
        <pt x="782" y="546" on="1"/>
        <pt x="842" y="568" on="1"/>
        <pt x="842" y="730" on="0"/>
        <pt x="985" y="978" on="0"/>
        <pt x="1246" y="1118" on="0"/>
        <pt x="1422" y="1118" on="1"/>
        <pt x="1602" y="1118" on="0"/>
        <pt x="1850" y="975" on="0"/>
        <pt x="1978" y="711" on="0"/>
        <pt x="1978" y="530" on="1"/>
        <pt x="1978" y="428" on="1"/>
        <pt x="1126" y="428" on="1"/>
        <pt x="1126" y="668" on="1"/>
        <pt x="1620" y="668" on="1"/>
        <pt x="1552" y="650" on="1"/>
        <pt x="1552" y="717" on="0"/>
        <pt x="1518" y="804" on="0"/>
        <pt x="1448" y="846" on="0"/>
        <pt x="1394" y="846" on="1"/>
        <pt x="1340" y="846" on="0"/>
        <pt x="1270" y="805" on="0"/>
        <pt x="1236" y="719" on="0"/>
        <pt x="1236" y="652" on="1"/>
        <pt x="1236" y="476" on="1"/>
        <pt x="1236" y="412" on="0"/>
        <pt x="1287" y="336" on="0"/>
        <pt x="1439" y="302" on="0"/>
        <pt x="1592" y="302" on="1"/>
        <pt x="1661" y="302" on="0"/>
        <pt x="1827" y="316" on="0"/>
        <pt x="1902" y="326" on="1"/>
        <pt x="1902" y="8" on="1"/>
        <pt x="1796" y="-10" on="0"/>
        <pt x="1604" y="-22" on="0"/>
      </contour>
      <contour>
        <pt x="528" y="-22" on="1"/>
        <pt x="364" y="-22" on="0"/>
        <pt x="156" y="67" on="0"/>
        <pt x="58" y="219" on="0"/>
        <pt x="58" y="314" on="1"/>
        <pt x="58" y="423" on="0"/>
        <pt x="174" y="582" on="0"/>
        <pt x="419" y="668" on="0"/>
        <pt x="612" y="668" on="1"/>
        <pt x="860" y="668" on="1"/>
        <pt x="860" y="432" on="1"/>
        <pt x="656" y="432" on="1"/>
        <pt x="603" y="432" on="0"/>
        <pt x="542" y="411" on="0"/>
        <pt x="516" y="373" on="0"/>
        <pt x="516" y="348" on="1"/>
        <pt x="516" y="312" on="0"/>
        <pt x="578" y="272" on="0"/>
        <pt x="642" y="272" on="1"/>
        <pt x="699" y="272" on="0"/>
        <pt x="791" y="302" on="0"/>
        <pt x="846" y="342" on="1"/>
        <pt x="982" y="150" on="1"/>
        <pt x="888" y="63" on="0"/>
        <pt x="651" y="-22" on="0"/>
      </contour>
      <contour>
        <pt x="782" y="546" on="1"/>
        <pt x="782" y="614" on="1"/>
        <pt x="782" y="678" on="0"/>
        <pt x="734" y="755" on="0"/>
        <pt x="616" y="790" on="0"/>
        <pt x="512" y="790" on="1"/>
        <pt x="442" y="790" on="0"/>
        <pt x="253" y="767" on="0"/>
        <pt x="172" y="744" on="1"/>
        <pt x="172" y="1066" on="1"/>
        <pt x="274" y="1093" on="0"/>
        <pt x="483" y="1118" on="0"/>
        <pt x="576" y="1118" on="1"/>
        <pt x="784" y="1118" on="0"/>
        <pt x="1049" y="1017" on="0"/>
        <pt x="1176" y="779" on="0"/>
        <pt x="1176" y="574" on="1"/>
        <pt x="1176" y="546" on="1"/>
      </contour>
    </TTGlyph>
    <TTGlyph name="ae.sc" xMin="18" yMin="0" xMax="2040" yMax="1190">
      <contour>
        <pt x="18" y="0" on="1"/>
        <pt x="442" y="1190" on="1"/>
        <pt x="1080" y="1190" on="1"/>
        <pt x="1082" y="876" on="1"/>
        <pt x="754" y="876" on="1"/>
        <pt x="472" y="0" on="1"/>
      </contour>
      <contour>
        <pt x="462" y="244" on="1"/>
        <pt x="572" y="558" on="1"/>
        <pt x="1058" y="558" on="1"/>
        <pt x="1058" y="244" on="1"/>
      </contour>
      <contour>
        <pt x="978" y="0" on="1"/>
        <pt x="868" y="1190" on="1"/>
        <pt x="2032" y="1190" on="1"/>
        <pt x="2032" y="876" on="1"/>
        <pt x="1348" y="876" on="1"/>
        <pt x="1408" y="314" on="1"/>
        <pt x="2040" y="314" on="1"/>
        <pt x="2040" y="0" on="1"/>
      </contour>
      <contour>
        <pt x="1108" y="446" on="1"/>
        <pt x="1108" y="760" on="1"/>
        <pt x="1940" y="760" on="1"/>
        <pt x="1940" y="446" on="1"/>
      </contour>
    </TTGlyph>
    <TTGlyph name="aeacute" xMin="58" yMin="-22" xMax="1978" yMax="1616">
      <component glyphName="ae" x="0" y="0" flags="0x204"/>
      <component glyphName="acutecomb" x="422" y="0" flags="0x4"/>
    </TTGlyph>
    <TTGlyph name="aeacute.sc" xMin="18" yMin="0" xMax="2040" yMax="1612">
      <component glyphName="ae.sc" x="0" y="0" flags="0x204"/>
      <component glyphName="acutecomb.sc" x="514" y="-290" flags="0x4"/>
    </TTGlyph>
    <TTGlyph name="agrave" xMin="58" yMin="-22" xMax="1236" yMax="1616">
      <component glyphName="a" x="0" y="0" flags="0x204"/>
      <component glyphName="gravecomb" x="68" y="0" flags="0x4"/>
    </TTGlyph>
    <TTGlyph name="agrave.sc" xMin="18" yMin="0" xMax="1554" yMax="1612">
      <component glyphName="a.sc" x="0" y="0" flags="0x204"/>
      <component glyphName="gravecomb.sc" x="184" y="-290" flags="0x4"/>
    </TTGlyph>
    <TTGlyph name="amacron" xMin="58" yMin="-22" xMax="1236" yMax="1544">
      <component glyphName="a" x="0" y="0" flags="0x204"/>
      <component glyphName="uni0304" x="68" y="0" flags="0x4"/>
    </TTGlyph>
    <TTGlyph name="amacron.sc" xMin="18" yMin="0" xMax="1554" yMax="1580">
      <component glyphName="a.sc" x="0" y="0" flags="0x204"/>
      <component glyphName="uni0304.sc" x="184" y="-290" flags="0x4"/>
    </TTGlyph>
    <TTGlyph name="ampersand" xMin="106" yMin="-20" xMax="1846" yMax="1500">
      <contour>
        <pt x="1666" y="-20" on="1"/>
        <pt x="656" y="532" on="1"/>
        <pt x="484" y="626" on="0"/>
        <pt x="307" y="795" on="0"/>
        <pt x="244" y="951" on="0"/>
        <pt x="244" y="1024" on="1"/>
        <pt x="244" y="1245" on="0"/>
        <pt x="611" y="1500" on="0"/>
        <pt x="992" y="1500" on="1"/>
        <pt x="1079" y="1500" on="0"/>
        <pt x="1227" y="1489" on="0"/>
        <pt x="1294" y="1480" on="1"/>
        <pt x="1294" y="1112" on="1"/>
        <pt x="1239" y="1123" on="0"/>
        <pt x="1093" y="1138" on="0"/>
        <pt x="1024" y="1138" on="1"/>
        <pt x="896" y="1138" on="0"/>
        <pt x="760" y="1102" on="0"/>
        <pt x="710" y="1041" on="0"/>
        <pt x="710" y="1002" on="1"/>
        <pt x="710" y="977" on="0"/>
        <pt x="735" y="932" on="0"/>
        <pt x="791" y="887" on="0"/>
        <pt x="836" y="862" on="1"/>
        <pt x="1846" y="310" on="1"/>
      </contour>
      <contour>
        <pt x="792" y="-18" on="1"/>
        <pt x="564" y="-18" on="0"/>
        <pt x="259" y="87" on="0"/>
        <pt x="106" y="277" on="0"/>
        <pt x="106" y="406" on="1"/>
        <pt x="106" y="504" on="0"/>
        <pt x="193" y="659" on="0"/>
        <pt x="338" y="763" on="0"/>
        <pt x="424" y="786" on="1"/>
        <pt x="666" y="632" on="1"/>
        <pt x="626" y="598" on="0"/>
        <pt x="572" y="513" on="0"/>
        <pt x="572" y="454" on="1"/>
        <pt x="572" y="401" on="0"/>
        <pt x="638" y="328" on="0"/>
        <pt x="762" y="290" on="0"/>
        <pt x="848" y="290" on="1"/>
        <pt x="954" y="290" on="0"/>
        <pt x="1125" y="357" on="0"/>
        <pt x="1226" y="519" on="0"/>
        <pt x="1226" y="662" on="1"/>
        <pt x="1226" y="718" on="0"/>
        <pt x="1207" y="846" on="0"/>
        <pt x="1192" y="906" on="1"/>
        <pt x="1550" y="906" on="1"/>
        <pt x="1565" y="846" on="0"/>
        <pt x="1582" y="720" on="0"/>
        <pt x="1582" y="666" on="1"/>
        <pt x="1582" y="439" on="0"/>
        <pt x="1394" y="135" on="0"/>
        <pt x="1041" y="-18" on="0"/>
      </contour>
    </TTGlyph>
    <TTGlyph name="ampersand.sc" xMin="76" yMin="-16" xMax="1608" yMax="1206">
      <contour>
        <pt x="1442" y="-16" on="1"/>
        <pt x="552" y="412" on="1"/>
        <pt x="405" y="483" on="0"/>
        <pt x="246" y="617" on="0"/>
        <pt x="186" y="747" on="0"/>
        <pt x="186" y="812" on="1"/>
        <pt x="186" y="995" on="0"/>
        <pt x="517" y="1206" on="0"/>
        <pt x="862" y="1206" on="1"/>
        <pt x="936" y="1206" on="0"/>
        <pt x="1062" y="1198" on="0"/>
        <pt x="1122" y="1192" on="1"/>
        <pt x="1122" y="848" on="1"/>
        <pt x="1076" y="856" on="0"/>
        <pt x="951" y="868" on="0"/>
        <pt x="894" y="868" on="1"/>
        <pt x="789" y="868" on="0"/>
        <pt x="682" y="847" on="0"/>
        <pt x="646" y="812" on="0"/>
        <pt x="646" y="792" on="1"/>
        <pt x="646" y="780" on="0"/>
        <pt x="663" y="756" on="0"/>
        <pt x="695" y="733" on="0"/>
        <pt x="718" y="722" on="1"/>
        <pt x="1608" y="294" on="1"/>
      </contour>
      <contour>
        <pt x="678" y="-14" on="1"/>
        <pt x="381" y="-14" on="0"/>
        <pt x="76" y="171" on="0"/>
        <pt x="76" y="328" on="1"/>
        <pt x="76" y="407" on="0"/>
        <pt x="154" y="530" on="0"/>
        <pt x="279" y="611" on="0"/>
        <pt x="350" y="626" on="1"/>
        <pt x="566" y="488" on="1"/>
        <pt x="548" y="463" on="0"/>
        <pt x="514" y="410" on="0"/>
        <pt x="514" y="372" on="1"/>
        <pt x="514" y="338" on="0"/>
        <pt x="554" y="286" on="0"/>
        <pt x="652" y="256" on="0"/>
        <pt x="738" y="256" on="1"/>
        <pt x="885" y="256" on="0"/>
        <pt x="1050" y="403" on="0"/>
        <pt x="1050" y="562" on="1"/>
        <pt x="1050" y="604" on="0"/>
        <pt x="1036" y="706" on="0"/>
        <pt x="1024" y="752" on="1"/>
        <pt x="1358" y="752" on="1"/>
        <pt x="1370" y="706" on="0"/>
        <pt x="1382" y="607" on="0"/>
        <pt x="1382" y="566" on="1"/>
        <pt x="1382" y="275" on="0"/>
        <pt x="1010" y="-14" on="0"/>
      </contour>
    </TTGlyph>
    <TTGlyph name="aogonek" xMin="58" yMin="-460" xMax="1256" yMax="1118">
      <component glyphName="a" x="0" y="0" flags="0x204"/>
      <component glyphName="uni0328" x="720" y="0" flags="0x4"/>
    </TTGlyph>
    <TTGlyph name="aogonek.sc" xMin="18" yMin="-460" xMax="1588" yMax="1190">
      <component glyphName="a.sc" x="0" y="0" flags="0x204"/>
      <component glyphName="uni0328.sc" x="1038" y="0" flags="0x4"/>
    </TTGlyph>
    <TTGlyph name="approxequal" xMin="114" yMin="288" xMax="1082" yMax="1232">
      <contour>
        <pt x="814" y="780" on="1"/>
        <pt x="728" y="780" on="0"/>
        <pt x="582" y="839" on="0"/>
        <pt x="447" y="898" on="0"/>
        <pt x="378" y="898" on="1"/>
        <pt x="302" y="898" on="0"/>
        <pt x="179" y="847" on="0"/>
        <pt x="114" y="788" on="1"/>
        <pt x="114" y="1130" on="1"/>
        <pt x="217" y="1232" on="0"/>
        <pt x="382" y="1232" on="1"/>
        <pt x="468" y="1232" on="0"/>
        <pt x="614" y="1173" on="0"/>
        <pt x="749" y="1114" on="0"/>
        <pt x="818" y="1114" on="1"/>
        <pt x="895" y="1114" on="0"/>
        <pt x="1018" y="1166" on="0"/>
        <pt x="1082" y="1224" on="1"/>
        <pt x="1082" y="882" on="1"/>
        <pt x="981" y="780" on="0"/>
      </contour>
      <contour>
        <pt x="814" y="288" on="1"/>
        <pt x="728" y="288" on="0"/>
        <pt x="582" y="347" on="0"/>
        <pt x="447" y="406" on="0"/>
        <pt x="378" y="406" on="1"/>
        <pt x="302" y="406" on="0"/>
        <pt x="179" y="355" on="0"/>
        <pt x="114" y="296" on="1"/>
        <pt x="114" y="638" on="1"/>
        <pt x="217" y="740" on="0"/>
        <pt x="382" y="740" on="1"/>
        <pt x="468" y="740" on="0"/>
        <pt x="614" y="681" on="0"/>
        <pt x="749" y="622" on="0"/>
        <pt x="818" y="622" on="1"/>
        <pt x="895" y="622" on="0"/>
        <pt x="1018" y="674" on="0"/>
        <pt x="1082" y="732" on="1"/>
        <pt x="1082" y="390" on="1"/>
        <pt x="981" y="288" on="0"/>
      </contour>
    </TTGlyph>
    <TTGlyph name="approxequal.osf" xMin="114" yMin="88" xMax="1082" yMax="1032">
      <contour>
        <pt x="814" y="580" on="1"/>
        <pt x="728" y="580" on="0"/>
        <pt x="582" y="639" on="0"/>
        <pt x="447" y="698" on="0"/>
        <pt x="378" y="698" on="1"/>
        <pt x="302" y="698" on="0"/>
        <pt x="179" y="647" on="0"/>
        <pt x="114" y="588" on="1"/>
        <pt x="114" y="930" on="1"/>
        <pt x="217" y="1032" on="0"/>
        <pt x="382" y="1032" on="1"/>
        <pt x="468" y="1032" on="0"/>
        <pt x="614" y="973" on="0"/>
        <pt x="749" y="914" on="0"/>
        <pt x="818" y="914" on="1"/>
        <pt x="895" y="914" on="0"/>
        <pt x="1018" y="966" on="0"/>
        <pt x="1082" y="1024" on="1"/>
        <pt x="1082" y="682" on="1"/>
        <pt x="981" y="580" on="0"/>
      </contour>
      <contour>
        <pt x="814" y="88" on="1"/>
        <pt x="728" y="88" on="0"/>
        <pt x="582" y="147" on="0"/>
        <pt x="447" y="206" on="0"/>
        <pt x="378" y="206" on="1"/>
        <pt x="302" y="206" on="0"/>
        <pt x="179" y="155" on="0"/>
        <pt x="114" y="96" on="1"/>
        <pt x="114" y="438" on="1"/>
        <pt x="217" y="540" on="0"/>
        <pt x="382" y="540" on="1"/>
        <pt x="468" y="540" on="0"/>
        <pt x="614" y="481" on="0"/>
        <pt x="749" y="422" on="0"/>
        <pt x="818" y="422" on="1"/>
        <pt x="895" y="422" on="0"/>
        <pt x="1018" y="474" on="0"/>
        <pt x="1082" y="532" on="1"/>
        <pt x="1082" y="190" on="1"/>
        <pt x="981" y="88" on="0"/>
      </contour>
    </TTGlyph>
    <TTGlyph name="approxequal.tf" xMin="236" yMin="288" xMax="1204" yMax="1232">
      <contour>
        <pt x="936" y="780" on="1"/>
        <pt x="850" y="780" on="0"/>
        <pt x="704" y="839" on="0"/>
        <pt x="569" y="898" on="0"/>
        <pt x="500" y="898" on="1"/>
        <pt x="424" y="898" on="0"/>
        <pt x="301" y="847" on="0"/>
        <pt x="236" y="788" on="1"/>
        <pt x="236" y="1130" on="1"/>
        <pt x="339" y="1232" on="0"/>
        <pt x="504" y="1232" on="1"/>
        <pt x="590" y="1232" on="0"/>
        <pt x="736" y="1173" on="0"/>
        <pt x="871" y="1114" on="0"/>
        <pt x="940" y="1114" on="1"/>
        <pt x="1017" y="1114" on="0"/>
        <pt x="1140" y="1166" on="0"/>
        <pt x="1204" y="1224" on="1"/>
        <pt x="1204" y="882" on="1"/>
        <pt x="1103" y="780" on="0"/>
      </contour>
      <contour>
        <pt x="936" y="288" on="1"/>
        <pt x="850" y="288" on="0"/>
        <pt x="704" y="347" on="0"/>
        <pt x="569" y="406" on="0"/>
        <pt x="500" y="406" on="1"/>
        <pt x="424" y="406" on="0"/>
        <pt x="301" y="355" on="0"/>
        <pt x="236" y="296" on="1"/>
        <pt x="236" y="638" on="1"/>
        <pt x="339" y="740" on="0"/>
        <pt x="504" y="740" on="1"/>
        <pt x="590" y="740" on="0"/>
        <pt x="736" y="681" on="0"/>
        <pt x="871" y="622" on="0"/>
        <pt x="940" y="622" on="1"/>
        <pt x="1017" y="622" on="0"/>
        <pt x="1140" y="674" on="0"/>
        <pt x="1204" y="732" on="1"/>
        <pt x="1204" y="390" on="1"/>
        <pt x="1103" y="288" on="0"/>
      </contour>
    </TTGlyph>
    <TTGlyph name="approxequal.tosf" xMin="236" yMin="88" xMax="1204" yMax="1032">
      <contour>
        <pt x="936" y="580" on="1"/>
        <pt x="850" y="580" on="0"/>
        <pt x="704" y="639" on="0"/>
        <pt x="569" y="698" on="0"/>
        <pt x="500" y="698" on="1"/>
        <pt x="424" y="698" on="0"/>
        <pt x="301" y="647" on="0"/>
        <pt x="236" y="588" on="1"/>
        <pt x="236" y="930" on="1"/>
        <pt x="339" y="1032" on="0"/>
        <pt x="504" y="1032" on="1"/>
        <pt x="590" y="1032" on="0"/>
        <pt x="736" y="973" on="0"/>
        <pt x="871" y="914" on="0"/>
        <pt x="940" y="914" on="1"/>
        <pt x="1017" y="914" on="0"/>
        <pt x="1140" y="966" on="0"/>
        <pt x="1204" y="1024" on="1"/>
        <pt x="1204" y="682" on="1"/>
        <pt x="1103" y="580" on="0"/>
      </contour>
      <contour>
        <pt x="936" y="88" on="1"/>
        <pt x="850" y="88" on="0"/>
        <pt x="704" y="147" on="0"/>
        <pt x="569" y="206" on="0"/>
        <pt x="500" y="206" on="1"/>
        <pt x="424" y="206" on="0"/>
        <pt x="301" y="155" on="0"/>
        <pt x="236" y="96" on="1"/>
        <pt x="236" y="438" on="1"/>
        <pt x="339" y="540" on="0"/>
        <pt x="504" y="540" on="1"/>
        <pt x="590" y="540" on="0"/>
        <pt x="736" y="481" on="0"/>
        <pt x="871" y="422" on="0"/>
        <pt x="940" y="422" on="1"/>
        <pt x="1017" y="422" on="0"/>
        <pt x="1140" y="474" on="0"/>
        <pt x="1204" y="532" on="1"/>
        <pt x="1204" y="190" on="1"/>
        <pt x="1103" y="88" on="0"/>
      </contour>
    </TTGlyph>
    <TTGlyph name="aring" xMin="58" yMin="-22" xMax="1236" yMax="1654">
      <component glyphName="a" x="0" y="0" flags="0x204"/>
      <component glyphName="uni030A" x="68" y="0" flags="0x4"/>
    </TTGlyph>
    <TTGlyph name="aring.sc" xMin="18" yMin="0" xMax="1554" yMax="1720">
      <component glyphName="a.sc" x="0" y="0" flags="0x204"/>
      <component glyphName="uni030A.sc" x="184" y="-290" flags="0x4"/>
    </TTGlyph>
    <TTGlyph name="aringacute" xMin="58" yMin="-22" xMax="1236" yMax="1780">
      <component glyphName="a" x="0" y="0" flags="0x204"/>
      <component glyphName="uni030A0301" x="68" y="0" flags="0x4"/>
    </TTGlyph>
    <TTGlyph name="aringacute.sc" xMin="18" yMin="0" xMax="1554" yMax="1846">
      <component glyphName="a.sc" x="0" y="0" flags="0x204"/>
      <component glyphName="uni030A0301.case.sc" x="184" y="-290" flags="0x4"/>
    </TTGlyph>
    <TTGlyph name="arrowdown" xMin="114" yMin="104" xMax="1362" yMax="1416">
      <contour>
        <pt x="738" y="104" on="1"/>
        <pt x="114" y="728" on="1"/>
        <pt x="326" y="940" on="1"/>
        <pt x="568" y="698" on="1"/>
        <pt x="568" y="1416" on="1"/>
        <pt x="908" y="1416" on="1"/>
        <pt x="908" y="698" on="1"/>
        <pt x="1150" y="940" on="1"/>
        <pt x="1362" y="728" on="1"/>
      </contour>
    </TTGlyph>
    <TTGlyph name="arrowleft" xMin="114" yMin="136" xMax="1426" yMax="1384">
      <contour>
        <pt x="738" y="136" on="1"/>
        <pt x="114" y="760" on="1"/>
        <pt x="738" y="1384" on="1"/>
        <pt x="950" y="1172" on="1"/>
        <pt x="708" y="930" on="1"/>
        <pt x="1426" y="930" on="1"/>
        <pt x="1426" y="590" on="1"/>
        <pt x="708" y="590" on="1"/>
        <pt x="950" y="348" on="1"/>
      </contour>
    </TTGlyph>
    <TTGlyph name="arrowright" xMin="114" yMin="136" xMax="1426" yMax="1384">
      <contour>
        <pt x="802" y="136" on="1"/>
        <pt x="590" y="348" on="1"/>
        <pt x="832" y="590" on="1"/>
        <pt x="114" y="590" on="1"/>
        <pt x="114" y="930" on="1"/>
        <pt x="832" y="930" on="1"/>
        <pt x="590" y="1172" on="1"/>
        <pt x="802" y="1384" on="1"/>
        <pt x="1426" y="760" on="1"/>
      </contour>
    </TTGlyph>
    <TTGlyph name="arrowup" xMin="114" yMin="104" xMax="1362" yMax="1416">
      <contour>
        <pt x="568" y="104" on="1"/>
        <pt x="568" y="822" on="1"/>
        <pt x="326" y="580" on="1"/>
        <pt x="114" y="792" on="1"/>
        <pt x="738" y="1416" on="1"/>
        <pt x="1362" y="792" on="1"/>
        <pt x="1150" y="580" on="1"/>
        <pt x="908" y="822" on="1"/>
        <pt x="908" y="104" on="1"/>
      </contour>
    </TTGlyph>
    <TTGlyph name="asciicircum" xMin="34" yMin="740" xMax="1406" yMax="1480">
      <contour>
        <pt x="34" y="740" on="1"/>
        <pt x="488" y="1480" on="1"/>
        <pt x="952" y="1480" on="1"/>
        <pt x="1406" y="740" on="1"/>
        <pt x="944" y="740" on="1"/>
        <pt x="610" y="1284" on="1"/>
        <pt x="830" y="1284" on="1"/>
        <pt x="496" y="740" on="1"/>
      </contour>
    </TTGlyph>
    <TTGlyph name="asciicircum.osf" xMin="34" yMin="360" xMax="1406" yMax="1100">
      <contour>
        <pt x="34" y="360" on="1"/>
        <pt x="488" y="1100" on="1"/>
        <pt x="952" y="1100" on="1"/>
        <pt x="1406" y="360" on="1"/>
        <pt x="944" y="360" on="1"/>
        <pt x="610" y="904" on="1"/>
        <pt x="830" y="904" on="1"/>
        <pt x="496" y="360" on="1"/>
      </contour>
    </TTGlyph>
    <TTGlyph name="asciicircum.tf" xMin="34" yMin="740" xMax="1406" yMax="1480">
      <contour>
        <pt x="34" y="740" on="1"/>
        <pt x="488" y="1480" on="1"/>
        <pt x="952" y="1480" on="1"/>
        <pt x="1406" y="740" on="1"/>
        <pt x="944" y="740" on="1"/>
        <pt x="610" y="1284" on="1"/>
        <pt x="830" y="1284" on="1"/>
        <pt x="496" y="740" on="1"/>
      </contour>
    </TTGlyph>
    <TTGlyph name="asciicircum.tosf" xMin="34" yMin="360" xMax="1406" yMax="1100">
      <contour>
        <pt x="34" y="360" on="1"/>
        <pt x="488" y="1100" on="1"/>
        <pt x="952" y="1100" on="1"/>
        <pt x="1406" y="360" on="1"/>
        <pt x="944" y="360" on="1"/>
        <pt x="610" y="904" on="1"/>
        <pt x="830" y="904" on="1"/>
        <pt x="496" y="360" on="1"/>
      </contour>
    </TTGlyph>
    <TTGlyph name="asciitilde" xMin="114" yMin="534" xMax="1082" yMax="986">
      <contour>
        <pt x="814" y="534" on="1"/>
        <pt x="728" y="534" on="0"/>
        <pt x="582" y="593" on="0"/>
        <pt x="447" y="652" on="0"/>
        <pt x="378" y="652" on="1"/>
        <pt x="302" y="652" on="0"/>
        <pt x="179" y="601" on="0"/>
        <pt x="114" y="542" on="1"/>
        <pt x="114" y="884" on="1"/>
        <pt x="217" y="986" on="0"/>
        <pt x="382" y="986" on="1"/>
        <pt x="468" y="986" on="0"/>
        <pt x="614" y="927" on="0"/>
        <pt x="749" y="868" on="0"/>
        <pt x="818" y="868" on="1"/>
        <pt x="895" y="868" on="0"/>
        <pt x="1018" y="920" on="0"/>
        <pt x="1082" y="978" on="1"/>
        <pt x="1082" y="636" on="1"/>
        <pt x="981" y="534" on="0"/>
      </contour>
    </TTGlyph>
    <TTGlyph name="asciitilde.osf" xMin="114" yMin="334" xMax="1082" yMax="786">
      <contour>
        <pt x="814" y="334" on="1"/>
        <pt x="728" y="334" on="0"/>
        <pt x="582" y="393" on="0"/>
        <pt x="447" y="452" on="0"/>
        <pt x="378" y="452" on="1"/>
        <pt x="302" y="452" on="0"/>
        <pt x="179" y="401" on="0"/>
        <pt x="114" y="342" on="1"/>
        <pt x="114" y="684" on="1"/>
        <pt x="217" y="786" on="0"/>
        <pt x="382" y="786" on="1"/>
        <pt x="468" y="786" on="0"/>
        <pt x="614" y="727" on="0"/>
        <pt x="749" y="668" on="0"/>
        <pt x="818" y="668" on="1"/>
        <pt x="895" y="668" on="0"/>
        <pt x="1018" y="720" on="0"/>
        <pt x="1082" y="778" on="1"/>
        <pt x="1082" y="436" on="1"/>
        <pt x="981" y="334" on="0"/>
      </contour>
    </TTGlyph>
    <TTGlyph name="asciitilde.tf" xMin="236" yMin="534" xMax="1204" yMax="986">
      <contour>
        <pt x="936" y="534" on="1"/>
        <pt x="850" y="534" on="0"/>
        <pt x="704" y="593" on="0"/>
        <pt x="569" y="652" on="0"/>
        <pt x="500" y="652" on="1"/>
        <pt x="424" y="652" on="0"/>
        <pt x="301" y="601" on="0"/>
        <pt x="236" y="542" on="1"/>
        <pt x="236" y="884" on="1"/>
        <pt x="339" y="986" on="0"/>
        <pt x="504" y="986" on="1"/>
        <pt x="590" y="986" on="0"/>
        <pt x="736" y="927" on="0"/>
        <pt x="871" y="868" on="0"/>
        <pt x="940" y="868" on="1"/>
        <pt x="1017" y="868" on="0"/>
        <pt x="1140" y="920" on="0"/>
        <pt x="1204" y="978" on="1"/>
        <pt x="1204" y="636" on="1"/>
        <pt x="1103" y="534" on="0"/>
      </contour>
    </TTGlyph>
    <TTGlyph name="asciitilde.tosf" xMin="236" yMin="334" xMax="1204" yMax="786">
      <contour>
        <pt x="936" y="334" on="1"/>
        <pt x="850" y="334" on="0"/>
        <pt x="704" y="393" on="0"/>
        <pt x="569" y="452" on="0"/>
        <pt x="500" y="452" on="1"/>
        <pt x="424" y="452" on="0"/>
        <pt x="301" y="401" on="0"/>
        <pt x="236" y="342" on="1"/>
        <pt x="236" y="684" on="1"/>
        <pt x="339" y="786" on="0"/>
        <pt x="504" y="786" on="1"/>
        <pt x="590" y="786" on="0"/>
        <pt x="736" y="727" on="0"/>
        <pt x="871" y="668" on="0"/>
        <pt x="940" y="668" on="1"/>
        <pt x="1017" y="668" on="0"/>
        <pt x="1140" y="720" on="0"/>
        <pt x="1204" y="778" on="1"/>
        <pt x="1204" y="436" on="1"/>
        <pt x="1103" y="334" on="0"/>
      </contour>
    </TTGlyph>
    <TTGlyph name="asterisk" xMin="30" yMin="702" xMax="1086" yMax="1616">
      <contour>
        <pt x="734" y="1106" on="1"/>
        <pt x="866" y="992" on="1"/>
        <pt x="954" y="868" on="1"/>
        <pt x="724" y="702" on="1"/>
        <pt x="636" y="824" on="1"/>
        <pt x="558" y="1012" on="1"/>
        <pt x="480" y="824" on="1"/>
        <pt x="392" y="702" on="1"/>
        <pt x="162" y="868" on="1"/>
        <pt x="250" y="992" on="1"/>
        <pt x="382" y="1106" on="1"/>
        <pt x="216" y="1120" on="1"/>
        <pt x="30" y="1180" on="1"/>
        <pt x="118" y="1450" on="1"/>
        <pt x="304" y="1390" on="1"/>
        <pt x="458" y="1294" on="1"/>
        <pt x="416" y="1472" on="1"/>
        <pt x="416" y="1616" on="1"/>
        <pt x="700" y="1616" on="1"/>
        <pt x="700" y="1472" on="1"/>
        <pt x="658" y="1294" on="1"/>
        <pt x="812" y="1390" on="1"/>
        <pt x="998" y="1450" on="1"/>
        <pt x="1086" y="1180" on="1"/>
        <pt x="900" y="1120" on="1"/>
      </contour>
    </TTGlyph>
    <TTGlyph name="at" xMin="84" yMin="-460" xMax="2348" yMax="1498">
      <contour>
        <pt x="1266" y="-460" on="1"/>
        <pt x="882" y="-460" on="0"/>
        <pt x="355" y="-251" on="0"/>
        <pt x="84" y="183" on="0"/>
        <pt x="84" y="520" on="1"/>
        <pt x="84" y="857" on="0"/>
        <pt x="351" y="1290" on="0"/>
        <pt x="861" y="1498" on="0"/>
        <pt x="1224" y="1498" on="1"/>
        <pt x="1588" y="1498" on="0"/>
        <pt x="2089" y="1295" on="0"/>
        <pt x="2348" y="891" on="0"/>
        <pt x="2348" y="588" on="1"/>
        <pt x="2348" y="364" on="0"/>
        <pt x="2211" y="96" on="0"/>
        <pt x="1960" y="-22" on="0"/>
        <pt x="1790" y="-22" on="1"/>
        <pt x="1655" y="-22" on="0"/>
        <pt x="1458" y="53" on="0"/>
        <pt x="1398" y="132" on="1"/>
        <pt x="1374" y="132" on="1"/>
        <pt x="1341" y="44" on="0"/>
        <pt x="1171" y="-22" on="0"/>
        <pt x="1070" y="-22" on="1"/>
        <pt x="854" y="-22" on="0"/>
        <pt x="640" y="165" on="0"/>
        <pt x="640" y="312" on="1"/>
        <pt x="640" y="473" on="0"/>
        <pt x="905" y="652" on="0"/>
        <pt x="1194" y="668" on="1"/>
        <pt x="1440" y="682" on="1"/>
        <pt x="1484" y="458" on="1"/>
        <pt x="1234" y="444" on="1"/>
        <pt x="1164" y="440" on="0"/>
        <pt x="1098" y="402" on="0"/>
        <pt x="1098" y="354" on="1"/>
        <pt x="1098" y="309" on="0"/>
        <pt x="1176" y="276" on="0"/>
        <pt x="1222" y="276" on="1"/>
        <pt x="1245" y="276" on="0"/>
        <pt x="1340" y="291" on="0"/>
        <pt x="1364" y="304" on="1"/>
        <pt x="1364" y="594" on="1"/>
        <pt x="1364" y="658" on="0"/>
        <pt x="1317" y="735" on="0"/>
        <pt x="1204" y="770" on="0"/>
        <pt x="1106" y="770" on="1"/>
        <pt x="1033" y="770" on="0"/>
        <pt x="849" y="740" on="0"/>
        <pt x="772" y="714" on="1"/>
        <pt x="772" y="1036" on="1"/>
        <pt x="870" y="1066" on="0"/>
        <pt x="1087" y="1098" on="0"/>
        <pt x="1190" y="1098" on="1"/>
        <pt x="1412" y="1098" on="0"/>
        <pt x="1689" y="999" on="0"/>
        <pt x="1818" y="769" on="0"/>
        <pt x="1818" y="574" on="1"/>
        <pt x="1818" y="344" on="1"/>
        <pt x="1818" y="292" on="0"/>
        <pt x="1868" y="246" on="0"/>
        <pt x="1910" y="246" on="1"/>
        <pt x="1951" y="246" on="0"/>
        <pt x="2016" y="296" on="0"/>
        <pt x="2052" y="440" on="0"/>
        <pt x="2050" y="580" on="1"/>
        <pt x="2048" y="753" on="0"/>
        <pt x="1948" y="997" on="0"/>
        <pt x="1746" y="1150" on="0"/>
        <pt x="1436" y="1222" on="0"/>
        <pt x="1224" y="1222" on="1"/>
        <pt x="1013" y="1222" on="0"/>
        <pt x="704" y="1146" on="0"/>
        <pt x="503" y="980" on="0"/>
        <pt x="406" y="712" on="0"/>
        <pt x="406" y="520" on="1"/>
        <pt x="406" y="328" on="0"/>
        <pt x="505" y="59" on="0"/>
        <pt x="713" y="-107" on="0"/>
        <pt x="1039" y="-184" on="0"/>
        <pt x="1266" y="-184" on="1"/>
        <pt x="1409" y="-184" on="0"/>
        <pt x="1684" y="-157" on="0"/>
        <pt x="1822" y="-130" on="1"/>
        <pt x="1822" y="-406" on="1"/>
        <pt x="1686" y="-433" on="0"/>
        <pt x="1409" y="-460" on="0"/>
      </contour>
    </TTGlyph>
    <TTGlyph name="atilde" xMin="58" yMin="-22" xMax="1236" yMax="1598">
      <component glyphName="a" x="0" y="0" flags="0x204"/>
      <component glyphName="tildecomb" x="68" y="0" flags="0x4"/>
    </TTGlyph>
    <TTGlyph name="atilde.sc" xMin="18" yMin="0" xMax="1554" yMax="1612">
      <component glyphName="a.sc" x="0" y="0" flags="0x204"/>
      <component glyphName="tildecomb.sc" x="184" y="-290" flags="0x4"/>
    </TTGlyph>
    <TTGlyph name="b" xMin="116" yMin="-22" xMax="1424" yMax="1616">
      <contour>
        <pt x="674" y="-22" on="1"/>
        <pt x="536" y="-22" on="0"/>
        <pt x="244" y="11" on="0"/>
        <pt x="116" y="50" on="1"/>
        <pt x="116" y="1616" on="1"/>
        <pt x="580" y="1616" on="1"/>
        <pt x="580" y="1006" on="1"/>
        <pt x="600" y="1006" on="1"/>
        <pt x="662" y="1062" on="0"/>
        <pt x="824" y="1118" on="0"/>
        <pt x="926" y="1118" on="1"/>
        <pt x="1060" y="1118" on="0"/>
        <pt x="1287" y="999" on="0"/>
        <pt x="1424" y="760" on="0"/>
        <pt x="1424" y="580" on="1"/>
        <pt x="1424" y="291" on="0"/>
        <pt x="1046" y="-22" on="0"/>
      </contour>
      <contour>
        <pt x="716" y="318" on="1"/>
        <pt x="844" y="318" on="0"/>
        <pt x="966" y="433" on="0"/>
        <pt x="966" y="548" on="1"/>
        <pt x="966" y="622" on="0"/>
        <pt x="915" y="713" on="0"/>
        <pt x="821" y="754" on="0"/>
        <pt x="756" y="754" on="1"/>
        <pt x="711" y="754" on="0"/>
        <pt x="619" y="736" on="0"/>
        <pt x="580" y="716" on="1"/>
        <pt x="580" y="332" on="1"/>
        <pt x="607" y="326" on="0"/>
        <pt x="677" y="318" on="0"/>
      </contour>
    </TTGlyph>
    <TTGlyph name="b.sc" xMin="132" yMin="-18" xMax="1324" yMax="1206">
      <contour>
        <pt x="590" y="-18" on="1"/>
        <pt x="522" y="-18" on="0"/>
        <pt x="353" y="-11" on="0"/>
        <pt x="190" y="2" on="0"/>
        <pt x="132" y="10" on="1"/>
        <pt x="132" y="1148" on="1"/>
        <pt x="201" y="1164" on="0"/>
        <pt x="384" y="1190" on="0"/>
        <pt x="572" y="1206" on="0"/>
        <pt x="650" y="1206" on="1"/>
        <pt x="995" y="1206" on="0"/>
        <pt x="1292" y="1022" on="0"/>
        <pt x="1292" y="854" on="1"/>
        <pt x="1292" y="792" on="0"/>
        <pt x="1236" y="690" on="0"/>
        <pt x="1146" y="621" on="0"/>
        <pt x="1094" y="608" on="1"/>
        <pt x="1092" y="618" on="1"/>
        <pt x="1152" y="607" on="0"/>
        <pt x="1258" y="545" on="0"/>
        <pt x="1324" y="434" on="0"/>
        <pt x="1324" y="350" on="1"/>
        <pt x="1324" y="240" on="0"/>
        <pt x="1191" y="74" on="0"/>
        <pt x="871" y="-18" on="0"/>
      </contour>
      <contour>
        <pt x="694" y="268" on="1"/>
        <pt x="776" y="268" on="0"/>
        <pt x="864" y="291" on="0"/>
        <pt x="898" y="335" on="0"/>
        <pt x="898" y="366" on="1"/>
        <pt x="898" y="416" on="0"/>
        <pt x="836" y="460" on="0"/>
        <pt x="752" y="460" on="1"/>
        <pt x="530" y="460" on="1"/>
        <pt x="530" y="752" on="1"/>
        <pt x="720" y="752" on="1"/>
        <pt x="797" y="752" on="0"/>
        <pt x="852" y="800" on="0"/>
        <pt x="852" y="836" on="1"/>
        <pt x="852" y="880" on="0"/>
        <pt x="789" y="922" on="0"/>
        <pt x="700" y="922" on="1"/>
        <pt x="676" y="922" on="0"/>
        <pt x="609" y="916" on="0"/>
        <pt x="576" y="910" on="1"/>
        <pt x="576" y="272" on="1"/>
        <pt x="611" y="269" on="0"/>
        <pt x="669" y="268" on="0"/>
      </contour>
    </TTGlyph>
    <TTGlyph name="backslash" xMin="0" yMin="-240" xMax="1058" yMax="1616">
      <contour>
        <pt x="592" y="-240" on="1"/>
        <pt x="0" y="1616" on="1"/>
        <pt x="466" y="1616" on="1"/>
        <pt x="1058" y="-240" on="1"/>
      </contour>
    </TTGlyph>
    <TTGlyph name="bar" xMin="130" yMin="-440" xMax="550" yMax="1616">
      <contour>
        <pt x="130" y="-440" on="1"/>
        <pt x="130" y="1616" on="1"/>
        <pt x="550" y="1616" on="1"/>
        <pt x="550" y="-440" on="1"/>
      </contour>
    </TTGlyph>
    <TTGlyph name="bar.tf" xMin="510" yMin="-440" xMax="930" yMax="1616">
      <contour>
        <pt x="510" y="-440" on="1"/>
        <pt x="510" y="1616" on="1"/>
        <pt x="930" y="1616" on="1"/>
        <pt x="930" y="-440" on="1"/>
      </contour>
    </TTGlyph>
    <TTGlyph name="braceleft" xMin="-2" yMin="-460" xMax="896" yMax="1636">
      <contour>
        <pt x="682" y="-460" on="1"/>
        <pt x="438" y="-460" on="0"/>
        <pt x="190" y="-234" on="0"/>
        <pt x="190" y="-26" on="1"/>
        <pt x="190" y="334" on="1"/>
        <pt x="190" y="387" on="0"/>
        <pt x="125" y="452" on="0"/>
        <pt x="72" y="452" on="1"/>
        <pt x="-2" y="452" on="1"/>
        <pt x="-2" y="812" on="1"/>
        <pt x="72" y="812" on="1"/>
        <pt x="125" y="812" on="0"/>
        <pt x="190" y="878" on="0"/>
        <pt x="190" y="930" on="1"/>
        <pt x="190" y="1202" on="1"/>
        <pt x="190" y="1411" on="0"/>
        <pt x="438" y="1636" on="0"/>
        <pt x="682" y="1636" on="1"/>
        <pt x="745" y="1636" on="0"/>
        <pt x="850" y="1628" on="0"/>
        <pt x="896" y="1622" on="1"/>
        <pt x="896" y="1270" on="1"/>
        <pt x="770" y="1270" on="1"/>
        <pt x="713" y="1270" on="0"/>
        <pt x="654" y="1225" on="0"/>
        <pt x="654" y="1166" on="1"/>
        <pt x="654" y="912" on="1"/>
        <pt x="654" y="765" on="0"/>
        <pt x="461" y="608" on="0"/>
        <pt x="242" y="608" on="1"/>
        <pt x="242" y="656" on="1"/>
        <pt x="461" y="656" on="0"/>
        <pt x="654" y="499" on="0"/>
        <pt x="654" y="352" on="1"/>
        <pt x="654" y="10" on="1"/>
        <pt x="654" y="-48" on="0"/>
        <pt x="713" y="-94" on="0"/>
        <pt x="770" y="-94" on="1"/>
        <pt x="896" y="-94" on="1"/>
        <pt x="896" y="-446" on="1"/>
        <pt x="850" y="-452" on="0"/>
        <pt x="745" y="-460" on="0"/>
      </contour>
    </TTGlyph>
    <TTGlyph name="braceleft.sc" xMin="-2" yMin="-260" xMax="896" yMax="1500">
      <contour>
        <pt x="682" y="-260" on="1"/>
        <pt x="438" y="-260" on="0"/>
        <pt x="190" y="-34" on="0"/>
        <pt x="190" y="174" on="1"/>
        <pt x="190" y="334" on="1"/>
        <pt x="190" y="387" on="0"/>
        <pt x="125" y="452" on="0"/>
        <pt x="72" y="452" on="1"/>
        <pt x="-2" y="452" on="1"/>
        <pt x="-2" y="812" on="1"/>
        <pt x="72" y="812" on="1"/>
        <pt x="125" y="812" on="0"/>
        <pt x="190" y="878" on="0"/>
        <pt x="190" y="930" on="1"/>
        <pt x="190" y="1066" on="1"/>
        <pt x="190" y="1275" on="0"/>
        <pt x="438" y="1500" on="0"/>
        <pt x="682" y="1500" on="1"/>
        <pt x="745" y="1500" on="0"/>
        <pt x="850" y="1492" on="0"/>
        <pt x="896" y="1486" on="1"/>
        <pt x="896" y="1134" on="1"/>
        <pt x="760" y="1134" on="1"/>
        <pt x="703" y="1134" on="0"/>
        <pt x="644" y="1089" on="0"/>
        <pt x="644" y="1030" on="1"/>
        <pt x="644" y="912" on="1"/>
        <pt x="644" y="765" on="0"/>
        <pt x="454" y="608" on="0"/>
        <pt x="242" y="608" on="1"/>
        <pt x="242" y="656" on="1"/>
        <pt x="454" y="656" on="0"/>
        <pt x="644" y="499" on="0"/>
        <pt x="644" y="352" on="1"/>
        <pt x="644" y="210" on="1"/>
        <pt x="644" y="152" on="0"/>
        <pt x="703" y="106" on="0"/>
        <pt x="760" y="106" on="1"/>
        <pt x="896" y="106" on="1"/>
        <pt x="896" y="-246" on="1"/>
        <pt x="850" y="-252" on="0"/>
        <pt x="745" y="-260" on="0"/>
      </contour>
    </TTGlyph>
    <TTGlyph name="braceright" xMin="-22" yMin="-460" xMax="876" yMax="1636">
      <contour>
        <pt x="192" y="-460" on="1"/>
        <pt x="129" y="-460" on="0"/>
        <pt x="25" y="-452" on="0"/>
        <pt x="-22" y="-446" on="1"/>
        <pt x="-22" y="-94" on="1"/>
        <pt x="104" y="-94" on="1"/>
        <pt x="161" y="-94" on="0"/>
        <pt x="220" y="-48" on="0"/>
        <pt x="220" y="10" on="1"/>
        <pt x="220" y="352" on="1"/>
        <pt x="220" y="499" on="0"/>
        <pt x="413" y="656" on="0"/>
        <pt x="632" y="656" on="1"/>
        <pt x="632" y="608" on="1"/>
        <pt x="413" y="608" on="0"/>
        <pt x="220" y="765" on="0"/>
        <pt x="220" y="912" on="1"/>
        <pt x="220" y="1166" on="1"/>
        <pt x="220" y="1225" on="0"/>
        <pt x="161" y="1270" on="0"/>
        <pt x="104" y="1270" on="1"/>
        <pt x="-22" y="1270" on="1"/>
        <pt x="-22" y="1622" on="1"/>
        <pt x="25" y="1628" on="0"/>
        <pt x="129" y="1636" on="0"/>
        <pt x="192" y="1636" on="1"/>
        <pt x="437" y="1636" on="0"/>
        <pt x="684" y="1411" on="0"/>
        <pt x="684" y="1202" on="1"/>
        <pt x="684" y="930" on="1"/>
        <pt x="684" y="878" on="0"/>
        <pt x="750" y="812" on="0"/>
        <pt x="802" y="812" on="1"/>
        <pt x="876" y="812" on="1"/>
        <pt x="876" y="452" on="1"/>
        <pt x="802" y="452" on="1"/>
        <pt x="750" y="452" on="0"/>
        <pt x="684" y="387" on="0"/>
        <pt x="684" y="334" on="1"/>
        <pt x="684" y="-26" on="1"/>
        <pt x="684" y="-234" on="0"/>
        <pt x="437" y="-460" on="0"/>
      </contour>
    </TTGlyph>
    <TTGlyph name="braceright.sc" xMin="-22" yMin="-260" xMax="876" yMax="1500">
      <contour>
        <pt x="192" y="-260" on="1"/>
        <pt x="129" y="-260" on="0"/>
        <pt x="25" y="-252" on="0"/>
        <pt x="-22" y="-246" on="1"/>
        <pt x="-22" y="106" on="1"/>
        <pt x="114" y="106" on="1"/>
        <pt x="171" y="106" on="0"/>
        <pt x="230" y="152" on="0"/>
        <pt x="230" y="210" on="1"/>
        <pt x="230" y="352" on="1"/>
        <pt x="230" y="499" on="0"/>
        <pt x="421" y="656" on="0"/>
        <pt x="632" y="656" on="1"/>
        <pt x="632" y="608" on="1"/>
        <pt x="421" y="608" on="0"/>
        <pt x="230" y="765" on="0"/>
        <pt x="230" y="912" on="1"/>
        <pt x="230" y="1030" on="1"/>
        <pt x="230" y="1089" on="0"/>
        <pt x="171" y="1134" on="0"/>
        <pt x="114" y="1134" on="1"/>
        <pt x="-22" y="1134" on="1"/>
        <pt x="-22" y="1486" on="1"/>
        <pt x="25" y="1492" on="0"/>
        <pt x="129" y="1500" on="0"/>
        <pt x="192" y="1500" on="1"/>
        <pt x="437" y="1500" on="0"/>
        <pt x="684" y="1275" on="0"/>
        <pt x="684" y="1066" on="1"/>
        <pt x="684" y="930" on="1"/>
        <pt x="684" y="878" on="0"/>
        <pt x="750" y="812" on="0"/>
        <pt x="802" y="812" on="1"/>
        <pt x="876" y="812" on="1"/>
        <pt x="876" y="452" on="1"/>
        <pt x="802" y="452" on="1"/>
        <pt x="750" y="452" on="0"/>
        <pt x="684" y="387" on="0"/>
        <pt x="684" y="334" on="1"/>
        <pt x="684" y="174" on="1"/>
        <pt x="684" y="-34" on="0"/>
        <pt x="437" y="-260" on="0"/>
      </contour>
    </TTGlyph>
    <TTGlyph name="bracketleft" xMin="150" yMin="-440" xMax="856" yMax="1616">
      <contour>
        <pt x="150" y="-440" on="1"/>
        <pt x="150" y="1616" on="1"/>
        <pt x="856" y="1616" on="1"/>
        <pt x="856" y="1256" on="1"/>
        <pt x="614" y="1256" on="1"/>
        <pt x="614" y="-80" on="1"/>
        <pt x="836" y="-80" on="1"/>
        <pt x="836" y="-440" on="1"/>
      </contour>
    </TTGlyph>
    <TTGlyph name="bracketleft.sc" xMin="150" yMin="-240" xMax="856" yMax="1480">
      <contour>
        <pt x="150" y="-240" on="1"/>
        <pt x="150" y="1480" on="1"/>
        <pt x="856" y="1480" on="1"/>
        <pt x="856" y="1120" on="1"/>
        <pt x="604" y="1120" on="1"/>
        <pt x="604" y="120" on="1"/>
        <pt x="836" y="120" on="1"/>
        <pt x="836" y="-240" on="1"/>
      </contour>
    </TTGlyph>
    <TTGlyph name="bracketright" xMin="-22" yMin="-440" xMax="684" yMax="1616">
      <contour>
        <pt x="-2" y="-440" on="1"/>
        <pt x="-2" y="-80" on="1"/>
        <pt x="220" y="-80" on="1"/>
        <pt x="220" y="1256" on="1"/>
        <pt x="-22" y="1256" on="1"/>
        <pt x="-22" y="1616" on="1"/>
        <pt x="684" y="1616" on="1"/>
        <pt x="684" y="-440" on="1"/>
      </contour>
    </TTGlyph>
    <TTGlyph name="bracketright.sc" xMin="-22" yMin="-240" xMax="684" yMax="1480">
      <contour>
        <pt x="-2" y="-240" on="1"/>
        <pt x="-2" y="120" on="1"/>
        <pt x="230" y="120" on="1"/>
        <pt x="230" y="1120" on="1"/>
        <pt x="-22" y="1120" on="1"/>
        <pt x="-22" y="1480" on="1"/>
        <pt x="684" y="1480" on="1"/>
        <pt x="684" y="-240" on="1"/>
      </contour>
    </TTGlyph>
    <TTGlyph name="breve" xMin="140" yMin="1224" xMax="1060" yMax="1596">
      <component glyphName="uni0306" x="0" y="0" flags="0x4"/>
    </TTGlyph>
    <TTGlyph name="brokenbar" xMin="130" yMin="-440" xMax="550" yMax="1616">
      <contour>
        <pt x="130" y="836" on="1"/>
        <pt x="130" y="1616" on="1"/>
        <pt x="550" y="1616" on="1"/>
        <pt x="550" y="836" on="1"/>
      </contour>
      <contour>
        <pt x="130" y="-440" on="1"/>
        <pt x="130" y="340" on="1"/>
        <pt x="550" y="340" on="1"/>
        <pt x="550" y="-440" on="1"/>
      </contour>
    </TTGlyph>
    <TTGlyph name="brokenbar.tf" xMin="510" yMin="-440" xMax="930" yMax="1616">
      <contour>
        <pt x="510" y="836" on="1"/>
        <pt x="510" y="1616" on="1"/>
        <pt x="930" y="1616" on="1"/>
        <pt x="930" y="836" on="1"/>
      </contour>
      <contour>
        <pt x="510" y="-440" on="1"/>
        <pt x="510" y="340" on="1"/>
        <pt x="930" y="340" on="1"/>
        <pt x="930" y="-440" on="1"/>
      </contour>
    </TTGlyph>
    <TTGlyph name="bullet" xMin="58" yMin="200" xMax="778" yMax="920">
      <contour>
        <pt x="418" y="200" on="1"/>
        <pt x="317" y="200" on="0"/>
        <pt x="154" y="293" on="0"/>
        <pt x="58" y="456" on="0"/>
        <pt x="58" y="560" on="1"/>
        <pt x="58" y="665" on="0"/>
        <pt x="154" y="828" on="0"/>
        <pt x="318" y="920" on="0"/>
        <pt x="418" y="920" on="1"/>
        <pt x="519" y="920" on="0"/>
        <pt x="682" y="828" on="0"/>
        <pt x="778" y="665" on="0"/>
        <pt x="778" y="560" on="1"/>
        <pt x="778" y="456" on="0"/>
        <pt x="682" y="293" on="0"/>
        <pt x="519" y="200" on="0"/>
      </contour>
    </TTGlyph>
    <TTGlyph name="c" xMin="66" yMin="-22" xMax="1126" yMax="1118">
      <contour>
        <pt x="792" y="-22" on="1"/>
        <pt x="555" y="-22" on="0"/>
        <pt x="232" y="112" on="0"/>
        <pt x="66" y="366" on="0"/>
        <pt x="66" y="546" on="1"/>
        <pt x="66" y="726" on="0"/>
        <pt x="236" y="982" on="0"/>
        <pt x="568" y="1118" on="0"/>
        <pt x="812" y="1118" on="1"/>
        <pt x="902" y="1118" on="0"/>
        <pt x="1057" y="1103" on="0"/>
        <pt x="1126" y="1088" on="1"/>
        <pt x="1126" y="740" on="1"/>
        <pt x="1053" y="751" on="0"/>
        <pt x="929" y="762" on="0"/>
        <pt x="860" y="762" on="1"/>
        <pt x="745" y="762" on="0"/>
        <pt x="603" y="712" on="0"/>
        <pt x="538" y="615" on="0"/>
        <pt x="538" y="546" on="1"/>
        <pt x="538" y="478" on="0"/>
        <pt x="606" y="383" on="0"/>
        <pt x="740" y="334" on="0"/>
        <pt x="840" y="334" on="1"/>
        <pt x="908" y="334" on="0"/>
        <pt x="1033" y="350" on="0"/>
        <pt x="1126" y="368" on="1"/>
        <pt x="1126" y="20" on="1"/>
        <pt x="1065" y="2" on="0"/>
        <pt x="893" y="-22" on="0"/>
      </contour>
    </TTGlyph>
    <TTGlyph name="c.sc" xMin="64" yMin="-16" xMax="1242" yMax="1206">
      <contour>
        <pt x="932" y="-16" on="1"/>
        <pt x="639" y="-16" on="0"/>
        <pt x="254" y="127" on="0"/>
        <pt x="64" y="399" on="0"/>
        <pt x="64" y="592" on="1"/>
        <pt x="64" y="774" on="0"/>
        <pt x="258" y="1051" on="0"/>
        <pt x="647" y="1206" on="0"/>
        <pt x="940" y="1206" on="1"/>
        <pt x="1015" y="1206" on="0"/>
        <pt x="1170" y="1196" on="0"/>
        <pt x="1242" y="1184" on="1"/>
        <pt x="1242" y="832" on="1"/>
        <pt x="1182" y="841" on="0"/>
        <pt x="1053" y="852" on="0"/>
        <pt x="982" y="852" on="1"/>
        <pt x="825" y="852" on="0"/>
        <pt x="640" y="789" on="0"/>
        <pt x="560" y="673" on="0"/>
        <pt x="560" y="594" on="1"/>
        <pt x="560" y="518" on="0"/>
        <pt x="638" y="403" on="0"/>
        <pt x="815" y="338" on="0"/>
        <pt x="964" y="338" on="1"/>
        <pt x="1041" y="338" on="0"/>
        <pt x="1185" y="355" on="0"/>
        <pt x="1242" y="364" on="1"/>
        <pt x="1242" y="12" on="1"/>
        <pt x="1175" y="0" on="0"/>
        <pt x="1009" y="-16" on="0"/>
      </contour>
    </TTGlyph>
    <TTGlyph name="cacute" xMin="66" yMin="-22" xMax="1194" yMax="1616">
      <component glyphName="c" x="0" y="0" flags="0x204"/>
      <component glyphName="acutecomb" x="48" y="0" flags="0x4"/>
    </TTGlyph>
    <TTGlyph name="cacute.sc" xMin="64" yMin="-16" xMax="1250" yMax="1612">
      <component glyphName="c.sc" x="0" y="0" flags="0x204"/>
      <component glyphName="acutecomb.sc" x="172" y="-290" flags="0x4"/>
    </TTGlyph>
    <TTGlyph name="caron" xMin="136" yMin="1220" xMax="1064" yMax="1616">
      <component glyphName="uni030C" x="0" y="0" flags="0x4"/>
    </TTGlyph>
    <TTGlyph name="caron.alt" xMin="564" yMin="1180" xMax="894" yMax="1616">
      <component glyphName="uni030C.alt" x="0" y="0" flags="0x4"/>
    </TTGlyph>
    <TTGlyph name="ccaron" xMin="66" yMin="-22" xMax="1126" yMax="1616">
      <component glyphName="c" x="0" y="0" flags="0x204"/>
      <component glyphName="uni030C" x="48" y="0" flags="0x4"/>
    </TTGlyph>
    <TTGlyph name="ccaron.sc" xMin="64" yMin="-16" xMax="1296" yMax="1612">
      <component glyphName="c.sc" x="0" y="0" flags="0x204"/>
      <component glyphName="uni030C.sc" x="172" y="-290" flags="0x4"/>
    </TTGlyph>
    <TTGlyph name="ccedilla" xMin="66" yMin="-460" xMax="1126" yMax="1118">
      <component glyphName="c" x="0" y="0" flags="0x204"/>
      <component glyphName="uni0327" x="76" y="0" flags="0x4"/>
    </TTGlyph>
    <TTGlyph name="ccedilla.sc" xMin="64" yMin="-460" xMax="1242" yMax="1206">
      <component glyphName="c.sc" x="0" y="0" flags="0x204"/>
      <component glyphName="uni0327.sc" x="168" y="0" flags="0x4"/>
    </TTGlyph>
    <TTGlyph name="ccircumflex" xMin="66" yMin="-22" xMax="1126" yMax="1616">
      <component glyphName="c" x="0" y="0" flags="0x204"/>
      <component glyphName="uni0302" x="48" y="0" flags="0x4"/>
    </TTGlyph>
    <TTGlyph name="ccircumflex.sc" xMin="64" yMin="-16" xMax="1296" yMax="1612">
      <component glyphName="c.sc" x="0" y="0" flags="0x204"/>
      <component glyphName="uni0302.sc" x="172" y="-290" flags="0x4"/>
    </TTGlyph>
    <TTGlyph name="cdotaccent" xMin="66" yMin="-22" xMax="1126" yMax="1630">
      <component glyphName="c" x="0" y="0" flags="0x204"/>
      <component glyphName="uni0307" x="48" y="0" flags="0x4"/>
    </TTGlyph>
    <TTGlyph name="cdotaccent.sc" xMin="64" yMin="-16" xMax="1242" yMax="1640">
      <component glyphName="c.sc" x="0" y="0" flags="0x204"/>
      <component glyphName="uni0307.sc" x="172" y="-290" flags="0x4"/>
    </TTGlyph>
    <TTGlyph name="cedilla" xMin="386" yMin="-460" xMax="892" yMax="20">
      <component glyphName="uni0327" x="0" y="0" flags="0x4"/>
    </TTGlyph>
    <TTGlyph name="cent" xMin="66" yMin="-240" xMax="1126" yMax="1340">
      <contour>
        <pt x="792" y="-22" on="1"/>
        <pt x="555" y="-22" on="0"/>
        <pt x="232" y="112" on="0"/>
        <pt x="66" y="366" on="0"/>
        <pt x="66" y="546" on="1"/>
        <pt x="66" y="726" on="0"/>
        <pt x="236" y="982" on="0"/>
        <pt x="568" y="1118" on="0"/>
        <pt x="812" y="1118" on="1"/>
        <pt x="902" y="1118" on="0"/>
        <pt x="1057" y="1103" on="0"/>
        <pt x="1126" y="1088" on="1"/>
        <pt x="1126" y="740" on="1"/>
        <pt x="1053" y="751" on="0"/>
        <pt x="929" y="762" on="0"/>
        <pt x="860" y="762" on="1"/>
        <pt x="745" y="762" on="0"/>
        <pt x="603" y="712" on="0"/>
        <pt x="538" y="615" on="0"/>
        <pt x="538" y="546" on="1"/>
        <pt x="538" y="478" on="0"/>
        <pt x="606" y="383" on="0"/>
        <pt x="740" y="334" on="0"/>
        <pt x="840" y="334" on="1"/>
        <pt x="908" y="334" on="0"/>
        <pt x="1033" y="350" on="0"/>
        <pt x="1126" y="368" on="1"/>
        <pt x="1126" y="20" on="1"/>
        <pt x="1065" y="2" on="0"/>
        <pt x="893" y="-22" on="0"/>
      </contour>
      <contour>
        <pt x="536" y="-240" on="1"/>
        <pt x="536" y="60" on="1"/>
        <pt x="936" y="60" on="1"/>
        <pt x="936" y="-240" on="1"/>
      </contour>
      <contour>
        <pt x="536" y="1040" on="1"/>
        <pt x="536" y="1340" on="1"/>
        <pt x="936" y="1340" on="1"/>
        <pt x="936" y="1040" on="1"/>
      </contour>
    </TTGlyph>
    <TTGlyph name="cent.tf" xMin="130" yMin="-240" xMax="1312" yMax="1340">
      <contour>
        <pt x="938" y="-22" on="1"/>
        <pt x="541" y="-22" on="0"/>
        <pt x="130" y="276" on="0"/>
        <pt x="130" y="546" on="1"/>
        <pt x="130" y="816" on="0"/>
        <pt x="551" y="1118" on="0"/>
        <pt x="960" y="1118" on="1"/>
        <pt x="1059" y="1118" on="0"/>
        <pt x="1236" y="1100" on="0"/>
        <pt x="1312" y="1082" on="1"/>
        <pt x="1312" y="734" on="1"/>
        <pt x="1225" y="748" on="0"/>
        <pt x="1077" y="762" on="0"/>
        <pt x="990" y="762" on="1"/>
        <pt x="782" y="762" on="0"/>
        <pt x="602" y="650" on="0"/>
        <pt x="602" y="546" on="1"/>
        <pt x="602" y="444" on="0"/>
        <pt x="785" y="334" on="0"/>
        <pt x="966" y="334" on="1"/>
        <pt x="1052" y="334" on="0"/>
        <pt x="1201" y="353" on="0"/>
        <pt x="1312" y="374" on="1"/>
        <pt x="1312" y="26" on="1"/>
        <pt x="1245" y="5" on="0"/>
        <pt x="1054" y="-22" on="0"/>
      </contour>
      <contour>
        <pt x="660" y="-240" on="1"/>
        <pt x="660" y="60" on="1"/>
        <pt x="1060" y="60" on="1"/>
        <pt x="1060" y="-240" on="1"/>
      </contour>
      <contour>
        <pt x="660" y="1040" on="1"/>
        <pt x="660" y="1340" on="1"/>
        <pt x="1060" y="1340" on="1"/>
        <pt x="1060" y="1040" on="1"/>
      </contour>
    </TTGlyph>
    <TTGlyph name="circumflex" xMin="136" yMin="1220" xMax="1064" yMax="1616">
      <component glyphName="uni0302" x="0" y="0" flags="0x4"/>
    </TTGlyph>
    <TTGlyph name="colon" xMin="58" yMin="-20" xMax="638" yMax="1120">
      <component glyphName="period" x="0" y="0" flags="0x204"/>
      <component glyphName="period" x="0" y="628" flags="0x4"/>
    </TTGlyph>
    <TTGlyph name="colon.tf" xMin="70" yMin="-20" xMax="650" yMax="1120">
      <contour>
        <pt x="361" y="-20" on="1"/>
        <pt x="224" y="-20" on="0"/>
        <pt x="70" y="118" on="0"/>
        <pt x="70" y="236" on="1"/>
        <pt x="70" y="355" on="0"/>
        <pt x="221" y="492" on="0"/>
        <pt x="361" y="492" on="1"/>
        <pt x="500" y="492" on="0"/>
        <pt x="650" y="352" on="0"/>
        <pt x="650" y="236" on="1"/>
        <pt x="650" y="121" on="0"/>
        <pt x="497" y="-20" on="0"/>
      </contour>
      <contour>
        <pt x="361" y="608" on="1"/>
        <pt x="224" y="608" on="0"/>
        <pt x="70" y="746" on="0"/>
        <pt x="70" y="864" on="1"/>
        <pt x="70" y="983" on="0"/>
        <pt x="221" y="1120" on="0"/>
        <pt x="361" y="1120" on="1"/>
        <pt x="500" y="1120" on="0"/>
        <pt x="650" y="980" on="0"/>
        <pt x="650" y="864" on="1"/>
        <pt x="650" y="749" on="0"/>
        <pt x="497" y="608" on="0"/>
      </contour>
    </TTGlyph>
    <TTGlyph name="colonmonetary" xMin="84" yMin="-240" xMax="1416" yMax="1720">
      <contour>
        <pt x="1048" y="-20" on="1"/>
        <pt x="728" y="-20" on="0"/>
        <pt x="299" y="152" on="0"/>
        <pt x="84" y="489" on="0"/>
        <pt x="84" y="736" on="1"/>
        <pt x="84" y="969" on="0"/>
        <pt x="303" y="1312" on="0"/>
        <pt x="736" y="1500" on="0"/>
        <pt x="1058" y="1500" on="1"/>
        <pt x="1153" y="1500" on="0"/>
        <pt x="1331" y="1485" on="0"/>
        <pt x="1416" y="1468" on="1"/>
        <pt x="1416" y="1092" on="1"/>
        <pt x="1343" y="1106" on="0"/>
        <pt x="1185" y="1120" on="0"/>
        <pt x="1098" y="1120" on="1"/>
        <pt x="913" y="1120" on="0"/>
        <pt x="686" y="1032" on="0"/>
        <pt x="582" y="862" on="0"/>
        <pt x="582" y="740" on="1"/>
        <pt x="582" y="618" on="0"/>
        <pt x="684" y="448" on="0"/>
        <pt x="903" y="360" on="0"/>
        <pt x="1078" y="360" on="1"/>
        <pt x="1171" y="360" on="0"/>
        <pt x="1343" y="381" on="0"/>
        <pt x="1416" y="396" on="1"/>
        <pt x="1416" y="20" on="1"/>
        <pt x="1335" y="2" on="0"/>
        <pt x="1144" y="-20" on="0"/>
      </contour>
      <contour>
        <pt x="536" y="302" on="1"/>
        <pt x="352" y="-240" on="1"/>
        <pt x="84" y="-240" on="1"/>
        <pt x="318" y="450" on="1"/>
      </contour>
      <contour>
        <pt x="892" y="178" on="1"/>
        <pt x="750" y="-240" on="1"/>
        <pt x="482" y="-240" on="1"/>
        <pt x="646" y="244" on="1"/>
      </contour>
      <contour>
        <pt x="578" y="1216" on="1"/>
        <pt x="750" y="1720" on="1"/>
        <pt x="1018" y="1720" on="1"/>
        <pt x="846" y="1216" on="1"/>
      </contour>
      <contour>
        <pt x="976" y="1216" on="1"/>
        <pt x="1148" y="1720" on="1"/>
        <pt x="1416" y="1720" on="1"/>
        <pt x="1244" y="1216" on="1"/>
      </contour>
    </TTGlyph>
    <TTGlyph name="colonmonetary.tf" xMin="60" yMin="-240" xMax="1352" yMax="1720">
      <contour>
        <pt x="996" y="-20" on="1"/>
        <pt x="685" y="-20" on="0"/>
        <pt x="269" y="152" on="0"/>
        <pt x="60" y="489" on="0"/>
        <pt x="60" y="736" on="1"/>
        <pt x="60" y="969" on="0"/>
        <pt x="272" y="1312" on="0"/>
        <pt x="692" y="1500" on="0"/>
        <pt x="1004" y="1500" on="1"/>
        <pt x="1096" y="1500" on="0"/>
        <pt x="1270" y="1485" on="0"/>
        <pt x="1352" y="1468" on="1"/>
        <pt x="1352" y="1092" on="1"/>
        <pt x="1282" y="1106" on="0"/>
        <pt x="1133" y="1120" on="0"/>
        <pt x="1050" y="1120" on="1"/>
        <pt x="873" y="1120" on="0"/>
        <pt x="657" y="1032" on="0"/>
        <pt x="558" y="862" on="0"/>
        <pt x="558" y="740" on="1"/>
        <pt x="558" y="618" on="0"/>
        <pt x="655" y="448" on="0"/>
        <pt x="863" y="360" on="0"/>
        <pt x="1030" y="360" on="1"/>
        <pt x="1119" y="360" on="0"/>
        <pt x="1282" y="381" on="0"/>
        <pt x="1352" y="396" on="1"/>
        <pt x="1352" y="20" on="1"/>
        <pt x="1274" y="2" on="0"/>
        <pt x="1089" y="-20" on="0"/>
      </contour>
      <contour>
        <pt x="60" y="-240" on="1"/>
        <pt x="316" y="562" on="1"/>
        <pt x="520" y="358" on="1"/>
        <pt x="328" y="-240" on="1"/>
      </contour>
      <contour>
        <pt x="458" y="-240" on="1"/>
        <pt x="614" y="248" on="1"/>
        <pt x="870" y="210" on="1"/>
        <pt x="726" y="-240" on="1"/>
      </contour>
      <contour>
        <pt x="536" y="1250" on="1"/>
        <pt x="686" y="1720" on="1"/>
        <pt x="954" y="1720" on="1"/>
        <pt x="804" y="1250" on="1"/>
      </contour>
      <contour>
        <pt x="934" y="1250" on="1"/>
        <pt x="1084" y="1720" on="1"/>
        <pt x="1352" y="1720" on="1"/>
        <pt x="1202" y="1250" on="1"/>
      </contour>
    </TTGlyph>
    <TTGlyph name="comma" xMin="58" yMin="-360" xMax="634" yMax="492">
      <contour>
        <pt x="168" y="-360" on="1"/>
        <pt x="231" y="-244" on="0"/>
        <pt x="300" y="-48" on="0"/>
        <pt x="300" y="52" on="1"/>
        <pt x="404" y="-20" on="1"/>
        <pt x="348" y="-20" on="1"/>
        <pt x="212" y="-20" on="0"/>
        <pt x="58" y="118" on="0"/>
        <pt x="58" y="236" on="1"/>
        <pt x="58" y="355" on="0"/>
        <pt x="207" y="492" on="0"/>
        <pt x="342" y="492" on="1"/>
        <pt x="486" y="492" on="0"/>
        <pt x="634" y="325" on="0"/>
        <pt x="634" y="160" on="1"/>
        <pt x="634" y="22" on="0"/>
        <pt x="522" y="-253" on="0"/>
        <pt x="426" y="-360" on="1"/>
      </contour>
    </TTGlyph>
    <TTGlyph name="comma.tf" xMin="70" yMin="-360" xMax="646" yMax="492">
      <contour>
        <pt x="180" y="-360" on="1"/>
        <pt x="243" y="-244" on="0"/>
        <pt x="312" y="-48" on="0"/>
        <pt x="312" y="52" on="1"/>
        <pt x="416" y="-20" on="1"/>
        <pt x="360" y="-20" on="1"/>
        <pt x="224" y="-20" on="0"/>
        <pt x="70" y="118" on="0"/>
        <pt x="70" y="236" on="1"/>
        <pt x="70" y="355" on="0"/>
        <pt x="219" y="492" on="0"/>
        <pt x="354" y="492" on="1"/>
        <pt x="498" y="492" on="0"/>
        <pt x="646" y="325" on="0"/>
        <pt x="646" y="160" on="1"/>
        <pt x="646" y="22" on="0"/>
        <pt x="534" y="-253" on="0"/>
        <pt x="438" y="-360" on="1"/>
      </contour>
    </TTGlyph>
    <TTGlyph name="copyright" xMin="84" yMin="-22" xMax="1584" yMax="1502">
      <contour>
        <pt x="834" y="-22" on="1"/>
        <pt x="608" y="-22" on="0"/>
        <pt x="271" y="168" on="0"/>
        <pt x="84" y="511" on="0"/>
        <pt x="84" y="740" on="1"/>
        <pt x="84" y="969" on="0"/>
        <pt x="271" y="1312" on="0"/>
        <pt x="608" y="1502" on="0"/>
        <pt x="834" y="1502" on="1"/>
        <pt x="1060" y="1502" on="0"/>
        <pt x="1397" y="1312" on="0"/>
        <pt x="1584" y="969" on="0"/>
        <pt x="1584" y="740" on="1"/>
        <pt x="1584" y="511" on="0"/>
        <pt x="1397" y="168" on="0"/>
        <pt x="1060" y="-22" on="0"/>
      </contour>
      <contour>
        <pt x="904" y="324" on="1"/>
        <pt x="700" y="324" on="0"/>
        <pt x="458" y="539" on="0"/>
        <pt x="458" y="732" on="1"/>
        <pt x="458" y="927" on="0"/>
        <pt x="706" y="1144" on="0"/>
        <pt x="916" y="1144" on="1"/>
        <pt x="972" y="1144" on="0"/>
        <pt x="1066" y="1133" on="0"/>
        <pt x="1108" y="1122" on="1"/>
        <pt x="1108" y="872" on="1"/>
        <pt x="1063" y="880" on="0"/>
        <pt x="986" y="888" on="0"/>
        <pt x="944" y="888" on="1"/>
        <pt x="847" y="888" on="0"/>
        <pt x="758" y="807" on="0"/>
        <pt x="758" y="732" on="1"/>
        <pt x="758" y="659" on="0"/>
        <pt x="848" y="580" on="0"/>
        <pt x="932" y="580" on="1"/>
        <pt x="974" y="580" on="0"/>
        <pt x="1050" y="591" on="0"/>
        <pt x="1108" y="604" on="1"/>
        <pt x="1108" y="354" on="1"/>
        <pt x="1071" y="341" on="0"/>
        <pt x="966" y="324" on="0"/>
      </contour>
      <contour>
        <pt x="834" y="190" on="1"/>
        <pt x="1003" y="190" on="0"/>
        <pt x="1239" y="323" on="0"/>
        <pt x="1362" y="570" on="0"/>
        <pt x="1362" y="740" on="1"/>
        <pt x="1362" y="910" on="0"/>
        <pt x="1239" y="1157" on="0"/>
        <pt x="1003" y="1290" on="0"/>
        <pt x="834" y="1290" on="1"/>
        <pt x="665" y="1290" on="0"/>
        <pt x="429" y="1157" on="0"/>
        <pt x="306" y="910" on="0"/>
        <pt x="306" y="740" on="1"/>
        <pt x="306" y="570" on="0"/>
        <pt x="429" y="323" on="0"/>
        <pt x="665" y="190" on="0"/>
      </contour>
    </TTGlyph>
    <TTGlyph name="currency" xMin="118" yMin="138" xMax="1322" yMax="1342">
      <contour>
        <pt x="496" y="800" on="1"/>
        <pt x="260" y="1004" on="1"/>
        <pt x="118" y="1144" on="1"/>
        <pt x="316" y="1342" on="1"/>
        <pt x="456" y="1200" on="1"/>
        <pt x="660" y="964" on="1"/>
      </contour>
      <contour>
        <pt x="944" y="800" on="1"/>
        <pt x="780" y="964" on="1"/>
        <pt x="984" y="1200" on="1"/>
        <pt x="1124" y="1342" on="1"/>
        <pt x="1322" y="1144" on="1"/>
        <pt x="1180" y="1004" on="1"/>
      </contour>
      <contour>
        <pt x="1124" y="138" on="1"/>
        <pt x="984" y="280" on="1"/>
        <pt x="780" y="516" on="1"/>
        <pt x="944" y="680" on="1"/>
        <pt x="1180" y="476" on="1"/>
        <pt x="1322" y="336" on="1"/>
      </contour>
      <contour>
        <pt x="316" y="138" on="1"/>
        <pt x="118" y="336" on="1"/>
        <pt x="260" y="476" on="1"/>
        <pt x="496" y="680" on="1"/>
        <pt x="660" y="516" on="1"/>
        <pt x="456" y="280" on="1"/>
      </contour>
      <contour>
        <pt x="720" y="356" on="1"/>
        <pt x="610" y="356" on="0"/>
        <pt x="433" y="452" on="0"/>
        <pt x="330" y="625" on="0"/>
        <pt x="330" y="740" on="1"/>
        <pt x="330" y="854" on="0"/>
        <pt x="433" y="1026" on="0"/>
        <pt x="610" y="1122" on="0"/>
        <pt x="720" y="1122" on="1"/>
        <pt x="830" y="1122" on="0"/>
        <pt x="1007" y="1026" on="0"/>
        <pt x="1110" y="854" on="0"/>
        <pt x="1110" y="740" on="1"/>
        <pt x="1110" y="625" on="0"/>
        <pt x="1007" y="452" on="0"/>
        <pt x="830" y="356" on="0"/>
      </contour>
      <contour>
        <pt x="720" y="580" on="1"/>
        <pt x="783" y="580" on="0"/>
        <pt x="868" y="665" on="0"/>
        <pt x="868" y="740" on="1"/>
        <pt x="868" y="809" on="0"/>
        <pt x="787" y="900" on="0"/>
        <pt x="722" y="900" on="1"/>
        <pt x="658" y="900" on="0"/>
        <pt x="572" y="815" on="0"/>
        <pt x="572" y="740" on="1"/>
        <pt x="572" y="665" on="0"/>
        <pt x="657" y="580" on="0"/>
      </contour>
    </TTGlyph>
    <TTGlyph name="currency.tf" xMin="118" yMin="138" xMax="1322" yMax="1342">
      <contour>
        <pt x="496" y="800" on="1"/>
        <pt x="260" y="1004" on="1"/>
        <pt x="118" y="1144" on="1"/>
        <pt x="316" y="1342" on="1"/>
        <pt x="456" y="1200" on="1"/>
        <pt x="660" y="964" on="1"/>
      </contour>
      <contour>
        <pt x="944" y="800" on="1"/>
        <pt x="780" y="964" on="1"/>
        <pt x="984" y="1200" on="1"/>
        <pt x="1124" y="1342" on="1"/>
        <pt x="1322" y="1144" on="1"/>
        <pt x="1180" y="1004" on="1"/>
      </contour>
      <contour>
        <pt x="1124" y="138" on="1"/>
        <pt x="984" y="280" on="1"/>
        <pt x="780" y="516" on="1"/>
        <pt x="944" y="680" on="1"/>
        <pt x="1180" y="476" on="1"/>
        <pt x="1322" y="336" on="1"/>
      </contour>
      <contour>
        <pt x="316" y="138" on="1"/>
        <pt x="118" y="336" on="1"/>
        <pt x="260" y="476" on="1"/>
        <pt x="496" y="680" on="1"/>
        <pt x="660" y="516" on="1"/>
        <pt x="456" y="280" on="1"/>
      </contour>
      <contour>
        <pt x="720" y="356" on="1"/>
        <pt x="610" y="356" on="0"/>
        <pt x="433" y="452" on="0"/>
        <pt x="330" y="625" on="0"/>
        <pt x="330" y="740" on="1"/>
        <pt x="330" y="854" on="0"/>
        <pt x="433" y="1026" on="0"/>
        <pt x="610" y="1122" on="0"/>
        <pt x="720" y="1122" on="1"/>
        <pt x="830" y="1122" on="0"/>
        <pt x="1007" y="1026" on="0"/>
        <pt x="1110" y="854" on="0"/>
        <pt x="1110" y="740" on="1"/>
        <pt x="1110" y="625" on="0"/>
        <pt x="1007" y="452" on="0"/>
        <pt x="830" y="356" on="0"/>
      </contour>
      <contour>
        <pt x="720" y="580" on="1"/>
        <pt x="783" y="580" on="0"/>
        <pt x="868" y="665" on="0"/>
        <pt x="868" y="740" on="1"/>
        <pt x="868" y="809" on="0"/>
        <pt x="787" y="900" on="0"/>
        <pt x="722" y="900" on="1"/>
        <pt x="658" y="900" on="0"/>
        <pt x="572" y="815" on="0"/>
        <pt x="572" y="740" on="1"/>
        <pt x="572" y="665" on="0"/>
        <pt x="657" y="580" on="0"/>
      </contour>
    </TTGlyph>
    <TTGlyph name="d" xMin="66" yMin="-18" xMax="1374" yMax="1616">
      <contour>
        <pt x="602" y="-18" on="1"/>
        <pt x="457" y="-18" on="0"/>
        <pt x="213" y="94" on="0"/>
        <pt x="66" y="334" on="0"/>
        <pt x="66" y="526" on="1"/>
        <pt x="66" y="713" on="0"/>
        <pt x="231" y="980" on="0"/>
        <pt x="533" y="1122" on="0"/>
        <pt x="740" y="1122" on="1"/>
        <pt x="785" y="1122" on="0"/>
        <pt x="873" y="1117" on="0"/>
        <pt x="910" y="1114" on="1"/>
        <pt x="910" y="1616" on="1"/>
        <pt x="1374" y="1616" on="1"/>
        <pt x="1374" y="0" on="1"/>
        <pt x="988" y="0" on="1"/>
        <pt x="964" y="106" on="1"/>
        <pt x="944" y="106" on="1"/>
        <pt x="883" y="51" on="0"/>
        <pt x="712" y="-18" on="0"/>
      </contour>
      <contour>
        <pt x="732" y="346" on="1"/>
        <pt x="779" y="346" on="0"/>
        <pt x="874" y="369" on="0"/>
        <pt x="910" y="394" on="1"/>
        <pt x="910" y="768" on="1"/>
        <pt x="883" y="773" on="0"/>
        <pt x="813" y="780" on="0"/>
        <pt x="774" y="780" on="1"/>
        <pt x="647" y="780" on="0"/>
        <pt x="524" y="667" on="0"/>
        <pt x="524" y="556" on="1"/>
        <pt x="524" y="480" on="0"/>
        <pt x="576" y="388" on="0"/>
        <pt x="669" y="346" on="0"/>
      </contour>
    </TTGlyph>
    <TTGlyph name="d.sc" xMin="132" yMin="-12" xMax="1552" yMax="1202">
      <contour>
        <pt x="600" y="-12" on="1"/>
        <pt x="495" y="-12" on="0"/>
        <pt x="236" y="-2" on="0"/>
        <pt x="132" y="10" on="1"/>
        <pt x="132" y="1148" on="1"/>
        <pt x="203" y="1164" on="0"/>
        <pt x="391" y="1188" on="0"/>
        <pt x="588" y="1202" on="0"/>
        <pt x="672" y="1202" on="1"/>
        <pt x="1109" y="1202" on="0"/>
        <pt x="1552" y="909" on="0"/>
        <pt x="1552" y="594" on="1"/>
        <pt x="1552" y="373" on="0"/>
        <pt x="1341" y="107" on="0"/>
        <pt x="918" y="-12" on="0"/>
      </contour>
      <contour>
        <pt x="712" y="332" on="1"/>
        <pt x="841" y="332" on="0"/>
        <pt x="1001" y="387" on="0"/>
        <pt x="1076" y="504" on="0"/>
        <pt x="1076" y="598" on="1"/>
        <pt x="1076" y="689" on="0"/>
        <pt x="997" y="804" on="0"/>
        <pt x="835" y="858" on="0"/>
        <pt x="710" y="858" on="1"/>
        <pt x="688" y="858" on="0"/>
        <pt x="624" y="853" on="0"/>
        <pt x="604" y="850" on="1"/>
        <pt x="604" y="334" on="1"/>
        <pt x="631" y="333" on="0"/>
        <pt x="684" y="332" on="0"/>
      </contour>
    </TTGlyph>
    <TTGlyph name="dagger" xMin="58" yMin="160" xMax="1124" yMax="1616">
      <contour>
        <pt x="478" y="160" on="1"/>
        <pt x="446" y="380" on="1"/>
        <pt x="446" y="952" on="1"/>
        <pt x="478" y="1094" on="1"/>
        <pt x="258" y="1062" on="1"/>
        <pt x="58" y="1062" on="1"/>
        <pt x="58" y="1346" on="1"/>
        <pt x="258" y="1346" on="1"/>
        <pt x="478" y="1314" on="1"/>
        <pt x="446" y="1456" on="1"/>
        <pt x="446" y="1616" on="1"/>
        <pt x="736" y="1616" on="1"/>
        <pt x="736" y="1456" on="1"/>
        <pt x="704" y="1314" on="1"/>
        <pt x="924" y="1346" on="1"/>
        <pt x="1124" y="1346" on="1"/>
        <pt x="1124" y="1062" on="1"/>
        <pt x="924" y="1062" on="1"/>
        <pt x="704" y="1094" on="1"/>
        <pt x="736" y="952" on="1"/>
        <pt x="736" y="380" on="1"/>
        <pt x="704" y="160" on="1"/>
      </contour>
    </TTGlyph>
    <TTGlyph name="daggerdbl" xMin="58" yMin="160" xMax="1124" yMax="1616">
      <contour>
        <pt x="446" y="160" on="1"/>
        <pt x="446" y="320" on="1"/>
        <pt x="478" y="462" on="1"/>
        <pt x="258" y="430" on="1"/>
        <pt x="58" y="430" on="1"/>
        <pt x="58" y="714" on="1"/>
        <pt x="258" y="714" on="1"/>
        <pt x="478" y="682" on="1"/>
        <pt x="446" y="824" on="1"/>
        <pt x="446" y="952" on="1"/>
        <pt x="478" y="1094" on="1"/>
        <pt x="258" y="1062" on="1"/>
        <pt x="58" y="1062" on="1"/>
        <pt x="58" y="1346" on="1"/>
        <pt x="258" y="1346" on="1"/>
        <pt x="478" y="1314" on="1"/>
        <pt x="446" y="1456" on="1"/>
        <pt x="446" y="1616" on="1"/>
        <pt x="736" y="1616" on="1"/>
        <pt x="736" y="1456" on="1"/>
        <pt x="704" y="1314" on="1"/>
        <pt x="924" y="1346" on="1"/>
        <pt x="1124" y="1346" on="1"/>
        <pt x="1124" y="1062" on="1"/>
        <pt x="924" y="1062" on="1"/>
        <pt x="704" y="1094" on="1"/>
        <pt x="736" y="952" on="1"/>
        <pt x="736" y="824" on="1"/>
        <pt x="704" y="682" on="1"/>
        <pt x="924" y="714" on="1"/>
        <pt x="1124" y="714" on="1"/>
        <pt x="1124" y="430" on="1"/>
        <pt x="924" y="430" on="1"/>
        <pt x="704" y="462" on="1"/>
        <pt x="736" y="320" on="1"/>
        <pt x="736" y="160" on="1"/>
      </contour>
    </TTGlyph>
    <TTGlyph name="dcaron" xMin="66" yMin="-18" xMax="1768" yMax="1616">
      <component glyphName="d" x="0" y="0" flags="0x204"/>
      <component glyphName="uni030C.alt" x="874" y="0" flags="0x4"/>
    </TTGlyph>
    <TTGlyph name="dcaron.sc" xMin="132" yMin="-12" xMax="1552" yMax="1612">
      <component glyphName="d.sc" x="0" y="0" flags="0x204"/>
      <component glyphName="uni030C.sc" x="106" y="-290" flags="0x4"/>
    </TTGlyph>
    <TTGlyph name="dcroat" xMin="66" yMin="-18" xMax="1488" yMax="1616">
      <component glyphName="d" x="0" y="0" flags="0x204"/>
      <component glyphName="uni0335.d" x="234" y="256" flags="0x4"/>
    </TTGlyph>
    <TTGlyph name="dcroat.sc" xMin="2" yMin="-12" xMax="1552" yMax="1202">
      <component glyphName="eth.sc" x="0" y="0" flags="0x204"/>
    </TTGlyph>
    <TTGlyph name="degree" xMin="106" yMin="702" xMax="918" yMax="1500">
      <contour>
        <pt x="512" y="702" on="1"/>
        <pt x="395" y="702" on="0"/>
        <pt x="211" y="805" on="0"/>
        <pt x="106" y="985" on="0"/>
        <pt x="106" y="1102" on="1"/>
        <pt x="106" y="1218" on="0"/>
        <pt x="211" y="1398" on="0"/>
        <pt x="395" y="1500" on="0"/>
        <pt x="512" y="1500" on="1"/>
        <pt x="629" y="1500" on="0"/>
        <pt x="813" y="1398" on="0"/>
        <pt x="918" y="1218" on="0"/>
        <pt x="918" y="1102" on="1"/>
        <pt x="918" y="985" on="0"/>
        <pt x="813" y="805" on="0"/>
        <pt x="629" y="702" on="0"/>
      </contour>
      <contour>
        <pt x="513" y="950" on="1"/>
        <pt x="572" y="950" on="0"/>
        <pt x="654" y="1032" on="0"/>
        <pt x="654" y="1102" on="1"/>
        <pt x="654" y="1174" on="0"/>
        <pt x="571" y="1252" on="0"/>
        <pt x="513" y="1252" on="1"/>
        <pt x="454" y="1252" on="0"/>
        <pt x="370" y="1174" on="0"/>
        <pt x="370" y="1102" on="1"/>
        <pt x="370" y="1032" on="0"/>
        <pt x="452" y="950" on="0"/>
      </contour>
    </TTGlyph>
    <TTGlyph name="degree.tf" xMin="314" yMin="702" xMax="1126" yMax="1500">
      <contour>
        <pt x="720" y="702" on="1"/>
        <pt x="603" y="702" on="0"/>
        <pt x="420" y="805" on="0"/>
        <pt x="314" y="985" on="0"/>
        <pt x="314" y="1102" on="1"/>
        <pt x="314" y="1218" on="0"/>
        <pt x="420" y="1398" on="0"/>
        <pt x="603" y="1500" on="0"/>
        <pt x="720" y="1500" on="1"/>
        <pt x="837" y="1500" on="0"/>
        <pt x="1021" y="1398" on="0"/>
        <pt x="1126" y="1218" on="0"/>
        <pt x="1126" y="1102" on="1"/>
        <pt x="1126" y="985" on="0"/>
        <pt x="1021" y="805" on="0"/>
        <pt x="837" y="702" on="0"/>
      </contour>
      <contour>
        <pt x="721" y="950" on="1"/>
        <pt x="780" y="950" on="0"/>
        <pt x="862" y="1032" on="0"/>
        <pt x="862" y="1102" on="1"/>
        <pt x="862" y="1174" on="0"/>
        <pt x="779" y="1252" on="0"/>
        <pt x="721" y="1252" on="1"/>
        <pt x="662" y="1252" on="0"/>
        <pt x="578" y="1174" on="0"/>
        <pt x="578" y="1102" on="1"/>
        <pt x="578" y="1032" on="0"/>
        <pt x="660" y="950" on="0"/>
      </contour>
    </TTGlyph>
    <TTGlyph name="dieresis" xMin="80" yMin="1210" xMax="1120" yMax="1626">
      <component glyphName="uni0308" x="0" y="0" flags="0x4"/>
    </TTGlyph>
    <TTGlyph name="divide" xMin="114" yMin="54" xMax="1082" yMax="1466">
      <contour>
        <pt x="114" y="590" on="1"/>
        <pt x="114" y="930" on="1"/>
        <pt x="1082" y="930" on="1"/>
        <pt x="1082" y="590" on="1"/>
      </contour>
      <contour>
        <pt x="598" y="54" on="1"/>
        <pt x="472" y="54" on="0"/>
        <pt x="330" y="181" on="0"/>
        <pt x="330" y="290" on="1"/>
        <pt x="330" y="400" on="0"/>
        <pt x="469" y="526" on="0"/>
        <pt x="598" y="526" on="1"/>
        <pt x="727" y="526" on="0"/>
        <pt x="866" y="397" on="0"/>
        <pt x="866" y="290" on="1"/>
        <pt x="866" y="184" on="0"/>
        <pt x="724" y="54" on="0"/>
      </contour>
      <contour>
        <pt x="598" y="994" on="1"/>
        <pt x="472" y="994" on="0"/>
        <pt x="330" y="1121" on="0"/>
        <pt x="330" y="1230" on="1"/>
        <pt x="330" y="1340" on="0"/>
        <pt x="469" y="1466" on="0"/>
        <pt x="598" y="1466" on="1"/>
        <pt x="727" y="1466" on="0"/>
        <pt x="866" y="1337" on="0"/>
        <pt x="866" y="1230" on="1"/>
        <pt x="866" y="1124" on="0"/>
        <pt x="724" y="994" on="0"/>
      </contour>
    </TTGlyph>
    <TTGlyph name="divide.osf" xMin="114" yMin="-18" xMax="1082" yMax="1118">
      <contour>
        <pt x="114" y="400" on="1"/>
        <pt x="114" y="700" on="1"/>
        <pt x="1082" y="700" on="1"/>
        <pt x="1082" y="400" on="1"/>
      </contour>
      <contour>
        <pt x="598" y="-18" on="1"/>
        <pt x="474" y="-18" on="0"/>
        <pt x="342" y="91" on="0"/>
        <pt x="342" y="176" on="1"/>
        <pt x="342" y="262" on="0"/>
        <pt x="471" y="370" on="0"/>
        <pt x="598" y="370" on="1"/>
        <pt x="726" y="370" on="0"/>
        <pt x="854" y="259" on="0"/>
        <pt x="854" y="176" on="1"/>
        <pt x="854" y="94" on="0"/>
        <pt x="723" y="-18" on="0"/>
      </contour>
      <contour>
        <pt x="598" y="730" on="1"/>
        <pt x="474" y="730" on="0"/>
        <pt x="342" y="839" on="0"/>
        <pt x="342" y="924" on="1"/>
        <pt x="342" y="1010" on="0"/>
        <pt x="471" y="1118" on="0"/>
        <pt x="598" y="1118" on="1"/>
        <pt x="726" y="1118" on="0"/>
        <pt x="854" y="1007" on="0"/>
        <pt x="854" y="924" on="1"/>
        <pt x="854" y="842" on="0"/>
        <pt x="723" y="730" on="0"/>
      </contour>
    </TTGlyph>
    <TTGlyph name="divide.tf" xMin="236" yMin="54" xMax="1204" yMax="1466">
      <contour>
        <pt x="236" y="590" on="1"/>
        <pt x="236" y="930" on="1"/>
        <pt x="1204" y="930" on="1"/>
        <pt x="1204" y="590" on="1"/>
      </contour>
      <contour>
        <pt x="720" y="54" on="1"/>
        <pt x="594" y="54" on="0"/>
        <pt x="452" y="181" on="0"/>
        <pt x="452" y="290" on="1"/>
        <pt x="452" y="400" on="0"/>
        <pt x="591" y="526" on="0"/>
        <pt x="720" y="526" on="1"/>
        <pt x="849" y="526" on="0"/>
        <pt x="988" y="397" on="0"/>
        <pt x="988" y="290" on="1"/>
        <pt x="988" y="184" on="0"/>
        <pt x="846" y="54" on="0"/>
      </contour>
      <contour>
        <pt x="720" y="994" on="1"/>
        <pt x="594" y="994" on="0"/>
        <pt x="452" y="1121" on="0"/>
        <pt x="452" y="1230" on="1"/>
        <pt x="452" y="1340" on="0"/>
        <pt x="591" y="1466" on="0"/>
        <pt x="720" y="1466" on="1"/>
        <pt x="849" y="1466" on="0"/>
        <pt x="988" y="1337" on="0"/>
        <pt x="988" y="1230" on="1"/>
        <pt x="988" y="1124" on="0"/>
        <pt x="846" y="994" on="0"/>
      </contour>
    </TTGlyph>
    <TTGlyph name="divide.tosf" xMin="236" yMin="-18" xMax="1204" yMax="1118">
      <contour>
        <pt x="236" y="400" on="1"/>
        <pt x="236" y="700" on="1"/>
        <pt x="1204" y="700" on="1"/>
        <pt x="1204" y="400" on="1"/>
      </contour>
      <contour>
        <pt x="720" y="-18" on="1"/>
        <pt x="596" y="-18" on="0"/>
        <pt x="464" y="91" on="0"/>
        <pt x="464" y="176" on="1"/>
        <pt x="464" y="262" on="0"/>
        <pt x="593" y="370" on="0"/>
        <pt x="720" y="370" on="1"/>
        <pt x="848" y="370" on="0"/>
        <pt x="976" y="259" on="0"/>
        <pt x="976" y="176" on="1"/>
        <pt x="976" y="94" on="0"/>
        <pt x="845" y="-18" on="0"/>
      </contour>
      <contour>
        <pt x="720" y="730" on="1"/>
        <pt x="596" y="730" on="0"/>
        <pt x="464" y="839" on="0"/>
        <pt x="464" y="924" on="1"/>
        <pt x="464" y="1010" on="0"/>
        <pt x="593" y="1118" on="0"/>
        <pt x="720" y="1118" on="1"/>
        <pt x="848" y="1118" on="0"/>
        <pt x="976" y="1007" on="0"/>
        <pt x="976" y="924" on="1"/>
        <pt x="976" y="842" on="0"/>
        <pt x="845" y="730" on="0"/>
      </contour>
    </TTGlyph>
    <TTGlyph name="dollar" xMin="64" yMin="-240" xMax="1314" yMax="1720">
      <contour>
        <pt x="604" y="-20" on="1"/>
        <pt x="462" y="-20" on="0"/>
        <pt x="213" y="16" on="0"/>
        <pt x="106" y="44" on="1"/>
        <pt x="106" y="412" on="1"/>
        <pt x="176" y="390" on="0"/>
        <pt x="359" y="359" on="0"/>
        <pt x="537" y="342" on="0"/>
        <pt x="600" y="342" on="1"/>
        <pt x="703" y="342" on="0"/>
        <pt x="810" y="367" on="0"/>
        <pt x="848" y="412" on="0"/>
        <pt x="848" y="442" on="1"/>
        <pt x="848" y="481" on="0"/>
        <pt x="786" y="525" on="0"/>
        <pt x="682" y="544" on="1"/>
        <pt x="538" y="572" on="1"/>
        <pt x="282" y="622" on="0"/>
        <pt x="64" y="842" on="0"/>
        <pt x="64" y="1020" on="1"/>
        <pt x="64" y="1251" on="0"/>
        <pt x="438" y="1500" on="0"/>
        <pt x="820" y="1500" on="1"/>
        <pt x="939" y="1500" on="0"/>
        <pt x="1149" y="1476" on="0"/>
        <pt x="1228" y="1458" on="1"/>
        <pt x="1228" y="1090" on="1"/>
        <pt x="1153" y="1111" on="0"/>
        <pt x="939" y="1138" on="0"/>
        <pt x="844" y="1138" on="1"/>
        <pt x="716" y="1138" on="0"/>
        <pt x="580" y="1111" on="0"/>
        <pt x="530" y="1065" on="0"/>
        <pt x="530" y="1036" on="1"/>
        <pt x="530" y="1002" on="0"/>
        <pt x="582" y="963" on="0"/>
        <pt x="664" y="946" on="1"/>
        <pt x="808" y="918" on="1"/>
        <pt x="995" y="882" on="0"/>
        <pt x="1217" y="758" on="0"/>
        <pt x="1314" y="581" on="0"/>
        <pt x="1314" y="466" on="1"/>
        <pt x="1314" y="316" on="0"/>
        <pt x="1144" y="98" on="0"/>
        <pt x="826" y="-20" on="0"/>
      </contour>
      <contour>
        <pt x="468" y="-240" on="1"/>
        <pt x="468" y="60" on="1"/>
        <pt x="908" y="60" on="1"/>
        <pt x="908" y="-240" on="1"/>
      </contour>
      <contour>
        <pt x="468" y="1420" on="1"/>
        <pt x="468" y="1720" on="1"/>
        <pt x="908" y="1720" on="1"/>
        <pt x="908" y="1420" on="1"/>
      </contour>
    </TTGlyph>
    <TTGlyph name="dollar.tf" xMin="62" yMin="-240" xMax="1376" yMax="1720">
      <contour>
        <pt x="630" y="-20" on="1"/>
        <pt x="480" y="-20" on="0"/>
        <pt x="219" y="16" on="0"/>
        <pt x="106" y="44" on="1"/>
        <pt x="106" y="412" on="1"/>
        <pt x="180" y="390" on="0"/>
        <pt x="372" y="359" on="0"/>
        <pt x="559" y="342" on="0"/>
        <pt x="626" y="342" on="1"/>
        <pt x="742" y="342" on="0"/>
        <pt x="865" y="367" on="0"/>
        <pt x="910" y="412" on="0"/>
        <pt x="910" y="442" on="1"/>
        <pt x="910" y="468" on="0"/>
        <pt x="878" y="502" on="0"/>
        <pt x="792" y="528" on="0"/>
        <pt x="712" y="542" on="1"/>
        <pt x="554" y="570" on="1"/>
        <pt x="374" y="602" on="0"/>
        <pt x="158" y="720" on="0"/>
        <pt x="62" y="898" on="0"/>
        <pt x="62" y="1020" on="1"/>
        <pt x="62" y="1251" on="0"/>
        <pt x="454" y="1500" on="0"/>
        <pt x="856" y="1500" on="1"/>
        <pt x="981" y="1500" on="0"/>
        <pt x="1202" y="1476" on="0"/>
        <pt x="1286" y="1458" on="1"/>
        <pt x="1286" y="1090" on="1"/>
        <pt x="1207" y="1111" on="0"/>
        <pt x="981" y="1138" on="0"/>
        <pt x="882" y="1138" on="1"/>
        <pt x="738" y="1138" on="0"/>
        <pt x="585" y="1111" on="0"/>
        <pt x="528" y="1065" on="0"/>
        <pt x="528" y="1036" on="1"/>
        <pt x="528" y="1013" on="0"/>
        <pt x="554" y="983" on="0"/>
        <pt x="625" y="960" on="0"/>
        <pt x="692" y="948" on="1"/>
        <pt x="850" y="920" on="1"/>
        <pt x="1047" y="885" on="0"/>
        <pt x="1277" y="762" on="0"/>
        <pt x="1376" y="584" on="0"/>
        <pt x="1376" y="466" on="1"/>
        <pt x="1376" y="316" on="0"/>
        <pt x="1197" y="98" on="0"/>
        <pt x="863" y="-20" on="0"/>
      </contour>
      <contour>
        <pt x="498" y="-240" on="1"/>
        <pt x="498" y="60" on="1"/>
        <pt x="938" y="60" on="1"/>
        <pt x="938" y="-240" on="1"/>
      </contour>
      <contour>
        <pt x="498" y="1420" on="1"/>
        <pt x="498" y="1720" on="1"/>
        <pt x="938" y="1720" on="1"/>
        <pt x="938" y="1420" on="1"/>
      </contour>
    </TTGlyph>
    <TTGlyph name="dong" xMin="66" yMin="-440" xMax="1488" yMax="1616">
      <contour>
        <pt x="602" y="-18" on="1"/>
        <pt x="457" y="-18" on="0"/>
        <pt x="213" y="94" on="0"/>
        <pt x="66" y="334" on="0"/>
        <pt x="66" y="526" on="1"/>
        <pt x="66" y="713" on="0"/>
        <pt x="231" y="980" on="0"/>
        <pt x="533" y="1122" on="0"/>
        <pt x="740" y="1122" on="1"/>
        <pt x="785" y="1122" on="0"/>
        <pt x="873" y="1117" on="0"/>
        <pt x="910" y="1114" on="1"/>
        <pt x="910" y="1616" on="1"/>
        <pt x="1374" y="1616" on="1"/>
        <pt x="1374" y="0" on="1"/>
        <pt x="988" y="0" on="1"/>
        <pt x="964" y="106" on="1"/>
        <pt x="944" y="106" on="1"/>
        <pt x="883" y="51" on="0"/>
        <pt x="712" y="-18" on="0"/>
      </contour>
      <contour>
        <pt x="156" y="-440" on="1"/>
        <pt x="156" y="-140" on="1"/>
        <pt x="1374" y="-140" on="1"/>
        <pt x="1374" y="-440" on="1"/>
      </contour>
      <contour>
        <pt x="732" y="346" on="1"/>
        <pt x="779" y="346" on="0"/>
        <pt x="874" y="369" on="0"/>
        <pt x="910" y="394" on="1"/>
        <pt x="910" y="768" on="1"/>
        <pt x="883" y="773" on="0"/>
        <pt x="813" y="780" on="0"/>
        <pt x="774" y="780" on="1"/>
        <pt x="647" y="780" on="0"/>
        <pt x="524" y="667" on="0"/>
        <pt x="524" y="556" on="1"/>
        <pt x="524" y="480" on="0"/>
        <pt x="576" y="388" on="0"/>
        <pt x="669" y="346" on="0"/>
      </contour>
      <contour>
        <pt x="488" y="1226" on="1"/>
        <pt x="488" y="1486" on="1"/>
        <pt x="1488" y="1486" on="1"/>
        <pt x="1488" y="1226" on="1"/>
      </contour>
    </TTGlyph>
    <TTGlyph name="dong.tf" xMin="68" yMin="-440" xMax="1430" yMax="1616">
      <contour>
        <pt x="568" y="-18" on="1"/>
        <pt x="433" y="-18" on="0"/>
        <pt x="206" y="94" on="0"/>
        <pt x="68" y="334" on="0"/>
        <pt x="68" y="526" on="1"/>
        <pt x="68" y="713" on="0"/>
        <pt x="221" y="980" on="0"/>
        <pt x="503" y="1122" on="0"/>
        <pt x="696" y="1122" on="1"/>
        <pt x="738" y="1122" on="0"/>
        <pt x="818" y="1117" on="0"/>
        <pt x="852" y="1114" on="1"/>
        <pt x="852" y="1616" on="1"/>
        <pt x="1316" y="1616" on="1"/>
        <pt x="1316" y="0" on="1"/>
        <pt x="930" y="0" on="1"/>
        <pt x="906" y="106" on="1"/>
        <pt x="886" y="106" on="1"/>
        <pt x="829" y="51" on="0"/>
        <pt x="670" y="-18" on="0"/>
      </contour>
      <contour>
        <pt x="158" y="-440" on="1"/>
        <pt x="158" y="-140" on="1"/>
        <pt x="1316" y="-140" on="1"/>
        <pt x="1316" y="-440" on="1"/>
      </contour>
      <contour>
        <pt x="702" y="346" on="1"/>
        <pt x="741" y="346" on="0"/>
        <pt x="822" y="369" on="0"/>
        <pt x="852" y="394" on="1"/>
        <pt x="852" y="768" on="1"/>
        <pt x="830" y="773" on="0"/>
        <pt x="771" y="780" on="0"/>
        <pt x="738" y="780" on="1"/>
        <pt x="630" y="780" on="0"/>
        <pt x="526" y="667" on="0"/>
        <pt x="526" y="556" on="1"/>
        <pt x="526" y="480" on="0"/>
        <pt x="570" y="388" on="0"/>
        <pt x="649" y="346" on="0"/>
      </contour>
      <contour>
        <pt x="430" y="1226" on="1"/>
        <pt x="430" y="1486" on="1"/>
        <pt x="1430" y="1486" on="1"/>
        <pt x="1430" y="1226" on="1"/>
      </contour>
    </TTGlyph>
    <TTGlyph name="dotaccent" xMin="326" yMin="1206" xMax="874" yMax="1630">
      <component glyphName="uni0307" x="0" y="0" flags="0x4"/>
    </TTGlyph>
    <TTGlyph name="dotbelowcomb" xMin="366" yMin="-500" xMax="834" yMax="-104">
      <contour>
        <pt x="601" y="-500" on="1"/>
        <pt x="479" y="-500" on="0"/>
        <pt x="366" y="-392" on="0"/>
        <pt x="366" y="-302" on="1"/>
        <pt x="366" y="-212" on="0"/>
        <pt x="479" y="-104" on="0"/>
        <pt x="601" y="-104" on="1"/>
        <pt x="722" y="-104" on="0"/>
        <pt x="834" y="-212" on="0"/>
        <pt x="834" y="-302" on="1"/>
        <pt x="834" y="-392" on="0"/>
        <pt x="722" y="-500" on="0"/>
      </contour>
    </TTGlyph>
    <TTGlyph name="dotbelowcomb.case" xMin="332" yMin="-464" xMax="868" yMax="-104">
      <contour>
        <pt x="600" y="-464" on="1"/>
        <pt x="456" y="-464" on="0"/>
        <pt x="332" y="-363" on="0"/>
        <pt x="332" y="-284" on="1"/>
        <pt x="332" y="-204" on="0"/>
        <pt x="456" y="-104" on="0"/>
        <pt x="600" y="-104" on="1"/>
        <pt x="744" y="-104" on="0"/>
        <pt x="868" y="-204" on="0"/>
        <pt x="868" y="-284" on="1"/>
        <pt x="868" y="-363" on="0"/>
        <pt x="744" y="-464" on="0"/>
      </contour>
    </TTGlyph>
    <TTGlyph name="dotbelowcomb.sc" xMin="332" yMin="-464" xMax="868" yMax="-104">
      <component glyphName="dotbelowcomb.case" x="0" y="0" flags="0x204"/>
    </TTGlyph>
    <TTGlyph name="dotlessi" xMin="116" yMin="0" xMax="580" yMax="1100">
      <contour>
        <pt x="116" y="0" on="1"/>
        <pt x="116" y="1100" on="1"/>
        <pt x="580" y="1100" on="1"/>
        <pt x="580" y="0" on="1"/>
      </contour>
    </TTGlyph>
    <TTGlyph name="e" xMin="66" yMin="-22" xMax="1270" yMax="1118">
      <contour>
        <pt x="810" y="-22" on="1"/>
        <pt x="551" y="-22" on="0"/>
        <pt x="222" y="99" on="0"/>
        <pt x="66" y="351" on="0"/>
        <pt x="66" y="546" on="1"/>
        <pt x="66" y="719" on="0"/>
        <pt x="209" y="976" on="0"/>
        <pt x="487" y="1118" on="0"/>
        <pt x="690" y="1118" on="1"/>
        <pt x="882" y="1118" on="0"/>
        <pt x="1140" y="975" on="0"/>
        <pt x="1270" y="711" on="0"/>
        <pt x="1270" y="530" on="1"/>
        <pt x="1270" y="428" on="1"/>
        <pt x="270" y="428" on="1"/>
        <pt x="270" y="668" on="1"/>
        <pt x="912" y="668" on="1"/>
        <pt x="844" y="650" on="1"/>
        <pt x="844" y="717" on="0"/>
        <pt x="810" y="804" on="0"/>
        <pt x="738" y="846" on="0"/>
        <pt x="682" y="846" on="1"/>
        <pt x="626" y="846" on="0"/>
        <pt x="554" y="805" on="0"/>
        <pt x="520" y="719" on="0"/>
        <pt x="520" y="652" on="1"/>
        <pt x="520" y="476" on="1"/>
        <pt x="520" y="412" on="0"/>
        <pt x="571" y="336" on="0"/>
        <pt x="727" y="302" on="0"/>
        <pt x="884" y="302" on="1"/>
        <pt x="953" y="302" on="0"/>
        <pt x="1119" y="316" on="0"/>
        <pt x="1194" y="326" on="1"/>
        <pt x="1194" y="8" on="1"/>
        <pt x="1088" y="-10" on="0"/>
        <pt x="896" y="-22" on="0"/>
      </contour>
    </TTGlyph>
    <TTGlyph name="e.sc" xMin="132" yMin="0" xMax="1278" yMax="1190">
      <contour>
        <pt x="132" y="0" on="1"/>
        <pt x="132" y="1190" on="1"/>
        <pt x="1270" y="1190" on="1"/>
        <pt x="1270" y="876" on="1"/>
        <pt x="590" y="876" on="1"/>
        <pt x="590" y="314" on="1"/>
        <pt x="1278" y="314" on="1"/>
        <pt x="1278" y="0" on="1"/>
      </contour>
      <contour>
        <pt x="358" y="446" on="1"/>
        <pt x="358" y="760" on="1"/>
        <pt x="1178" y="760" on="1"/>
        <pt x="1178" y="446" on="1"/>
      </contour>
    </TTGlyph>
    <TTGlyph name="eacute" xMin="66" yMin="-22" xMax="1270" yMax="1616">
      <component glyphName="e" x="0" y="0" flags="0x204"/>
      <component glyphName="acutecomb" x="82" y="0" flags="0x4"/>
    </TTGlyph>
    <TTGlyph name="eacute.sc" xMin="132" yMin="0" xMax="1278" yMax="1612">
      <component glyphName="e.sc" x="0" y="0" flags="0x204"/>
      <component glyphName="acutecomb.sc" x="120" y="-290" flags="0x4"/>
    </TTGlyph>
    <TTGlyph name="ebreve" xMin="66" yMin="-22" xMax="1270" yMax="1596">
      <component glyphName="e" x="0" y="0" flags="0x204"/>
      <component glyphName="uni0306" x="82" y="0" flags="0x4"/>
    </TTGlyph>
    <TTGlyph name="ebreve.sc" xMin="132" yMin="0" xMax="1278" yMax="1612">
      <component glyphName="e.sc" x="0" y="0" flags="0x204"/>
      <component glyphName="uni0306.sc" x="120" y="-290" flags="0x4"/>
    </TTGlyph>
    <TTGlyph name="ecaron" xMin="66" yMin="-22" xMax="1270" yMax="1616">
      <component glyphName="e" x="0" y="0" flags="0x204"/>
      <component glyphName="uni030C" x="82" y="0" flags="0x4"/>
    </TTGlyph>
    <TTGlyph name="ecaron.sc" xMin="132" yMin="0" xMax="1278" yMax="1612">
      <component glyphName="e.sc" x="0" y="0" flags="0x204"/>
      <component glyphName="uni030C.sc" x="120" y="-290" flags="0x4"/>
    </TTGlyph>
    <TTGlyph name="ecircumflex" xMin="66" yMin="-22" xMax="1270" yMax="1616">
      <component glyphName="e" x="0" y="0" flags="0x204"/>
      <component glyphName="uni0302" x="82" y="0" flags="0x4"/>
    </TTGlyph>
    <TTGlyph name="ecircumflex.sc" xMin="132" yMin="0" xMax="1278" yMax="1612">
      <component glyphName="e.sc" x="0" y="0" flags="0x204"/>
      <component glyphName="uni0302.sc" x="120" y="-290" flags="0x4"/>
    </TTGlyph>
    <TTGlyph name="edieresis" xMin="66" yMin="-22" xMax="1270" yMax="1626">
      <component glyphName="e" x="0" y="0" flags="0x204"/>
      <component glyphName="uni0308" x="82" y="0" flags="0x4"/>
    </TTGlyph>
    <TTGlyph name="edieresis.sc" xMin="132" yMin="0" xMax="1278" yMax="1640">
      <component glyphName="e.sc" x="0" y="0" flags="0x204"/>
      <component glyphName="uni0308.sc" x="120" y="-290" flags="0x4"/>
    </TTGlyph>
    <TTGlyph name="edotaccent" xMin="66" yMin="-22" xMax="1270" yMax="1630">
      <component glyphName="e" x="0" y="0" flags="0x204"/>
      <component glyphName="uni0307" x="82" y="0" flags="0x4"/>
    </TTGlyph>
    <TTGlyph name="edotaccent.sc" xMin="132" yMin="0" xMax="1278" yMax="1640">
      <component glyphName="e.sc" x="0" y="0" flags="0x204"/>
      <component glyphName="uni0307.sc" x="120" y="-290" flags="0x4"/>
    </TTGlyph>
    <TTGlyph name="egrave" xMin="66" yMin="-22" xMax="1270" yMax="1616">
      <component glyphName="e" x="0" y="0" flags="0x204"/>
      <component glyphName="gravecomb" x="82" y="0" flags="0x4"/>
    </TTGlyph>
    <TTGlyph name="egrave.sc" xMin="132" yMin="0" xMax="1278" yMax="1612">
      <component glyphName="e.sc" x="0" y="0" flags="0x204"/>
      <component glyphName="gravecomb.sc" x="120" y="-290" flags="0x4"/>
    </TTGlyph>
    <TTGlyph name="eight" xMin="82" yMin="-20" xMax="1486" yMax="1500">
      <contour>
        <pt x="788" y="-20" on="1"/>
        <pt x="527" y="-20" on="0"/>
        <pt x="217" y="82" on="0"/>
        <pt x="82" y="253" on="0"/>
        <pt x="82" y="358" on="1"/>
        <pt x="82" y="489" on="0"/>
        <pt x="266" y="680" on="0"/>
        <pt x="438" y="722" on="1"/>
        <pt x="738" y="630" on="1"/>
        <pt x="615" y="593" on="0"/>
        <pt x="522" y="480" on="0"/>
        <pt x="522" y="426" on="1"/>
        <pt x="522" y="360" on="0"/>
        <pt x="646" y="284" on="0"/>
        <pt x="790" y="284" on="1"/>
        <pt x="934" y="284" on="0"/>
        <pt x="1050" y="348" on="0"/>
        <pt x="1050" y="402" on="1"/>
        <pt x="1050" y="443" on="0"/>
        <pt x="994" y="505" on="0"/>
        <pt x="838" y="560" on="0"/>
        <pt x="688" y="590" on="1"/>
        <pt x="472" y="633" on="0"/>
        <pt x="226" y="775" on="0"/>
        <pt x="124" y="958" on="0"/>
        <pt x="124" y="1064" on="1"/>
        <pt x="124" y="1188" on="0"/>
        <pt x="270" y="1385" on="0"/>
        <pt x="580" y="1500" on="0"/>
        <pt x="826" y="1500" on="1"/>
        <pt x="1129" y="1500" on="0"/>
        <pt x="1446" y="1304" on="0"/>
        <pt x="1446" y="1130" on="1"/>
        <pt x="1446" y="1055" on="0"/>
        <pt x="1386" y="917" on="0"/>
        <pt x="1241" y="805" on="0"/>
        <pt x="1114" y="768" on="1"/>
        <pt x="848" y="866" on="1"/>
        <pt x="953" y="914" on="0"/>
        <pt x="1038" y="1017" on="0"/>
        <pt x="1038" y="1072" on="1"/>
        <pt x="1038" y="1129" on="0"/>
        <pt x="932" y="1196" on="0"/>
        <pt x="812" y="1196" on="1"/>
        <pt x="671" y="1196" on="0"/>
        <pt x="566" y="1126" on="0"/>
        <pt x="566" y="1084" on="1"/>
        <pt x="566" y="1046" on="0"/>
        <pt x="615" y="987" on="0"/>
        <pt x="770" y="930" on="0"/>
        <pt x="930" y="894" on="1"/>
        <pt x="1147" y="845" on="0"/>
        <pt x="1389" y="711" on="0"/>
        <pt x="1486" y="539" on="0"/>
        <pt x="1486" y="432" on="1"/>
        <pt x="1486" y="312" on="0"/>
        <pt x="1345" y="106" on="0"/>
        <pt x="1038" y="-20" on="0"/>
      </contour>
    </TTGlyph>
    <TTGlyph name="eight.dnom" xMin="34" yMin="-150" xMax="950" yMax="878">
      <contour>
        <pt x="494" y="-150" on="1"/>
        <pt x="325" y="-150" on="0"/>
        <pt x="123" y="-78" on="0"/>
        <pt x="34" y="40" on="0"/>
        <pt x="34" y="110" on="1"/>
        <pt x="34" y="196" on="0"/>
        <pt x="149" y="319" on="0"/>
        <pt x="258" y="346" on="1"/>
        <pt x="490" y="280" on="1"/>
        <pt x="418" y="255" on="0"/>
        <pt x="368" y="186" on="0"/>
        <pt x="368" y="156" on="1"/>
        <pt x="368" y="116" on="0"/>
        <pt x="429" y="70" on="0"/>
        <pt x="496" y="70" on="1"/>
        <pt x="564" y="70" on="0"/>
        <pt x="616" y="111" on="0"/>
        <pt x="616" y="142" on="1"/>
        <pt x="616" y="165" on="0"/>
        <pt x="588" y="201" on="0"/>
        <pt x="502" y="235" on="0"/>
        <pt x="416" y="254" on="1"/>
        <pt x="278" y="284" on="0"/>
        <pt x="122" y="382" on="0"/>
        <pt x="58" y="509" on="0"/>
        <pt x="58" y="582" on="1"/>
        <pt x="58" y="708" on="0"/>
        <pt x="276" y="878" on="0"/>
        <pt x="520" y="878" on="1"/>
        <pt x="717" y="878" on="0"/>
        <pt x="926" y="747" on="0"/>
        <pt x="926" y="628" on="1"/>
        <pt x="926" y="555" on="0"/>
        <pt x="842" y="426" on="0"/>
        <pt x="720" y="388" on="1"/>
        <pt x="512" y="458" on="1"/>
        <pt x="569" y="490" on="0"/>
        <pt x="616" y="554" on="0"/>
        <pt x="616" y="584" on="1"/>
        <pt x="616" y="619" on="0"/>
        <pt x="567" y="658" on="0"/>
        <pt x="510" y="658" on="1"/>
        <pt x="441" y="658" on="0"/>
        <pt x="392" y="617" on="0"/>
        <pt x="392" y="594" on="1"/>
        <pt x="392" y="573" on="0"/>
        <pt x="417" y="538" on="0"/>
        <pt x="504" y="502" on="0"/>
        <pt x="596" y="478" on="1"/>
        <pt x="737" y="444" on="0"/>
        <pt x="891" y="352" on="0"/>
        <pt x="950" y="233" on="0"/>
        <pt x="950" y="160" on="1"/>
        <pt x="950" y="79" on="0"/>
        <pt x="860" y="-62" on="0"/>
        <pt x="660" y="-150" on="0"/>
      </contour>
    </TTGlyph>
    <TTGlyph name="eight.numr" xMin="34" yMin="602" xMax="950" yMax="1630">
      <contour>
        <pt x="494" y="602" on="1"/>
        <pt x="325" y="602" on="0"/>
        <pt x="123" y="674" on="0"/>
        <pt x="34" y="792" on="0"/>
        <pt x="34" y="862" on="1"/>
        <pt x="34" y="948" on="0"/>
        <pt x="149" y="1071" on="0"/>
        <pt x="258" y="1098" on="1"/>
        <pt x="490" y="1032" on="1"/>
        <pt x="418" y="1007" on="0"/>
        <pt x="368" y="938" on="0"/>
        <pt x="368" y="908" on="1"/>
        <pt x="368" y="868" on="0"/>
        <pt x="429" y="822" on="0"/>
        <pt x="496" y="822" on="1"/>
        <pt x="564" y="822" on="0"/>
        <pt x="616" y="863" on="0"/>
        <pt x="616" y="894" on="1"/>
        <pt x="616" y="917" on="0"/>
        <pt x="588" y="953" on="0"/>
        <pt x="502" y="987" on="0"/>
        <pt x="416" y="1006" on="1"/>
        <pt x="278" y="1036" on="0"/>
        <pt x="122" y="1134" on="0"/>
        <pt x="58" y="1261" on="0"/>
        <pt x="58" y="1334" on="1"/>
        <pt x="58" y="1460" on="0"/>
        <pt x="276" y="1630" on="0"/>
        <pt x="520" y="1630" on="1"/>
        <pt x="717" y="1630" on="0"/>
        <pt x="926" y="1499" on="0"/>
        <pt x="926" y="1380" on="1"/>
        <pt x="926" y="1307" on="0"/>
        <pt x="842" y="1178" on="0"/>
        <pt x="720" y="1140" on="1"/>
        <pt x="512" y="1210" on="1"/>
        <pt x="569" y="1242" on="0"/>
        <pt x="616" y="1306" on="0"/>
        <pt x="616" y="1336" on="1"/>
        <pt x="616" y="1371" on="0"/>
        <pt x="567" y="1410" on="0"/>
        <pt x="510" y="1410" on="1"/>
        <pt x="441" y="1410" on="0"/>
        <pt x="392" y="1369" on="0"/>
        <pt x="392" y="1346" on="1"/>
        <pt x="392" y="1325" on="0"/>
        <pt x="417" y="1290" on="0"/>
        <pt x="504" y="1254" on="0"/>
        <pt x="596" y="1230" on="1"/>
        <pt x="737" y="1196" on="0"/>
        <pt x="891" y="1104" on="0"/>
        <pt x="950" y="985" on="0"/>
        <pt x="950" y="912" on="1"/>
        <pt x="950" y="831" on="0"/>
        <pt x="860" y="690" on="0"/>
        <pt x="660" y="602" on="0"/>
      </contour>
    </TTGlyph>
    <TTGlyph name="eight.osf" xMin="78" yMin="-20" xMax="1482" yMax="1500">
      <contour>
        <pt x="784" y="-20" on="1"/>
        <pt x="523" y="-20" on="0"/>
        <pt x="213" y="82" on="0"/>
        <pt x="78" y="253" on="0"/>
        <pt x="78" y="358" on="1"/>
        <pt x="78" y="489" on="0"/>
        <pt x="262" y="680" on="0"/>
        <pt x="434" y="722" on="1"/>
        <pt x="734" y="630" on="1"/>
        <pt x="611" y="593" on="0"/>
        <pt x="518" y="480" on="0"/>
        <pt x="518" y="426" on="1"/>
        <pt x="518" y="360" on="0"/>
        <pt x="642" y="284" on="0"/>
        <pt x="786" y="284" on="1"/>
        <pt x="930" y="284" on="0"/>
        <pt x="1046" y="348" on="0"/>
        <pt x="1046" y="402" on="1"/>
        <pt x="1046" y="443" on="0"/>
        <pt x="990" y="505" on="0"/>
        <pt x="834" y="560" on="0"/>
        <pt x="684" y="590" on="1"/>
        <pt x="468" y="633" on="0"/>
        <pt x="222" y="775" on="0"/>
        <pt x="120" y="958" on="0"/>
        <pt x="120" y="1064" on="1"/>
        <pt x="120" y="1188" on="0"/>
        <pt x="266" y="1385" on="0"/>
        <pt x="576" y="1500" on="0"/>
        <pt x="822" y="1500" on="1"/>
        <pt x="1125" y="1500" on="0"/>
        <pt x="1442" y="1304" on="0"/>
        <pt x="1442" y="1130" on="1"/>
        <pt x="1442" y="1055" on="0"/>
        <pt x="1382" y="917" on="0"/>
        <pt x="1237" y="805" on="0"/>
        <pt x="1110" y="768" on="1"/>
        <pt x="844" y="866" on="1"/>
        <pt x="949" y="914" on="0"/>
        <pt x="1034" y="1017" on="0"/>
        <pt x="1034" y="1072" on="1"/>
        <pt x="1034" y="1129" on="0"/>
        <pt x="928" y="1196" on="0"/>
        <pt x="808" y="1196" on="1"/>
        <pt x="667" y="1196" on="0"/>
        <pt x="562" y="1126" on="0"/>
        <pt x="562" y="1084" on="1"/>
        <pt x="562" y="1046" on="0"/>
        <pt x="611" y="987" on="0"/>
        <pt x="766" y="930" on="0"/>
        <pt x="926" y="894" on="1"/>
        <pt x="1143" y="845" on="0"/>
        <pt x="1385" y="711" on="0"/>
        <pt x="1482" y="539" on="0"/>
        <pt x="1482" y="432" on="1"/>
        <pt x="1482" y="312" on="0"/>
        <pt x="1341" y="106" on="0"/>
        <pt x="1034" y="-20" on="0"/>
      </contour>
    </TTGlyph>
    <TTGlyph name="eight.tf" xMin="58" yMin="-20" xMax="1382" yMax="1500">
      <contour>
        <pt x="724" y="-20" on="1"/>
        <pt x="483" y="-20" on="0"/>
        <pt x="190" y="82" on="0"/>
        <pt x="58" y="253" on="0"/>
        <pt x="58" y="358" on="1"/>
        <pt x="58" y="489" on="0"/>
        <pt x="231" y="680" on="0"/>
        <pt x="394" y="722" on="1"/>
        <pt x="696" y="630" on="1"/>
        <pt x="581" y="593" on="0"/>
        <pt x="492" y="480" on="0"/>
        <pt x="492" y="426" on="1"/>
        <pt x="492" y="360" on="0"/>
        <pt x="605" y="284" on="0"/>
        <pt x="726" y="284" on="1"/>
        <pt x="846" y="284" on="0"/>
        <pt x="950" y="352" on="0"/>
        <pt x="950" y="406" on="1"/>
        <pt x="950" y="447" on="0"/>
        <pt x="900" y="509" on="0"/>
        <pt x="762" y="562" on="0"/>
        <pt x="630" y="590" on="1"/>
        <pt x="426" y="633" on="0"/>
        <pt x="194" y="775" on="0"/>
        <pt x="98" y="960" on="0"/>
        <pt x="98" y="1068" on="1"/>
        <pt x="98" y="1192" on="0"/>
        <pt x="236" y="1387" on="0"/>
        <pt x="528" y="1500" on="0"/>
        <pt x="760" y="1500" on="1"/>
        <pt x="1045" y="1500" on="0"/>
        <pt x="1344" y="1304" on="0"/>
        <pt x="1344" y="1130" on="1"/>
        <pt x="1344" y="1018" on="0"/>
        <pt x="1211" y="824" on="0"/>
        <pt x="1032" y="768" on="1"/>
        <pt x="760" y="866" on="1"/>
        <pt x="859" y="914" on="0"/>
        <pt x="940" y="1017" on="0"/>
        <pt x="940" y="1072" on="1"/>
        <pt x="940" y="1129" on="0"/>
        <pt x="845" y="1196" on="0"/>
        <pt x="746" y="1196" on="1"/>
        <pt x="629" y="1196" on="0"/>
        <pt x="534" y="1126" on="0"/>
        <pt x="534" y="1084" on="1"/>
        <pt x="534" y="1046" on="0"/>
        <pt x="578" y="986" on="0"/>
        <pt x="716" y="928" on="0"/>
        <pt x="858" y="894" on="1"/>
        <pt x="1063" y="845" on="0"/>
        <pt x="1291" y="711" on="0"/>
        <pt x="1382" y="539" on="0"/>
        <pt x="1382" y="432" on="1"/>
        <pt x="1382" y="312" on="0"/>
        <pt x="1250" y="106" on="0"/>
        <pt x="960" y="-20" on="0"/>
      </contour>
    </TTGlyph>
    <TTGlyph name="eight.tosf" xMin="58" yMin="-20" xMax="1382" yMax="1500">
      <contour>
        <pt x="724" y="-20" on="1"/>
        <pt x="483" y="-20" on="0"/>
        <pt x="190" y="82" on="0"/>
        <pt x="58" y="253" on="0"/>
        <pt x="58" y="358" on="1"/>
        <pt x="58" y="489" on="0"/>
        <pt x="231" y="680" on="0"/>
        <pt x="394" y="722" on="1"/>
        <pt x="696" y="630" on="1"/>
        <pt x="581" y="593" on="0"/>
        <pt x="492" y="480" on="0"/>
        <pt x="492" y="426" on="1"/>
        <pt x="492" y="360" on="0"/>
        <pt x="605" y="284" on="0"/>
        <pt x="726" y="284" on="1"/>
        <pt x="846" y="284" on="0"/>
        <pt x="950" y="352" on="0"/>
        <pt x="950" y="406" on="1"/>
        <pt x="950" y="447" on="0"/>
        <pt x="900" y="509" on="0"/>
        <pt x="762" y="562" on="0"/>
        <pt x="630" y="590" on="1"/>
        <pt x="426" y="633" on="0"/>
        <pt x="194" y="775" on="0"/>
        <pt x="98" y="960" on="0"/>
        <pt x="98" y="1068" on="1"/>
        <pt x="98" y="1192" on="0"/>
        <pt x="236" y="1387" on="0"/>
        <pt x="528" y="1500" on="0"/>
        <pt x="760" y="1500" on="1"/>
        <pt x="1045" y="1500" on="0"/>
        <pt x="1344" y="1304" on="0"/>
        <pt x="1344" y="1130" on="1"/>
        <pt x="1344" y="1018" on="0"/>
        <pt x="1211" y="824" on="0"/>
        <pt x="1032" y="768" on="1"/>
        <pt x="760" y="866" on="1"/>
        <pt x="859" y="914" on="0"/>
        <pt x="940" y="1017" on="0"/>
        <pt x="940" y="1072" on="1"/>
        <pt x="940" y="1129" on="0"/>
        <pt x="845" y="1196" on="0"/>
        <pt x="746" y="1196" on="1"/>
        <pt x="629" y="1196" on="0"/>
        <pt x="534" y="1126" on="0"/>
        <pt x="534" y="1084" on="1"/>
        <pt x="534" y="1046" on="0"/>
        <pt x="578" y="986" on="0"/>
        <pt x="716" y="928" on="0"/>
        <pt x="858" y="894" on="1"/>
        <pt x="1063" y="845" on="0"/>
        <pt x="1291" y="711" on="0"/>
        <pt x="1382" y="539" on="0"/>
        <pt x="1382" y="432" on="1"/>
        <pt x="1382" y="312" on="0"/>
        <pt x="1250" y="106" on="0"/>
        <pt x="960" y="-20" on="0"/>
      </contour>
    </TTGlyph>
    <TTGlyph name="ellipsis" xMin="58" yMin="-20" xMax="1990" yMax="492">
      <component glyphName="period" x="0" y="0" flags="0x4"/>
      <component glyphName="period" x="676" y="0" flags="0x4"/>
      <component glyphName="period" x="1352" y="0" flags="0x4"/>
    </TTGlyph>
    <TTGlyph name="emacron" xMin="66" yMin="-22" xMax="1270" yMax="1544">
      <component glyphName="e" x="0" y="0" flags="0x204"/>
      <component glyphName="uni0304" x="82" y="0" flags="0x4"/>
    </TTGlyph>
    <TTGlyph name="emacron.sc" xMin="132" yMin="0" xMax="1278" yMax="1580">
      <component glyphName="e.sc" x="0" y="0" flags="0x204"/>
      <component glyphName="uni0304.sc" x="120" y="-290" flags="0x4"/>
    </TTGlyph>
    <TTGlyph name="emdash" xMin="0" yMin="410" xMax="2000" yMax="730">
      <contour>
        <pt x="0" y="410" on="1"/>
        <pt x="0" y="730" on="1"/>
        <pt x="2000" y="730" on="1"/>
        <pt x="2000" y="410" on="1"/>
      </contour>
    </TTGlyph>
    <TTGlyph name="endash" xMin="0" yMin="410" xMax="1000" yMax="730">
      <contour>
        <pt x="0" y="410" on="1"/>
        <pt x="0" y="730" on="1"/>
        <pt x="1000" y="730" on="1"/>
        <pt x="1000" y="410" on="1"/>
      </contour>
    </TTGlyph>
    <TTGlyph name="eng" xMin="116" yMin="-476" xMax="1354" yMax="1118">
      <contour>
        <pt x="1032" y="-476" on="1"/>
        <pt x="744" y="-284" on="1"/>
        <pt x="799" y="-218" on="0"/>
        <pt x="863" y="-83" on="0"/>
        <pt x="890" y="77" on="0"/>
        <pt x="890" y="180" on="1"/>
        <pt x="890" y="582" on="1"/>
        <pt x="890" y="669" on="0"/>
        <pt x="822" y="734" on="0"/>
        <pt x="756" y="734" on="1"/>
        <pt x="721" y="734" on="0"/>
        <pt x="656" y="718" on="0"/>
        <pt x="600" y="689" on="0"/>
        <pt x="580" y="670" on="1"/>
        <pt x="580" y="0" on="1"/>
        <pt x="116" y="0" on="1"/>
        <pt x="116" y="1100" on="1"/>
        <pt x="494" y="1100" on="1"/>
        <pt x="522" y="1004" on="1"/>
        <pt x="542" y="1004" on="1"/>
        <pt x="607" y="1058" on="0"/>
        <pt x="789" y="1118" on="0"/>
        <pt x="894" y="1118" on="1"/>
        <pt x="1028" y="1118" on="0"/>
        <pt x="1236" y="1013" on="0"/>
        <pt x="1354" y="788" on="0"/>
        <pt x="1354" y="608" on="1"/>
        <pt x="1354" y="196" on="1"/>
        <pt x="1354" y="71" on="0"/>
        <pt x="1293" y="-153" on="0"/>
        <pt x="1152" y="-367" on="0"/>
      </contour>
    </TTGlyph>
    <TTGlyph name="eng.sc" xMin="132" yMin="-476" xMax="1511" yMax="1190">
      <contour>
        <pt x="132" y="0" on="1"/>
        <pt x="132" y="1190" on="1"/>
        <pt x="596" y="1190" on="1"/>
        <pt x="1136" y="526" on="1"/>
        <pt x="1082" y="-42" on="1"/>
        <pt x="506" y="664" on="1"/>
        <pt x="566" y="664" on="1"/>
        <pt x="566" y="0" on="1"/>
      </contour>
      <contour>
        <pt x="1236" y="-476" on="1"/>
        <pt x="960" y="-294" on="1"/>
        <pt x="1003" y="-244" on="0"/>
        <pt x="1054" y="-143" on="0"/>
        <pt x="1076" y="-21" on="0"/>
        <pt x="1076" y="60" on="1"/>
        <pt x="1076" y="1190" on="1"/>
        <pt x="1510" y="1190" on="1"/>
        <pt x="1510" y="80" on="1"/>
        <pt x="1511" y="-22" on="0"/>
        <pt x="1466" y="-209" on="0"/>
        <pt x="1347" y="-387" on="0"/>
      </contour>
    </TTGlyph>
    <TTGlyph name="eogonek" xMin="66" yMin="-460" xMax="1270" yMax="1118">
      <contour>
        <pt x="1004" y="-460" on="1"/>
        <pt x="847" y="-460" on="0"/>
        <pt x="692" y="-336" on="0"/>
        <pt x="692" y="-234" on="1"/>
        <pt x="692" y="-144" on="0"/>
        <pt x="824" y="14" on="0"/>
        <pt x="1004" y="62" on="1"/>
        <pt x="1022" y="-14" on="1"/>
        <pt x="967" y="-18" on="0"/>
        <pt x="858" y="-22" on="0"/>
        <pt x="810" y="-22" on="1"/>
        <pt x="551" y="-22" on="0"/>
        <pt x="222" y="99" on="0"/>
        <pt x="66" y="351" on="0"/>
        <pt x="66" y="546" on="1"/>
        <pt x="66" y="719" on="0"/>
        <pt x="209" y="976" on="0"/>
        <pt x="487" y="1118" on="0"/>
        <pt x="690" y="1118" on="1"/>
        <pt x="882" y="1118" on="0"/>
        <pt x="1140" y="975" on="0"/>
        <pt x="1270" y="711" on="0"/>
        <pt x="1270" y="530" on="1"/>
        <pt x="1270" y="428" on="1"/>
        <pt x="270" y="428" on="1"/>
        <pt x="270" y="658" on="1"/>
        <pt x="912" y="658" on="1"/>
        <pt x="844" y="640" on="1"/>
        <pt x="844" y="707" on="0"/>
        <pt x="810" y="794" on="0"/>
        <pt x="738" y="836" on="0"/>
        <pt x="682" y="836" on="1"/>
        <pt x="626" y="836" on="0"/>
        <pt x="554" y="795" on="0"/>
        <pt x="520" y="709" on="0"/>
        <pt x="520" y="642" on="1"/>
        <pt x="520" y="476" on="1"/>
        <pt x="520" y="412" on="0"/>
        <pt x="571" y="336" on="0"/>
        <pt x="727" y="302" on="0"/>
        <pt x="884" y="302" on="1"/>
        <pt x="953" y="302" on="0"/>
        <pt x="1119" y="316" on="0"/>
        <pt x="1194" y="326" on="1"/>
        <pt x="1194" y="8" on="1"/>
        <pt x="1099" y="-21" on="0"/>
        <pt x="992" y="-88" on="0"/>
        <pt x="948" y="-161" on="0"/>
        <pt x="948" y="-200" on="1"/>
        <pt x="948" y="-242" on="0"/>
        <pt x="1012" y="-294" on="0"/>
        <pt x="1076" y="-294" on="1"/>
        <pt x="1100" y="-294" on="0"/>
        <pt x="1161" y="-283" on="0"/>
        <pt x="1194" y="-270" on="1"/>
        <pt x="1194" y="-430" on="1"/>
        <pt x="1154" y="-443" on="0"/>
        <pt x="1067" y="-460" on="0"/>
      </contour>
    </TTGlyph>
    <TTGlyph name="eogonek.sc" xMin="132" yMin="-460" xMax="1278" yMax="1190">
      <component glyphName="e.sc" x="0" y="0" flags="0x204"/>
      <component glyphName="uni0328.sc" x="674" y="0" flags="0x4"/>
    </TTGlyph>
    <TTGlyph name="equal" xMin="114" yMin="340" xMax="1082" yMax="1180">
      <contour>
        <pt x="114" y="840" on="1"/>
        <pt x="114" y="1180" on="1"/>
        <pt x="1082" y="1180" on="1"/>
        <pt x="1082" y="840" on="1"/>
      </contour>
      <contour>
        <pt x="114" y="340" on="1"/>
        <pt x="114" y="680" on="1"/>
        <pt x="1082" y="680" on="1"/>
        <pt x="1082" y="340" on="1"/>
      </contour>
    </TTGlyph>
    <TTGlyph name="equal.osf" xMin="114" yMin="140" xMax="1082" yMax="980">
      <contour>
        <pt x="114" y="640" on="1"/>
        <pt x="114" y="980" on="1"/>
        <pt x="1082" y="980" on="1"/>
        <pt x="1082" y="640" on="1"/>
      </contour>
      <contour>
        <pt x="114" y="140" on="1"/>
        <pt x="114" y="480" on="1"/>
        <pt x="1082" y="480" on="1"/>
        <pt x="1082" y="140" on="1"/>
      </contour>
    </TTGlyph>
    <TTGlyph name="equal.tf" xMin="236" yMin="340" xMax="1204" yMax="1180">
      <contour>
        <pt x="236" y="840" on="1"/>
        <pt x="236" y="1180" on="1"/>
        <pt x="1204" y="1180" on="1"/>
        <pt x="1204" y="840" on="1"/>
      </contour>
      <contour>
        <pt x="236" y="340" on="1"/>
        <pt x="236" y="680" on="1"/>
        <pt x="1204" y="680" on="1"/>
        <pt x="1204" y="340" on="1"/>
      </contour>
    </TTGlyph>
    <TTGlyph name="equal.tosf" xMin="236" yMin="140" xMax="1204" yMax="980">
      <contour>
        <pt x="236" y="640" on="1"/>
        <pt x="236" y="980" on="1"/>
        <pt x="1204" y="980" on="1"/>
        <pt x="1204" y="640" on="1"/>
      </contour>
      <contour>
        <pt x="236" y="140" on="1"/>
        <pt x="236" y="480" on="1"/>
        <pt x="1204" y="480" on="1"/>
        <pt x="1204" y="140" on="1"/>
      </contour>
    </TTGlyph>
    <TTGlyph name="estimated" xMin="84" yMin="-18" xMax="1478" yMax="1498">
      <contour>
        <pt x="780" y="-18" on="1"/>
        <pt x="631" y="-18" on="0"/>
        <pt x="377" y="96" on="0"/>
        <pt x="189" y="300" on="0"/>
        <pt x="84" y="576" on="0"/>
        <pt x="84" y="738" on="1"/>
        <pt x="84" y="962" on="0"/>
        <pt x="261" y="1305" on="0"/>
        <pt x="575" y="1498" on="0"/>
        <pt x="780" y="1498" on="1"/>
        <pt x="982" y="1498" on="0"/>
        <pt x="1288" y="1312" on="0"/>
        <pt x="1467" y="971" on="0"/>
        <pt x="1478" y="738" on="1"/>
        <pt x="394" y="738" on="1"/>
        <pt x="394" y="198" on="1"/>
        <pt x="472" y="122" on="0"/>
        <pt x="663" y="46" on="0"/>
        <pt x="780" y="46" on="1"/>
        <pt x="951" y="46" on="0"/>
        <pt x="1221" y="203" on="0"/>
        <pt x="1348" y="390" on="1"/>
        <pt x="1404" y="352" on="1"/>
        <pt x="1266" y="150" on="0"/>
        <pt x="969" y="-18" on="0"/>
      </contour>
      <contour>
        <pt x="394" y="802" on="1"/>
        <pt x="1168" y="802" on="1"/>
        <pt x="1168" y="1280" on="1"/>
        <pt x="1098" y="1355" on="0"/>
        <pt x="889" y="1434" on="0"/>
        <pt x="778" y="1434" on="1"/>
        <pt x="701" y="1434" on="0"/>
        <pt x="557" y="1399" on="0"/>
        <pt x="436" y="1330" on="0"/>
        <pt x="394" y="1280" on="1"/>
      </contour>
    </TTGlyph>
    <TTGlyph name="eth" xMin="66" yMin="-22" xMax="1406" yMax="1616">
      <contour>
        <pt x="732" y="-22" on="1"/>
        <pt x="528" y="-22" on="0"/>
        <pt x="229" y="118" on="0"/>
        <pt x="66" y="375" on="0"/>
        <pt x="66" y="550" on="1"/>
        <pt x="66" y="728" on="0"/>
        <pt x="221" y="975" on="0"/>
        <pt x="497" y="1104" on="0"/>
        <pt x="680" y="1104" on="1"/>
        <pt x="794" y="1104" on="0"/>
        <pt x="980" y="1023" on="0"/>
        <pt x="1052" y="922" on="1"/>
        <pt x="876" y="914" on="1"/>
        <pt x="836" y="1039" on="0"/>
        <pt x="647" y="1295" on="0"/>
        <pt x="384" y="1527" on="0"/>
        <pt x="232" y="1616" on="1"/>
        <pt x="810" y="1616" on="1"/>
        <pt x="938" y="1528" on="0"/>
        <pt x="1156" y="1297" on="0"/>
        <pt x="1317" y="1034" on="0"/>
        <pt x="1406" y="756" on="0"/>
        <pt x="1404" y="622" on="1"/>
        <pt x="1402" y="408" on="0"/>
        <pt x="1241" y="122" on="0"/>
        <pt x="942" y="-22" on="0"/>
      </contour>
      <contour>
        <pt x="732" y="326" on="1"/>
        <pt x="802" y="326" on="0"/>
        <pt x="894" y="376" on="0"/>
        <pt x="940" y="475" on="0"/>
        <pt x="940" y="550" on="1"/>
        <pt x="940" y="625" on="0"/>
        <pt x="894" y="725" on="0"/>
        <pt x="802" y="774" on="0"/>
        <pt x="732" y="774" on="1"/>
        <pt x="662" y="774" on="0"/>
        <pt x="570" y="725" on="0"/>
        <pt x="524" y="625" on="0"/>
        <pt x="524" y="550" on="1"/>
        <pt x="524" y="475" on="0"/>
        <pt x="570" y="376" on="0"/>
        <pt x="662" y="326" on="0"/>
      </contour>
      <contour>
        <pt x="194" y="1140" on="1"/>
        <pt x="152" y="1386" on="1"/>
        <pt x="1318" y="1568" on="1"/>
        <pt x="1360" y="1322" on="1"/>
      </contour>
    </TTGlyph>
    <TTGlyph name="eth.sc" xMin="2" yMin="-12" xMax="1552" yMax="1202">
      <component glyphName="d.sc" x="0" y="0" flags="0x204"/>
      <component glyphName="uni0335.dsc" x="2" y="-4" flags="0x4"/>
    </TTGlyph>
    <TTGlyph name="exclam" xMin="78" yMin="-20" xMax="658" yMax="1480">
      <contour>
        <pt x="232" y="532" on="1"/>
        <pt x="124" y="996" on="1"/>
        <pt x="124" y="1480" on="1"/>
        <pt x="612" y="1480" on="1"/>
        <pt x="612" y="996" on="1"/>
        <pt x="510" y="532" on="1"/>
      </contour>
      <contour>
        <pt x="368" y="-20" on="1"/>
        <pt x="232" y="-20" on="0"/>
        <pt x="78" y="107" on="0"/>
        <pt x="78" y="216" on="1"/>
        <pt x="78" y="326" on="0"/>
        <pt x="229" y="452" on="0"/>
        <pt x="368" y="452" on="1"/>
        <pt x="508" y="452" on="0"/>
        <pt x="658" y="323" on="0"/>
        <pt x="658" y="216" on="1"/>
        <pt x="658" y="110" on="0"/>
        <pt x="505" y="-20" on="0"/>
      </contour>
    </TTGlyph>
    <TTGlyph name="exclamdown" xMin="78" yMin="-380" xMax="658" yMax="1120">
      <contour>
        <pt x="232" y="528" on="1"/>
        <pt x="510" y="528" on="1"/>
        <pt x="612" y="84" on="1"/>
        <pt x="612" y="-380" on="1"/>
        <pt x="124" y="-380" on="1"/>
        <pt x="124" y="84" on="1"/>
      </contour>
      <contour>
        <pt x="369" y="1120" on="1"/>
        <pt x="505" y="1120" on="0"/>
        <pt x="658" y="980" on="0"/>
        <pt x="658" y="864" on="1"/>
        <pt x="658" y="749" on="0"/>
        <pt x="508" y="608" on="0"/>
        <pt x="369" y="608" on="1"/>
        <pt x="229" y="608" on="0"/>
        <pt x="78" y="746" on="0"/>
        <pt x="78" y="864" on="1"/>
        <pt x="78" y="983" on="0"/>
        <pt x="232" y="1120" on="0"/>
      </contour>
    </TTGlyph>
    <TTGlyph name="f" xMin="50" yMin="0" xMax="1026" yMax="1636">
      <contour>
        <pt x="230" y="0" on="1"/>
        <pt x="230" y="1100" on="1"/>
        <pt x="230" y="1262" on="0"/>
        <pt x="375" y="1503" on="0"/>
        <pt x="647" y="1636" on="0"/>
        <pt x="836" y="1636" on="1"/>
        <pt x="895" y="1636" on="0"/>
        <pt x="977" y="1630" on="0"/>
        <pt x="1026" y="1624" on="1"/>
        <pt x="1026" y="1276" on="1"/>
        <pt x="996" y="1279" on="0"/>
        <pt x="945" y="1282" on="0"/>
        <pt x="916" y="1282" on="1"/>
        <pt x="799" y="1282" on="0"/>
        <pt x="694" y="1195" on="0"/>
        <pt x="694" y="1114" on="1"/>
        <pt x="694" y="0" on="1"/>
      </contour>
      <contour>
        <pt x="50" y="740" on="1"/>
        <pt x="50" y="1100" on="1"/>
        <pt x="970" y="1100" on="1"/>
        <pt x="970" y="740" on="1"/>
      </contour>
    </TTGlyph>
    <TTGlyph name="f.sc" xMin="132" yMin="0" xMax="1272" yMax="1190">
      <contour>
        <pt x="132" y="0" on="1"/>
        <pt x="132" y="1190" on="1"/>
        <pt x="1272" y="1190" on="1"/>
        <pt x="1272" y="864" on="1"/>
        <pt x="604" y="864" on="1"/>
        <pt x="604" y="0" on="1"/>
      </contour>
      <contour>
        <pt x="386" y="390" on="1"/>
        <pt x="386" y="716" on="1"/>
        <pt x="1174" y="716" on="1"/>
        <pt x="1174" y="390" on="1"/>
      </contour>
    </TTGlyph>
    <TTGlyph name="f.short" xMin="50" yMin="0" xMax="992" yMax="1636">
      <contour>
        <pt x="230" y="0" on="1"/>
        <pt x="230" y="1108" on="1"/>
        <pt x="230" y="1266" on="0"/>
        <pt x="374" y="1504" on="0"/>
        <pt x="635" y="1636" on="0"/>
        <pt x="812" y="1636" on="1"/>
        <pt x="868" y="1636" on="0"/>
        <pt x="946" y="1629" on="0"/>
        <pt x="992" y="1618" on="1"/>
        <pt x="992" y="1270" on="1"/>
        <pt x="965" y="1278" on="0"/>
        <pt x="918" y="1282" on="0"/>
        <pt x="892" y="1282" on="1"/>
        <pt x="793" y="1282" on="0"/>
        <pt x="694" y="1197" on="0"/>
        <pt x="694" y="1122" on="1"/>
        <pt x="694" y="0" on="1"/>
      </contour>
      <contour>
        <pt x="50" y="740" on="1"/>
        <pt x="50" y="1100" on="1"/>
        <pt x="970" y="1100" on="1"/>
        <pt x="970" y="740" on="1"/>
      </contour>
    </TTGlyph>
    <TTGlyph name="f_i" xMin="50" yMin="0" xMax="1602" yMax="1636">
      <component glyphName="f.short" x="0" y="0" flags="0x4"/>
      <component glyphName="i" x="980" y="0" flags="0x4"/>
    </TTGlyph>
    <TTGlyph name="f_j" xMin="50" yMin="-476" xMax="1592" yMax="1636">
      <component glyphName="f.short" x="0" y="0" flags="0x4"/>
      <component glyphName="j" x="980" y="0" flags="0x4"/>
    </TTGlyph>
    <TTGlyph name="f_l" xMin="50" yMin="0" xMax="1560" yMax="1636">
      <component glyphName="f.short" x="0" y="0" flags="0x4"/>
      <component glyphName="l" x="980" y="0" flags="0x4"/>
    </TTGlyph>
    <TTGlyph name="fi" xMin="50" yMin="0" xMax="1602" yMax="1636">
      <component glyphName="f.short" x="0" y="0" flags="0x4"/>
      <component glyphName="i" x="980" y="0" flags="0x4"/>
    </TTGlyph>
    <TTGlyph name="figuredash" xMin="114" yMin="410" xMax="1326" yMax="730">
      <contour>
        <pt x="114" y="410" on="1"/>
        <pt x="114" y="730" on="1"/>
        <pt x="1326" y="730" on="1"/>
        <pt x="1326" y="410" on="1"/>
      </contour>
    </TTGlyph>
    <TTGlyph name="five" xMin="78" yMin="-20" xMax="1247" yMax="1480">
      <contour>
        <pt x="554" y="-20" on="1"/>
        <pt x="419" y="-20" on="0"/>
        <pt x="180" y="15" on="0"/>
        <pt x="78" y="42" on="1"/>
        <pt x="78" y="372" on="1"/>
        <pt x="173" y="350" on="0"/>
        <pt x="409" y="316" on="0"/>
        <pt x="526" y="316" on="1"/>
        <pt x="681" y="316" on="0"/>
        <pt x="806" y="391" on="0"/>
        <pt x="806" y="454" on="1"/>
        <pt x="806" y="499" on="0"/>
        <pt x="742" y="562" on="0"/>
        <pt x="561" y="601" on="0"/>
        <pt x="384" y="610" on="1"/>
        <pt x="124" y="622" on="1"/>
        <pt x="182" y="1480" on="1"/>
        <pt x="1180" y="1480" on="1"/>
        <pt x="1180" y="1144" on="1"/>
        <pt x="418" y="1144" on="1"/>
        <pt x="616" y="1340" on="1"/>
        <pt x="576" y="794" on="1"/>
        <pt x="256" y="946" on="1"/>
        <pt x="516" y="934" on="1"/>
        <pt x="785" y="922" on="0"/>
        <pt x="1106" y="806" on="0"/>
        <pt x="1247" y="602" on="0"/>
        <pt x="1246" y="458" on="1"/>
        <pt x="1245" y="232" on="0"/>
        <pt x="911" y="-20" on="0"/>
      </contour>
    </TTGlyph>
    <TTGlyph name="five.dnom" xMin="84" yMin="-150" xMax="916" yMax="864">
      <contour>
        <pt x="422" y="-150" on="1"/>
        <pt x="325" y="-150" on="0"/>
        <pt x="156" y="-126" on="0"/>
        <pt x="84" y="-108" on="1"/>
        <pt x="84" y="138" on="1"/>
        <pt x="149" y="123" on="0"/>
        <pt x="316" y="100" on="0"/>
        <pt x="398" y="100" on="1"/>
        <pt x="497" y="100" on="0"/>
        <pt x="574" y="141" on="0"/>
        <pt x="574" y="174" on="1"/>
        <pt x="574" y="199" on="0"/>
        <pt x="538" y="235" on="0"/>
        <pt x="435" y="258" on="0"/>
        <pt x="336" y="262" on="1"/>
        <pt x="112" y="272" on="1"/>
        <pt x="152" y="864" on="1"/>
        <pt x="868" y="864" on="1"/>
        <pt x="868" y="616" on="1"/>
        <pt x="342" y="616" on="1"/>
        <pt x="484" y="762" on="1"/>
        <pt x="458" y="400" on="1"/>
        <pt x="218" y="512" on="1"/>
        <pt x="402" y="504" on="1"/>
        <pt x="686" y="492" on="0"/>
        <pt x="916" y="325" on="0"/>
        <pt x="914" y="178" on="1"/>
        <pt x="913" y="24" on="0"/>
        <pt x="677" y="-150" on="0"/>
      </contour>
    </TTGlyph>
    <TTGlyph name="five.numr" xMin="84" yMin="602" xMax="916" yMax="1616">
      <contour>
        <pt x="422" y="602" on="1"/>
        <pt x="325" y="602" on="0"/>
        <pt x="156" y="626" on="0"/>
        <pt x="84" y="644" on="1"/>
        <pt x="84" y="890" on="1"/>
        <pt x="149" y="875" on="0"/>
        <pt x="316" y="852" on="0"/>
        <pt x="398" y="852" on="1"/>
        <pt x="497" y="852" on="0"/>
        <pt x="574" y="893" on="0"/>
        <pt x="574" y="926" on="1"/>
        <pt x="574" y="951" on="0"/>
        <pt x="538" y="988" on="0"/>
        <pt x="435" y="1010" on="0"/>
        <pt x="336" y="1014" on="1"/>
        <pt x="112" y="1024" on="1"/>
        <pt x="152" y="1616" on="1"/>
        <pt x="868" y="1616" on="1"/>
        <pt x="868" y="1368" on="1"/>
        <pt x="342" y="1368" on="1"/>
        <pt x="484" y="1514" on="1"/>
        <pt x="458" y="1152" on="1"/>
        <pt x="218" y="1264" on="1"/>
        <pt x="402" y="1256" on="1"/>
        <pt x="686" y="1244" on="0"/>
        <pt x="916" y="1077" on="0"/>
        <pt x="914" y="930" on="1"/>
        <pt x="913" y="776" on="0"/>
        <pt x="677" y="602" on="0"/>
      </contour>
    </TTGlyph>
    <TTGlyph name="five.osf" xMin="86" yMin="-420" xMax="1243" yMax="1100">
      <contour>
        <pt x="562" y="-420" on="1"/>
        <pt x="427" y="-420" on="0"/>
        <pt x="188" y="-386" on="0"/>
        <pt x="86" y="-358" on="1"/>
        <pt x="86" y="-28" on="1"/>
        <pt x="181" y="-50" on="0"/>
        <pt x="416" y="-84" on="0"/>
        <pt x="528" y="-84" on="1"/>
        <pt x="681" y="-84" on="0"/>
        <pt x="802" y="-7" on="0"/>
        <pt x="802" y="62" on="1"/>
        <pt x="802" y="110" on="0"/>
        <pt x="741" y="176" on="0"/>
        <pt x="565" y="216" on="0"/>
        <pt x="392" y="224" on="1"/>
        <pt x="132" y="236" on="1"/>
        <pt x="190" y="1100" on="1"/>
        <pt x="1188" y="1100" on="1"/>
        <pt x="1188" y="764" on="1"/>
        <pt x="426" y="764" on="1"/>
        <pt x="624" y="960" on="1"/>
        <pt x="584" y="408" on="1"/>
        <pt x="264" y="560" on="1"/>
        <pt x="524" y="548" on="1"/>
        <pt x="789" y="536" on="0"/>
        <pt x="1105" y="420" on="0"/>
        <pt x="1243" y="213" on="0"/>
        <pt x="1242" y="66" on="1"/>
        <pt x="1241" y="-166" on="0"/>
        <pt x="913" y="-420" on="0"/>
      </contour>
    </TTGlyph>
    <TTGlyph name="five.tf" xMin="126" yMin="-20" xMax="1335" yMax="1480">
      <contour>
        <pt x="618" y="-20" on="1"/>
        <pt x="479" y="-20" on="0"/>
        <pt x="231" y="15" on="0"/>
        <pt x="126" y="42" on="1"/>
        <pt x="126" y="372" on="1"/>
        <pt x="224" y="350" on="0"/>
        <pt x="469" y="316" on="0"/>
        <pt x="590" y="316" on="1"/>
        <pt x="757" y="316" on="0"/>
        <pt x="894" y="391" on="0"/>
        <pt x="894" y="454" on="1"/>
        <pt x="894" y="499" on="0"/>
        <pt x="825" y="563" on="0"/>
        <pt x="630" y="602" on="0"/>
        <pt x="442" y="610" on="1"/>
        <pt x="174" y="622" on="1"/>
        <pt x="234" y="1480" on="1"/>
        <pt x="1266" y="1480" on="1"/>
        <pt x="1266" y="1144" on="1"/>
        <pt x="478" y="1144" on="1"/>
        <pt x="666" y="1340" on="1"/>
        <pt x="626" y="794" on="1"/>
        <pt x="310" y="946" on="1"/>
        <pt x="578" y="934" on="1"/>
        <pt x="857" y="922" on="0"/>
        <pt x="1189" y="806" on="0"/>
        <pt x="1335" y="602" on="0"/>
        <pt x="1334" y="458" on="1"/>
        <pt x="1333" y="232" on="0"/>
        <pt x="987" y="-20" on="0"/>
      </contour>
    </TTGlyph>
    <TTGlyph name="five.tosf" xMin="138" yMin="-420" xMax="1335" yMax="1100">
      <contour>
        <pt x="630" y="-420" on="1"/>
        <pt x="491" y="-420" on="0"/>
        <pt x="243" y="-386" on="0"/>
        <pt x="138" y="-358" on="1"/>
        <pt x="138" y="-28" on="1"/>
        <pt x="236" y="-50" on="0"/>
        <pt x="479" y="-84" on="0"/>
        <pt x="596" y="-84" on="1"/>
        <pt x="760" y="-84" on="0"/>
        <pt x="894" y="-7" on="0"/>
        <pt x="894" y="62" on="1"/>
        <pt x="894" y="110" on="0"/>
        <pt x="827" y="176" on="0"/>
        <pt x="637" y="216" on="0"/>
        <pt x="454" y="224" on="1"/>
        <pt x="186" y="236" on="1"/>
        <pt x="246" y="1100" on="1"/>
        <pt x="1278" y="1100" on="1"/>
        <pt x="1278" y="764" on="1"/>
        <pt x="490" y="764" on="1"/>
        <pt x="680" y="960" on="1"/>
        <pt x="638" y="408" on="1"/>
        <pt x="322" y="560" on="1"/>
        <pt x="592" y="548" on="1"/>
        <pt x="866" y="536" on="0"/>
        <pt x="1192" y="420" on="0"/>
        <pt x="1335" y="213" on="0"/>
        <pt x="1334" y="66" on="1"/>
        <pt x="1333" y="-166" on="0"/>
        <pt x="993" y="-420" on="0"/>
      </contour>
    </TTGlyph>
    <TTGlyph name="fiveeighths" xMin="84" yMin="-150" xMax="2446" yMax="1616">
      <component glyphName="five.numr" x="0" y="0" flags="0x4"/>
      <component glyphName="fraction" x="980" y="0" flags="0x4"/>
      <component glyphName="eight.dnom" x="1496" y="0" flags="0x4"/>
    </TTGlyph>
    <TTGlyph name="fl" xMin="50" yMin="0" xMax="1560" yMax="1636">
      <component glyphName="f.short" x="0" y="0" flags="0x4"/>
      <component glyphName="l" x="980" y="0" flags="0x4"/>
    </TTGlyph>
    <TTGlyph name="florin" xMin="-102" yMin="-460" xMax="1026" yMax="1636">
      <contour>
        <pt x="88" y="-460" on="1"/>
        <pt x="30" y="-460" on="0"/>
        <pt x="-52" y="-454" on="0"/>
        <pt x="-102" y="-448" on="1"/>
        <pt x="-102" y="-100" on="1"/>
        <pt x="-72" y="-103" on="0"/>
        <pt x="-20" y="-106" on="0"/>
        <pt x="8" y="-106" on="1"/>
        <pt x="125" y="-106" on="0"/>
        <pt x="230" y="-19" on="0"/>
        <pt x="230" y="62" on="1"/>
        <pt x="230" y="1100" on="1"/>
        <pt x="230" y="1262" on="0"/>
        <pt x="375" y="1503" on="0"/>
        <pt x="647" y="1636" on="0"/>
        <pt x="836" y="1636" on="1"/>
        <pt x="895" y="1636" on="0"/>
        <pt x="977" y="1630" on="0"/>
        <pt x="1026" y="1624" on="1"/>
        <pt x="1026" y="1276" on="1"/>
        <pt x="996" y="1279" on="0"/>
        <pt x="945" y="1282" on="0"/>
        <pt x="916" y="1282" on="1"/>
        <pt x="799" y="1282" on="0"/>
        <pt x="694" y="1195" on="0"/>
        <pt x="694" y="1114" on="1"/>
        <pt x="694" y="76" on="1"/>
        <pt x="694" y="-86" on="0"/>
        <pt x="548" y="-327" on="0"/>
        <pt x="277" y="-460" on="0"/>
      </contour>
      <contour>
        <pt x="50" y="740" on="1"/>
        <pt x="50" y="1100" on="1"/>
        <pt x="970" y="1100" on="1"/>
        <pt x="970" y="740" on="1"/>
      </contour>
    </TTGlyph>
    <TTGlyph name="florin.tf" xMin="128" yMin="-460" xMax="1256" yMax="1636">
      <contour>
        <pt x="318" y="-460" on="1"/>
        <pt x="260" y="-460" on="0"/>
        <pt x="178" y="-454" on="0"/>
        <pt x="128" y="-448" on="1"/>
        <pt x="128" y="-100" on="1"/>
        <pt x="158" y="-103" on="0"/>
        <pt x="210" y="-106" on="0"/>
        <pt x="238" y="-106" on="1"/>
        <pt x="355" y="-106" on="0"/>
        <pt x="460" y="-19" on="0"/>
        <pt x="460" y="62" on="1"/>
        <pt x="460" y="1100" on="1"/>
        <pt x="460" y="1262" on="0"/>
        <pt x="606" y="1503" on="0"/>
        <pt x="877" y="1636" on="0"/>
        <pt x="1066" y="1636" on="1"/>
        <pt x="1125" y="1636" on="0"/>
        <pt x="1207" y="1630" on="0"/>
        <pt x="1256" y="1624" on="1"/>
        <pt x="1256" y="1276" on="1"/>
        <pt x="1226" y="1279" on="0"/>
        <pt x="1175" y="1282" on="0"/>
        <pt x="1146" y="1282" on="1"/>
        <pt x="1029" y="1282" on="0"/>
        <pt x="924" y="1195" on="0"/>
        <pt x="924" y="1114" on="1"/>
        <pt x="924" y="76" on="1"/>
        <pt x="924" y="-86" on="0"/>
        <pt x="779" y="-327" on="0"/>
        <pt x="507" y="-460" on="0"/>
      </contour>
      <contour>
        <pt x="280" y="740" on="1"/>
        <pt x="280" y="1100" on="1"/>
        <pt x="1200" y="1100" on="1"/>
        <pt x="1200" y="740" on="1"/>
      </contour>
    </TTGlyph>
    <TTGlyph name="four" xMin="34" yMin="0" xMax="1460" yMax="1480">
      <contour>
        <pt x="34" y="256" on="1"/>
        <pt x="34" y="506" on="1"/>
        <pt x="556" y="1480" on="1"/>
        <pt x="1010" y="1480" on="1"/>
        <pt x="492" y="506" on="1"/>
        <pt x="456" y="616" on="1"/>
        <pt x="1460" y="616" on="1"/>
        <pt x="1460" y="256" on="1"/>
      </contour>
      <contour>
        <pt x="836" y="0" on="1"/>
        <pt x="836" y="616" on="1"/>
        <pt x="876" y="980" on="1"/>
        <pt x="1262" y="980" on="1"/>
        <pt x="1262" y="0" on="1"/>
      </contour>
    </TTGlyph>
    <TTGlyph name="four.dnom" xMin="20" yMin="-136" xMax="960" yMax="864">
      <contour>
        <pt x="20" y="26" on="1"/>
        <pt x="20" y="212" on="1"/>
        <pt x="308" y="864" on="1"/>
        <pt x="638" y="864" on="1"/>
        <pt x="350" y="212" on="1"/>
        <pt x="332" y="294" on="1"/>
        <pt x="960" y="294" on="1"/>
        <pt x="960" y="26" on="1"/>
      </contour>
      <contour>
        <pt x="516" y="-136" on="1"/>
        <pt x="516" y="294" on="1"/>
        <pt x="566" y="526" on="1"/>
        <pt x="836" y="526" on="1"/>
        <pt x="836" y="-136" on="1"/>
      </contour>
    </TTGlyph>
    <TTGlyph name="four.numr" xMin="20" yMin="616" xMax="960" yMax="1616">
      <contour>
        <pt x="20" y="778" on="1"/>
        <pt x="20" y="964" on="1"/>
        <pt x="308" y="1616" on="1"/>
        <pt x="638" y="1616" on="1"/>
        <pt x="350" y="964" on="1"/>
        <pt x="332" y="1046" on="1"/>
        <pt x="960" y="1046" on="1"/>
        <pt x="960" y="778" on="1"/>
      </contour>
      <contour>
        <pt x="516" y="616" on="1"/>
        <pt x="516" y="1046" on="1"/>
        <pt x="566" y="1278" on="1"/>
        <pt x="836" y="1278" on="1"/>
        <pt x="836" y="616" on="1"/>
      </contour>
    </TTGlyph>
</ttFont>
